<svg xmlns="http://www.w3.org/2000/svg" viewBox="0 0 250 250"><g transform="matrix(0.625,0,0,0.625,0,0)"><g transform="matrix(2,0,0,2,0,0)"><defs><style>.a{fill:#69D6F9;}.b{fill:#2a2d2e;}.c{fill:#FFC077;}.d{fill:#ffffff;}.e,.f{fill:none;stroke:#2a2d2e;stroke-linecap:round;stroke-linejoin:round;stroke-width:0.733px;}.f{stroke-dasharray:4.396;}</style></defs><path class="a" d="M150.715,195.251H112.026c2.579-4.648,5.33-10.593,6.279-14.739a9.107,9.107,0,0,0-.916-6.854l4.557-7.095c2.135-.809-3.458-4.381-3.458-4.381l7.74-16.3a48.113,48.113,0,0,0,4.71-4.4,7.2,7.2,0,0,0,1.81-3.274,4.75,4.75,0,0,0,.124-1.773l.037-.008s19.622.744,27.282,8.737c12.406,12.945,8.377,50.083,8.377,50.083H150.715Z"></path><path class="b" d="M167.436,52.82l-34,23.868,8.3-45.666ZM138.847,68.23l22.358-15.7L144.3,38.2Z"></path><path class="c" d="M95.081,126.922c1.066-1,3.1-1.813,5.678-.3,2.784,1.637,3.813,5.611,6.949,5.809s7.747-2.381,12.351-5.509c1.956-1.326,4.407-3.117,6.766-4.78a15.19,15.19,0,0,0,2.542-2.165,24.69,24.69,0,0,0,1.974-2.864c1.121-1.583,2.865-1.729,3.363-.561a3.513,3.513,0,0,1-.487,2.85,28.426,28.426,0,0,1-3.158,4.762l.154.128a4.5,4.5,0,0,1,.674,4.41l.106.037a5.367,5.367,0,0,1-.209,5.458,4.881,4.881,0,0,1,1.088,2.238,4.75,4.75,0,0,1-.124,1.773,7.2,7.2,0,0,1-1.81,3.274,48.113,48.113,0,0,1-4.71,4.4l-7.74,16.3-1.634,3.443-.081.213c-6.523-2.506-16-9.5-16-9.5l2.809-4.645,3.41-5.633c-2.121-1.872-2.78-2.143-3.725-3.982a21.585,21.585,0,0,1-2.011-6c-.513-2.366-2.231-4.095-4.732-5.483a5.386,5.386,0,0,1-1.854-1.491,1.437,1.437,0,0,1,.176-1.945C94.92,127.076,95,127,95.081,126.922Z"></path><polygon class="b" points="130.4 50.293 128.517 52.319 126.667 50.601 124.821 48.883 126.704 46.857 130.4 50.293"></polygon><path class="b" d="M126.444,115.01a.177.177,0,0,1-.033-.007A.177.177,0,0,0,126.444,115.01Zm.014,0c.37.11,2.865.875,2.821,2.011-.044,1.227-.894,1.227-.894,1.227a1.46,1.46,0,0,1,.469,1.227l.513.5a15.19,15.19,0,0,1-2.542,2.165c-2.359,1.663-4.81,3.454-6.766,4.78-4.6,3.128-9.212,5.711-12.351,5.509s-4.165-4.172-6.949-5.809c-2.582-1.517-4.612-.7-5.678.3-.831.436-1.553-.256-1.934-1.2a3.977,3.977,0,0,1-.282-1.432s-1.5-2.828-3.729-6.117a10.121,10.121,0,0,0-2.388-2.645c-.011-.007-.022-.018-.033-.025a2.065,2.065,0,0,0-1.2-.5,23.6,23.6,0,0,1-4.186-15.89c0-.037,0-.059,0-.059a24.957,24.957,0,0,1,.656-3.981c-.722,3.751,4.212,5.765,5.355,6.857,1.194,1.139-.4,3.436,0,6.809a12.552,12.552,0,0,0,5.52,9.429c3.627,2.3,7.011.875,10.861.927-.744-3.151.278-6.228,4.278-8.231a21.874,21.874,0,0,1,9.561-2.7,5.73,5.73,0,0,1,5.765,4.051s.89-3.461.645-4.461a33.57,33.57,0,0,0-2.5-6.9,25.082,25.082,0,0,1,4.088,7.1s1.747,1.275,1.747,2.411a1.166,1.166,0,0,1-1.135,1.179s1.8,1.04,1.608,2.41A1.076,1.076,0,0,1,126.458,115.014Zm-5.736,3.549c2.147-.227,2.158-3,1.022-5.739-2.626-5.176-7.414-2.389-11.183-.971s-5.956,3.033-4.15,7.231c.7,1.6,3.146,4.318,5.67,3.263s1.594-3.509,3.8-4.285C118.444,117.153,118.766,118.772,120.722,118.563Z"></path><polygon class="c" points="126.667 50.601 128.517 52.319 112.462 69.593 112.33 67.692 110.612 67.875 110.568 66.055 108.766 66.157 124.821 48.883 126.667 50.601"></polygon><path class="c" d="M108.7,98.212c1.018.674,1.41-1,2.74-2.542a8.41,8.41,0,0,1,4.373-2.784,5.438,5.438,0,0,0-4.718.971C108.839,95.622,107.686,97.542,108.7,98.212ZM92.6,103.139c3.256-3.6,2.253-4.513,6.45-5.447,1.989-.443,3.282.732,3.169-.484s-2.348-1.835-4.971-.677C94.667,97.673,92.656,102.974,92.6,103.139Zm31.377,4.619c.245,1-.645,4.461-.645,4.461a5.73,5.73,0,0,0-5.765-4.051,21.874,21.874,0,0,0-9.561,2.7c-4,2-5.022,5.08-4.278,8.231-3.85-.052-7.234,1.373-10.861-.927a12.552,12.552,0,0,1-5.52-9.429c-.4-3.373,1.194-5.67,0-6.809-1.143-1.092-6.077-3.106-5.355-6.857a18.186,18.186,0,0,1,1.04-3.088c3.773-8.374,13.89-10.663,19.194-10.659,4.769,0,11.938,4.381,14.692,8.516,1.561,2.337.835,2.985,1.553,5.19l0,.008a11.906,11.906,0,0,0,.656,1.586c.322.656,1.289,2.08,2.34,4.227l0,0A33.57,33.57,0,0,1,123.975,107.758Zm-8.923-8.444c.634-.12,1.018-.5.857-1.362s-.806-1.451-1.44-1.333a1.422,1.422,0,0,0-.857,1.765A1.109,1.109,0,0,0,115.052,99.314Zm-15.147,5.865c.685-.132,1.1-.55.927-1.476s-.872-1.572-1.56-1.44a1.536,1.536,0,0,0-.927,1.909A1.2,1.2,0,0,0,99.905,105.179Z"></path><path class="a" d="M121.946,166.563l-4.557,7.095a9.107,9.107,0,0,1,.916,6.854c-.949,4.146-3.7,10.091-6.279,14.739H74.631c2.78-4.08,13.938-24.2,16.6-27.289,2.432-2.824,4.531-3.337,4.531-3.337l5.015-8.289s9.476,7,16,9.5a11.921,11.921,0,0,0,3.458.872A4.532,4.532,0,0,0,121.946,166.563Z"></path><path class="d" d="M94.686,106.128a47.575,47.575,0,0,0,5.417-.561c1.586-.362,1.685-2.579,1.685-2.579s-.553-1.6-2.806-.926C97.239,102.582,94.686,106.128,94.686,106.128Z"></path><path class="d" d="M109.7,100.267a33.232,33.232,0,0,0,5.417-.561c2.257-.648,1.51-3.216,1.51-3.216s-.319-.718-2.627-.289C112.806,96.421,109.7,100.267,109.7,100.267Z"></path><path class="c" d="M121.744,112.824c1.136,2.739,1.125,5.512-1.022,5.739-1.956.209-2.278-1.41-4.846-.5-2.2.776-1.271,3.234-3.8,4.285s-4.974-1.659-5.67-3.263c-1.806-4.2.377-5.814,4.15-7.231S119.118,107.648,121.744,112.824Z"></path><path class="b" d="M111.1,93.857a5.438,5.438,0,0,1,4.718-.971,8.41,8.41,0,0,0-4.373,2.784c-1.33,1.546-1.722,3.216-2.74,2.542S108.839,95.622,111.1,93.857Z"></path><path class="b" d="M107.308,70.157c.85-.212,1.693.345,1.271,1.183l-2.04.92.766-2.1Z"></path><path class="c" d="M92.356,139.442l2.41-.82-2.41-12.689c.169-.04.337-.091.509-.146l.282-.07c.381.949,1.1,1.641,1.934,1.2-.084.077-.161.154-.234.235a1.437,1.437,0,0,0-.176,1.945,5.374,5.374,0,0,0,1.854,1.491c2.5,1.388,4.219,3.117,4.732,5.483a21.585,21.585,0,0,0,2.011,6c.945,1.839,1.6,2.11,3.725,3.982l-3.41,5.633c-11.227-4.047-13.018-13.069-13.018-13.069A1.628,1.628,0,0,1,92.356,139.442Z"></path><path class="a" d="M103.583,151.691l-2.809,4.645-5.015,8.289s-2.1.513-4.531,3.337c-2.659,3.088-13.817,23.209-16.6,27.289H51.2s-1.41-21.963,4.227-35.41,35.143-21.219,35.143-21.219S92.356,147.644,103.583,151.691Z"></path><path class="b" d="M102.217,97.208c.113,1.216-1.18.041-3.169.484-4.2.934-3.194,1.846-6.45,5.447.058-.165,2.069-5.466,4.648-6.608C99.869,95.373,102.107,95.992,102.217,97.208Z"></path><path class="c" d="M93.147,125.717l-.282.07c-.172.055-.34.106-.509.146-7.432,1.92-9.7-8-8.641-9.879.993-1.773,2.736-.725,3-.556.011.007.022.018.033.025a10.121,10.121,0,0,1,2.388,2.645c2.231,3.289,3.729,6.117,3.729,6.117A3.977,3.977,0,0,0,93.147,125.717Z"></path><path class="a" d="M73.184,80.655c1.007,1.671-4.029,6.561-11.249,10.92s-13.894,6.538-14.9,4.864,4.026-6.56,11.245-10.916S72.173,78.985,73.184,80.655Z"></path><path class="a" d="M59.931,58.7,73.184,80.655c-1.011-1.67-7.681.509-14.9,4.868S46.023,94.769,47.034,96.439L33.781,74.491c1.011,1.67,7.682-.51,14.9-4.869S60.939,60.377,59.931,58.7Z"></path><path class="a" d="M59.931,58.7c1.008,1.674-4.025,6.56-11.249,10.919s-13.89,6.539-14.9,4.869,4.03-6.561,11.249-10.92S58.924,57.033,59.931,58.7Z"></path><path class="e" d="M106.993,116.809l1.161.073a13.757,13.757,0,0,1,2.264-2.465,4.911,4.911,0,0,1,2.037-.8"></path><path class="e" d="M113.535,113.19a20.274,20.274,0,0,1,3.209-.722,16.266,16.266,0,0,1,2.377.616l.554-.865"></path><path class="e" d="M111.557,117.791a12.272,12.272,0,0,0,3.352-.524,19.613,19.613,0,0,0,3.022-1.557"></path><path class="e" d="M107.36,108.168a1.452,1.452,0,0,1,.329-.835.873.873,0,0,1,1.158-.2,4.1,4.1,0,0,0,2.234.4c.894-.1,1.454-.982,1.8-1.509a.686.686,0,0,1,1.246.315"></path><path class="e" d="M105.561,106.615c-.513,1.121-.179,2.959,1.191,2.773"></path><path class="e" d="M114.36,103.835s2.611,1.6.934,3.19"></path><path class="e" d="M92.594,103.142l0,0"></path><path class="e" d="M92.6,103.139c.058-.165,2.069-5.466,4.648-6.608,2.623-1.158,4.861-.539,4.971.677s-1.18.041-3.169.484C94.851,98.626,95.854,99.538,92.6,103.139Z"></path><path class="e" d="M108.7,98.212c1.018.674,1.41-1,2.74-2.542a8.41,8.41,0,0,1,4.373-2.784,5.438,5.438,0,0,0-4.718.971C108.839,95.622,107.686,97.542,108.7,98.212Z"></path><path class="e" d="M94.686,105.743s1.82-2.809,3.37-3.418a7.037,7.037,0,0,1,3.238-.337"></path><path class="b" d="M99.722,103.787h0a2.631,2.631,0,0,0-.758-1.432c-.414-.385-.784.08-1.271.176-.974.183-1.685.67-1.458,1.912a1.646,1.646,0,0,0,1.7,1.454,2.643,2.643,0,0,0,.465-.044A1.568,1.568,0,0,0,99.722,103.787Z"></path><path class="e" d="M110.125,100.157s1.454-2.81,3.007-3.414a6.979,6.979,0,0,1,3.239-.337"></path><path class="b" d="M114.506,98.285h0a1.576,1.576,0,1,0-3.084.579,1.537,1.537,0,0,0,.626,1.037,1.52,1.52,0,0,0,.872.252,2.283,2.283,0,0,0,.41-.04A1.4,1.4,0,0,0,114.506,98.285Z"></path><path class="e" d="M108.7,98.212a4.281,4.281,0,0,0,2.154,2.641"></path><path class="e" d="M86.715,115.5c-.264-.169-2.007-1.217-3,.556-1.055,1.876,1.209,11.8,8.641,9.879.169-.04.337-.091.509-.146"></path><path class="e" d="M87.4,118.168c-1.366,0-1.868,2.227-.5,4.242a3.343,3.343,0,0,0,3.667,1.293"></path><path class="e" d="M95.158,126.882a.626.626,0,0,1-.077.04c-.831.436-1.553-.256-1.934-1.2a3.977,3.977,0,0,1-.282-1.432s-1.5-2.828-3.729-6.117a10.121,10.121,0,0,0-2.388-2.645c-.011-.007-.022-.018-.033-.026a2.067,2.067,0,0,0-1.2-.494"></path><path class="e" d="M81.33,99.113A23.609,23.609,0,0,0,85.517,115"></path><path class="e" d="M118.469,95.032c-.718-2.2.008-2.853-1.553-5.19-2.754-4.135-9.923-8.516-14.692-8.516-5.3,0-15.421,2.285-19.194,10.659a18.186,18.186,0,0,0-1.04,3.088,24.957,24.957,0,0,0-.656,3.981"></path><path class="e" d="M121.469,100.853c-1.051-2.147-2.018-3.571-2.34-4.227a11.906,11.906,0,0,1-.656-1.586"></path><path class="e" d="M82.118,94.567a3.869,3.869,0,0,0-.128.506c-.722,3.751,4.212,5.765,5.355,6.857,1.194,1.139-.4,3.436,0,6.809a12.552,12.552,0,0,0,5.52,9.429c3.627,2.3,7.011.875,10.861.927-.744-3.151.278-6.228,4.278-8.231a21.874,21.874,0,0,1,9.561-2.7,5.73,5.73,0,0,1,5.765,4.051s.89-3.461.645-4.461a33.57,33.57,0,0,0-2.5-6.9"></path><path class="e" d="M126.458,115.014a1.076,1.076,0,0,0,1.323-1.059c.186-1.37-1.608-2.41-1.608-2.41a1.166,1.166,0,0,0,1.135-1.179c0-1.136-1.747-2.411-1.747-2.411a25.082,25.082,0,0,0-4.088-7.1l0,0"></path><path class="e" d="M126.444,115.01a.177.177,0,0,1-.033-.007A.177.177,0,0,0,126.444,115.01Z"></path><path class="e" d="M126.444,115.01s.007,0,.014,0"></path><path class="e" d="M128.854,119.479a1.46,1.46,0,0,0-.469-1.227s.85,0,.894-1.227c.044-1.136-2.451-1.9-2.821-2.011"></path><path class="e" d="M125.308,129.072c1.095-.923,2.293-1.8,3.934-3.084a12.345,12.345,0,0,0,1.817-1.82,28.426,28.426,0,0,0,3.158-4.762,3.513,3.513,0,0,0,.487-2.85c-.5-1.168-2.242-1.022-3.363.561a24.69,24.69,0,0,1-1.974,2.864,15.19,15.19,0,0,1-2.542,2.165c-2.359,1.663-4.81,3.454-6.766,4.78-4.6,3.128-9.212,5.711-12.351,5.509s-4.165-4.172-6.949-5.809c-2.583-1.517-4.612-.7-5.678.3-.084.077-.161.154-.234.235a1.437,1.437,0,0,0-.176,1.945,5.378,5.378,0,0,0,1.853,1.491c2.5,1.388,4.22,3.117,4.733,5.483a21.585,21.585,0,0,0,2.011,6c.945,1.839,1.6,2.11,3.725,3.982"></path><path class="e" d="M131.993,128.743a5.367,5.367,0,0,1-.209,5.458,11.285,11.285,0,0,1-1.648,2.23"></path><path class="e" d="M131.784,134.2a4.881,4.881,0,0,1,1.088,2.238,4.75,4.75,0,0,1-.124,1.773,7.2,7.2,0,0,1-1.81,3.274,48.113,48.113,0,0,1-4.71,4.4,23.717,23.717,0,0,1-2.484,1.762"></path><polyline class="e" points="126.228 145.882 118.488 162.182 116.854 165.625"></polyline><path class="e" d="M106.993,146.058l-3.41,5.633-2.809,4.645-5.015,8.289s-2.1.513-4.531,3.337c-2.659,3.088-13.817,23.209-16.6,27.289"></path><path class="e" d="M100.774,156.336s9.476,7,16,9.5a11.921,11.921,0,0,0,3.458.872,4.532,4.532,0,0,0,1.715-.147c2.135-.81-3.458-4.381-3.458-4.381"></path><path class="e" d="M121.946,166.563l-4.557,7.095a9.107,9.107,0,0,1,.916,6.854c-.949,4.146-3.7,10.091-6.279,14.739"></path><path class="e" d="M51.2,195.251s-1.41-21.963,4.227-35.41,35.143-21.219,35.143-21.219,1.791,9.022,13.018,13.069"></path><polyline class="e" points="92.356 125.933 94.766 138.622 95.158 140.684"></polyline><polyline class="e" points="91.1 139.871 92.356 139.442 94.766 138.622 94.77 138.622"></polyline><path class="e" d="M132.909,136.431s19.622.744,27.282,8.737c12.406,12.945,8.377,50.083,8.377,50.083"></path><path class="e" d="M152.03,189.724c-.722,3.132-1.315,5.527-1.315,5.527"></path><path class="e" d="M154.579,176.292c-.095,2.41-1.465,8.743-2.546,13.428"></path><path class="e" d="M106.411,119.084c.7,1.6,3.146,4.318,5.67,3.263s1.594-3.509,3.8-4.285c2.568-.909,2.89.71,4.846.5,2.147-.227,2.158-3,1.022-5.739-2.626-5.176-7.414-2.389-11.183-.971S104.605,114.886,106.411,119.084Z"></path><path class="e" d="M160.476,79.589l.011.011c.227.348,5.608,8.66-2.033,13.524-7.805,4.971-13.589-6.018-13.589-6.018s-1.128,9.5-10.026,10.2a9.463,9.463,0,0,1-8.172-3.868,16.965,16.965,0,0,1-2.652-4.6"></path><path class="e" d="M136.2,20.608h0c.1-.176,3.472-5.985,10.172-4.626,7.38,1.5,6.326,9.253,6.326,9.253s15.582-11.282,26.578,3.758c11.81,16.153-3.469,27.758-3.469,27.758s14.224,9.443,4.971,21.007c-9.07,11.337-19.864,2.2-20.286,1.842"></path><path class="e" d="M52.869,33.8h0c-.084-.2-2.831-6.857,2.081-10.073,5.348-3.5,10.567,2.784,10.567,2.784S67.693,9.623,84.594,5.865,109.762,16.85,109.762,16.85s6.345-10.8,17.847-7.476c8.549,2.469,8.586,11.088,8.586,11.231"></path><path class="e" d="M75.561,102.036s-.527,4.956-7.073,6.784-9.894-4.059-9.894-4.059S42.668,117.574,27.507,109.4c-13.029-7.029-13.392-23.967-2.905-36.08,0,0-9.967-1.062-8.319-10.124,1.773-9.74,13.392-8.466,13.392-8.466S21.946,44.154,30.95,34.509c8.912-9.546,21.659-.894,21.916-.718"></path><circle class="e" cx="75.627" cy="119.084" r="2.667"></circle><ellipse class="e" cx="65.126" cy="120.212" rx="3.795" ry="4.527"></ellipse><path class="e" d="M56.814,118.648c-.894,2.293-3.787,4.23-6.08,3.34s-3.118-4.278-2.224-6.571,3.788-4.231,6.081-3.337S57.708,116.355,56.814,118.648Z"></path><path class="f" d="M59.931,58.7c1.008,1.674-4.025,6.56-11.249,10.919s-13.89,6.539-14.9,4.869,4.03-6.561,11.249-10.92S58.924,57.033,59.931,58.7Z"></path><path class="f" d="M73.184,80.655c1.007,1.671-4.029,6.561-11.249,10.92s-13.894,6.538-14.9,4.864,4.026-6.56,11.245-10.916S72.173,78.985,73.184,80.655Z"></path><line class="f" x1="33.781" y1="74.491" x2="47.034" y2="96.439"></line><line class="f" x1="59.931" y1="58.703" x2="73.184" y2="80.655"></line><line class="e" x1="28.811" y1="66.252" x2="36.789" y2="61.439"></line><line class="e" x1="46.983" y1="55.282" x2="54.961" y2="50.469"></line><path class="e" d="M41.642,60.37a1.347,1.347,0,0,0,1.279-.07,1.365,1.365,0,1,0-1.411-2.337l-.04-.066a1.365,1.365,0,0,0-1.41-2.337,1.35,1.35,0,0,0-.66,1.1"></path><path class="e" d="M115.29,42.659a16.547,16.547,0,0,1-13.359,18.828c-.143.022-.286.048-.429.07a16.541,16.541,0,0,1-5.109-32.685c.143-.022.282-.044.425-.059A16.539,16.539,0,0,1,115.29,42.659Z"></path><polyline class="f" points="96.389 26.066 96.818 28.813 99.374 45.15 101.931 61.487 102.36 64.231"></polyline><polyline class="f" points="80.294 48.132 82.605 47.769 99.374 45.15 115.29 42.659 118.455 42.165"></polyline><path class="e" d="M67.089,42.949c-2.857,7.322.113,21.318,11.373,22.783s10.07,6.059,13.8,8.982,8.2,1.674,11.608-1.044"></path><polyline class="e" points="128.517 52.319 112.462 69.593 112.33 67.692 110.612 67.875 110.568 66.055 108.766 66.157 124.821 48.883"></polyline><polyline class="e" points="107.305 70.157 106.539 72.26 108.579 71.34 112.462 69.593"></polyline><line class="e" x1="108.766" y1="66.157" x2="107.308" y2="70.157"></line><path class="e" d="M107.305,70.157h0c.85-.212,1.693.345,1.271,1.183"></path><line class="e" x1="126.667" y1="50.601" x2="112.579" y2="65.758"></line><polyline class="e" points="130.4 50.293 128.517 52.319 126.667 50.601 124.821 48.883 126.704 46.857"></polyline><path class="e" d="M130.4,50.293l.839-.905a2.523,2.523,0,0,0-3.7-3.436l-.839.905Z"></path><path class="e" d="M131.213,124.3a4.5,4.5,0,0,1,.674,4.41,9.727,9.727,0,0,1-2.594,3.817"></path><path class="e" d="M94.671,129.1s1.161-1.52,2.344-.909,1.715.909,1.715.909"></path><path class="e" d="M90.565,138.622a1.628,1.628,0,0,1,1.791.82"></path><path class="e" d="M132.788,118.607s.095-2.274,1.916-2.051"></path><path class="e" d="M72.613,97.974s.08,3.516,2.959,4.007a4.58,4.58,0,0,0,1.436,0c3.89-.546,4.282-2.509,4.322-2.872,0-.037,0-.059,0-.059"></path><path class="e" d="M118.469,95.032l0,.008a4.1,4.1,0,0,0,4.513,2.025c2.7-.465,3.681-3.626,3.681-3.626"></path><polygon class="e" points="167.436 52.82 141.729 31.022 133.433 76.688 167.436 52.82"></polygon><polygon class="e" points="161.205 52.535 138.847 68.23 144.301 38.201 161.205 52.535"></polygon><line class="f" x1="136.729" y1="79.619" x2="170.733" y2="55.751"></line><path class="e" d="M157.33,184.764a60.536,60.536,0,0,1-5.3,4.956l0,0"></path></g></g></svg>