<svg xmlns="http://www.w3.org/2000/svg" viewBox="0 0 250 250">
  
<g transform="matrix(0.625,0,0,0.625,0,0)"><g transform="matrix(2,0,0,2,0,0)"><g>
    <path d="M65.65,133.26l3.25,9.68,4.25-2.18-4.41-9.15S65.86,133.1,65.65,133.26Z" style="fill: #79e1cf"></path>
    <path d="M86.69,105.8a81,81,0,0,0,15.75-6.29l24.82,3.9s4.54,2.63,5.09,2.71a7.69,7.69,0,0,1,4.46,1c1.83,1.27,5.49,1.27,6.44,1.43a17.14,17.14,0,0,1,3.9,1.83c.95.56,5.17,1.91,5.89,2.39s2.38,1,2.78,3a41.62,41.62,0,0,1,1,7.48c-.08,1.83-.55,6.76-1.27,8.67s-3.82,11.85-4,13-.55,8.91-1,10.51-2.62,10-3,11.53-3.26,9.15-3.74,10.5-1.2,3.82-1,4.85a9.4,9.4,0,0,1,.24,3.42c-.16,1.28.88,7.56.56,8s-11.46.95-15.35-.24-19.41.48-25.7.16-22.91-.48-25.29-1-5.33-.63-3.9-2.22,1.59-3.82,1.67-6a30.89,30.89,0,0,1,1.19-5.81l-5-34.25,7.34-15Z" style="fill: #bed4fc"></path>
    <path d="M155.74,96c1.25.88,1.09.69,0,.83s-1.66.18-1.79.89a8.87,8.87,0,0,1-.49,1.69.86.86,0,0,1-.14-.13c-2-2.94-.45-2.18-4.12-2.48-.73,0,1.28-.68,1.87-2,.22-.49-.81-2.32-.23-2,1.76.93,1.19.59,1.41.72.66.41,2.62-1.2,3.37-1.42C155.85,93.72,154,94.72,155.74,96Z" style="fill: #ffeab6"></path>
    <path d="M170.54,65c.49.18-1,.61-1.61,1.07-1,.74-.06,1.36-.14,2.4-.78-.33-1.66-2-2.82-2-2.09.7-2.22,1-2.59,1,.12-.75,1.88-2.27.88-3.08-.39-.3-1.36-1.73-.87-1.62,1.94.45,1.93.54,2.3.28,1.95-1.34,2-3.4,2.36-.58C168.36,65,167.73,64,170.54,65Z" style="fill: #ffeab6"></path>
    <path d="M168.11,32.06c-.05.07-.09.16-.16.19-2.52,1.3-2.69,1.14-2.54,2,.38,2.37.29,2,.23,2.41-2.67-2.42-1.61-2.11-2-2.18-.74-.11-2.12.72-3.45,1-.46,0-.28-.1.87-2,1.27-2.07-4.91-4.52.45-3,1,.29.82.15,2.64-2.3.58-.79.21,2.78,1.56,2.9.47,0,1.12.56,2.19.8A.92.92,0,0,1,168.11,32.06Z" style="fill: #ffeab6"></path>
    <path d="M64.67,75.6c5.08-1.14,0,.46,1.13,2.36.93,1.64,1.31,1.49-.5,1.09-2.1-.47-1.15-.61-3.33,1.6-.26.27.05-.83.13-1.87.09-1.24-2.31-1.64-2.66-2.29.17,0-.13,0,1.41-.15,1.9-.16,1-1.23,1.83-2.93C63.36,74,64.06,75.73,64.67,75.6Z" style="fill: #ffeab6"></path>
    <path d="M74.89,53.12c.25.42-1,0-2.77-.66-1-.37-.77-1.12-3.13,2.18-.91,1.29.42-2.84-1.09-3.4-3.42-1.28-3.42-1,.34-2.36.82-.3.43-2.09,1-3.63,3.57,3.34.56,3.06,5.78,1.86-.77,2.06-2.37,2.65-1.45,3.72A14.09,14.09,0,0,1,74.89,53.12Z" style="fill: #ffeab6"></path>
    <path d="M102.16,111.81c.47,2.22.93,2.48.41,2.4-4.53-.71-8.95-5.19-9.86-8.95-.17-.71-.29-.64.47-.9,2.23-.79,3.38-1.64,3.1-1.14-.56,1-.16,2.29-.23,2.75-.26,1.73.94,3.19,2.67,4.11.23.12.15.1,1.68.2,1-.24,1.13-.34,1.25,0A7.61,7.61,0,0,1,102.16,111.81Z" style="fill: #ffc6a6"></path>
    <path d="M137.8,35.68c2.74,1.15,3.51,1.33,1.66,1.79-1.16-.28-1.3-.3-2-1.72C137.39,35.57,137.61,35.6,137.8,35.68Z" style="fill: #e6fcff"></path>
    <path d="M143.28,35.24c.17,0,.16.12.09.21-.41.55-.88,1.36-1.65.87-2-1.29-5.9-1.88-4.83-3.55.44-.68.08.1,2.36,1.08C141.72,34.91,142.61,35.32,143.28,35.24Z" style="fill: #e6fcff"></path>
    <path d="M144.1,33.08c.61.06-.14,1.15-1.11,1.13-1.61-.56-6.46-2.34-5.12-3.4.16-.12.08-.46.31-.44.4,0-.13.42,2.52,1.48S143.58,33,144.1,33.08Z" style="fill: #e6fcff"></path>
    <path d="M139.09,28.23c5.3,4,7.4,1.94,5.8,3.8-.3.35-1.46-.24-1.9-.4C140.85,30.84,137.28,29.7,139.09,28.23Z" style="fill: #e6fcff"></path>
    <path d="M153.11,21.12c.31.09.08.82-.2.67C151.85,21.25,152.74,21,153.11,21.12Z" style="fill: #ffd152"></path>
    <path d="M142.54,18.38c-.55.45-.8-.42-.44-.52C142.22,17.83,142.43,18.21,142.54,18.38Z" style="fill: #ffd152"></path>
    <path d="M146.31,10.2c12.39-.07,15.06,16.23,2.18,17.7-1.68.2-2-.28-2.52.39-.94,1.33-.33,1.93-1.1,1.73a15.37,15.37,0,0,1-4.44-1.92c-1.27-.77,1-1,.34-2.43s-.69-.34-1.73-2C134.23,16,141.05,9.91,146.31,10.2Zm6.18,12.74c.63,1.56,2.59-2.13,1.08-2.62s-1.91.57-2.15.51c-2.32-.52-.88-.22-2.22-.91-.62-.32-1.11.43-1.61-.28-.79-1.14-.22,0-3.93-1.48-.26-.1-.4-.46-.6-.7s-.51-.24-.88-.34c-1.08-.29-1.7,1.92,0,2.21.18,0,.31,0,.25.31-.38,1.63,1.83,3,1.39,3.79a12.77,12.77,0,0,0-1.25,3.64c-.05.3.22.14.33.23.42.36.62-1.52,1.7-3.55.73-1.35-1.39-2.7-1.34-3.86.06-1.49.64-.64,2-.21.76.24,1.34,0,1.55.5a1.25,1.25,0,0,0,1.51.62c.92-.24.68.47,1.76.7s1.07.18,1.07.58c0,.14,0,.29-.17.33a6.57,6.57,0,0,0-1.46.71c-.57.27-.32-.19-1.27.43-1.43.93-1.19.34-1.79.81-1,.81-3.19,3.12-2.49,3.67s.78-.89,2.2-2.19,1.2-.67,1.68-1c1-.62,1.14-.71,1.29-.72.86-.07,1.52-.79,2.17-.85.88-.08.65-.85.84-.79S152.42,22.77,152.49,22.94Z" style="fill: #ffd152"></path>
    <path d="M66.78,19.45a2.68,2.68,0,1,1-3.05-1.86A2.69,2.69,0,0,1,66.78,19.45Z" style="fill: #9edeff"></path>
    <path d="M56.87,28.06c.44-.5,1-1,1.27-.33,0,0-9.09,10.16-9.11,10.18C48.29,37.4,48,38.44,56.87,28.06Z" style="fill: #9edeff"></path>
    <path d="M62.9,36.9c.18.43.1.27-6.2,6.51-.32.33-.17.32-.52-4.69,0-.47,4-3.6,5.29-5.14S62.42,32.3,62.9,36.9Z" style="fill: #9edeff"></path>
    <path d="M51.94,24c.77-.1-1.41,1.67-3,4.07-.36.52-1.72,2.34-2.25,2.41,0,0-5,.15-5,.12-.14-.19,2.53-2.74,5-5.57C47,24.56,47,24.64,51.94,24Z" style="fill: #9edeff"></path>
    <path d="M76.25,9.49a14.17,14.17,0,0,1-.92,4.13c-2.41,5.88-2.2,5.35-2.86,4.17-3.06-5.45-7.3-6-6.5-6.49A21.07,21.07,0,0,1,72.7,8C76.49,7,76.07,8,76.25,9.49Z" style="fill: #ff8e92"></path>
    <path d="M136.92,82.71c-.77-2.63,1.13-9.26,1.7-10.73a20.3,20.3,0,0,0,.66-8.17c-.4-3.13-2.6-8.43-3.76-11s-6.2-7.33-7.8-8.57-9.27-4.46-12-5.66-7.64-1.47-7.64-1.47a5.18,5.18,0,0,0-6.3-1.43c-3,1.33-3.5,4.53-3.76,4.6-6.2-.07-7.07,4.93-7.07,4.93-2.3,2.33-1.66,3.8-.7,5.33s4.07,1.57,4.07,1.57S113.23,48,119,57s3.5,23.68,3.5,23.68l.16,14.58a6.65,6.65,0,0,0,7,1.37c-3.59-2.74-2.9-4.3-2.9-4.3,5.44,3.36,7.84,0,7.84,0a5.77,5.77,0,0,1-4.2-3.4,21,21,0,0,0,4.93.87c4.47.43,5.47-2,5.47-2S137.68,85.34,136.92,82.71Z" style="fill: #ffb564"></path>
    <path d="M98.62,90a1.7,1.7,0,0,1,0-2.27c-6.15-3.79-4.83-6.92-6.15-6.29A13.61,13.61,0,0,1,88,82.56c-.4.12,1.11,2.7,4.44,3.81,2.82.94-3,3.63-3.89,3.7-1.45.11,4.67,3.78,8.14,1.44a.5.5,0,0,1,.8.51A13.38,13.38,0,0,1,96,96c1.73.31,3.71-.83,5.15-1.81.38-.25.24-.69.39-1C101.6,93.05,100.34,92.12,98.62,90Z" style="fill: #ffb564"></path>
    <path d="M82.87,102.32c1.83,3.8,1.91,3.61,1.46,3.77L64,112.8c-.24,0,.09.57-4.43-8.37-.23-.45-1.44.16,12.83-4.62,2.48-.83,4.84-1.66,7.49-2.53C80.57,97.06,80,96.38,82.87,102.32Zm-2.73,3.25c-.43-.74-.77-.23-1.3-.21-.13,0-13.08,4-14,4.44-.45.19-.86.79-.31.93C64.74,110.78,79.37,106.46,80.14,105.57ZM77,101.35c.32-.16.54-.72-.14-.86-.12,0-.89.23-2,.51-3.95,1-4.5,1.74-5.52,1.72-1.18,0-1.13.48-2.89.87-4,.89-3.35,1.27-4.42,1.32-.13,0-.34.31-.38.43-.09.36,1,.57,1.52.28a10.08,10.08,0,0,1,3.58-1.13c1.65-.29,1.59-.82,2.56-.77,1.85-.25,2.55-1,4.23-1.42S75.72,102,77,101.35ZM74.37,105a.7.7,0,0,0,.73-.55c0-1.15-4,.68-5.89,1-1.72.29-5.63,1.43-6.2,2.05-.4.44-.18.69.36.72,2-.68,1.73-.77,2.45-1,4.16-1.17,1.3-.21,5.71-1.48C73.53,105.2,73.66,105,74.37,105Z" style="fill: #fff5db"></path>
    <path d="M67,129.31c.3.61-.8.95-1.44,1.07-.38-.25.46,1.14-8.7-17.31C51,101.41,51,101.88,51.6,101.88,54.72,101.89,49.89,95,67,129.31Z" style="fill: #79e1cf"></path>
    <path d="M53.82,109.15c11.14,22.6,10.93,21.56,10.45,21.73-6,2.06-3,6-3.62,7.35-.33-.47-21-42.82-21.14-43.17.16-.06-.38-.33,8.38,4.9C50.7,101.64,49.07,99.5,53.82,109.15Z" style="fill: #79e1cf"></path>
    <path d="M84.6,98.07c-3.41-7.07-3.18-6.65-3.46-6.55-3,1.07-18.7,6.28-21.35,7.15-6.53,2.16-6.12,1.74-5.72,2.52,15.3,29.91,13,28.22,14.75,27.75,2.05-.05.68,3.36.75,3.54s.57,1.43.85,1.33a18.55,18.55,0,0,1,1.85-.69,15.2,15.2,0,0,0,4.09-1.21c2.8-1.43,2.84,3.06-.7,4.79a13.11,13.11,0,0,1-3.06,1.36c-.18,0-.22.14-.14.3.72,1.52.54,1.4,1,1.4,5.4,0,4.76-.87,8.5-1.66,1.1-.24,1.56,1.11,1.13,2-.1.2.07.18.28.12,0,0,18-5.33,18.78-5.58S102.56,135.29,84.6,98.07Zm.4,8.81c-.16.06-18.76,6.23-21,6.89-.83-.09-.67.36-5.3-9.27-.62-1.28-1.44-.68,21.35-8.26.9-.3.86,0,2.11,2.56C85.54,105.74,86.28,106.44,85,106.88Z" style="fill: #79e1cf"></path>
    <path d="M138.92,156.44c1,1.49,1.23-.85-7.08,10.88a36.78,36.78,0,0,1-2.92,3.48c-1.41,1.63-2.54,3.45-4.77,5.16-5.22,4-9.13,3-13.68-2.33a12.3,12.3,0,0,1-1.45-3.78c-.65-2.63-1.81-3.36-2.62-6.34-2.12-7.79.19-45.43.4-45.62.86-.79-.48-.4-2.41-2.92-1.57-2-.84-4.14-4-9.28a1,1,0,0,0-.68-.56c-.61-.1-.11.69.17,1.31.42.91-.44.33-.6.32-.41-.05-.69.42.71,1.24.17.1.63.11.75.27a2.59,2.59,0,0,1,.25.71c0,.14,0,.18-.13.19-1.1.13-1.58.36-2.49-.41-.52-.44-1.45-1.44-1.43-2.12.05-2-.29-3,1.43-4,.67-.37.79-1,.83-1.74.07-1.36,1.44-.62,2-2.39.8-2.52,4.46-.3,3.93-1.71-1.62-4.25-6.7-7-6-8.22.66-1.07,3.07.92,3.69,1.64,1.94,2.19,5.5,5.17,5.82,7.25.2,1.25,1.07,1.68,1.94,4.6,1.57,5.24,3.35,7.47,3.56,13.26.33,9,9.62,43.54,9.63,43.57.26.54.88.31.85-.25-.36-6.71-4.1-14.11-3.18-14.16a8.65,8.65,0,0,1,4.4.86c.92.69,6.6,5.74,7.1,6.21C135.12,153.5,137.43,154.16,138.92,156.44Z" style="fill: #ffc6a6"></path>
    <path d="M127.6,71.61c4.22-3.57,9.21-.67,5,6.07-.84,1.33-1.68,2.48-5.35,4-4.77,2-5.34-10.21-5.43,12,0,6.3.68,8.19,9.53,12.48.35.17-2.72,2.46-2.74,2.47-5.33,3.82-2.2,2-8.1,4.37-1,.38-5.13,2.09-5.2,1.46-.8-6.69-2.4-8.22-3.5-12.14-1-3.46-2.12-4.34-2.22-5.5-.14-1.7-4-5-4.47-5.6-.17-.2-.15-.28.1-.37,11.27-3.67,9.56-6.46,8.42-5.79-2.32,1.35-12.71,5.07-17.55-.48-5.31-6.1-5.43-16.93-3.23-16.25a5.09,5.09,0,0,0,5-1.7c.58-.58,0,1.63,2.8,2.14.58.11.8-.6.45-.77-.85-.43-1.65-.63-2.11-2.06-.36-1.11,3.1-.22,3-2.82,0-.69-.67-.71-.82-.09-.27,1.07,0,.91-1.6,1.21-.14,0-.18,0-.13-.17.88-2.77.6-3.56,1.5-4.23a2.52,2.52,0,0,1,3.79,2.27c.13,3.27,3.3,8.06,7,7.92,5.24-.21,6.75-5.61,7.7-6.2.63-.4,1.29-.15,3.95,1.48.78.47-1.49,5.21,2.21,6.83.39.17-.46.69.49,1C126.2,73.26,126.74,72.33,127.6,71.61Zm4.79,3.14a1.67,1.67,0,0,0-1.82-2.38c-1.62.35-3.39,2.41-2.53,4.08.29.57,0,1.75-.6,1.89-1.19.26-1.27-.3-1.56.24s.35,1,1,1c2.06,0,2.75-2.36,2.09-3.63a1,1,0,0,1-.06-.93c.42-1,2.51-2.89,2.71-.21C131.67,75.09,132.18,75.19,132.39,74.75Zm-31.56,1.13c0-.36-.22-1.41-1.06-1.43-1,0-1.15,1.49-.43,2.22C99.77,77.12,100.59,77.22,100.83,75.88Z" style="fill: #ffc6a6"></path>
    <path d="M84.67,150.41c2.92,2,2.47.09,1.06,9.57a92,92,0,0,1-2.87,12.09c-.28.82.14-2.35,0-5.71-.14-4.56-4.84-12.18-5.34-12-1,.33,1,1.5,3.44,8.26,1.67,4.74.79,11.26-.38,13-1.52,2.24-2.84,3.19-6.67,2.61a8.79,8.79,0,0,1-7.22-6.57c-.54-2.22-1.42-4.78-1-7.47,2-14.4.8-7.73,3.3-4.29h.45c-.14-1.09-.24-1-1.58-5.4-.42-1.4-.43-1.6-.87-1.88-1.89-1.18-1.54-1.37-1.91-3.37-.23-1.21-1.72-.89-1.53-2.59a2.84,2.84,0,0,0-1.07-2.54c-.69-.65-.53-2.57.67-3.82,2.14-2.22,2.38-3.21,4.46-4.75.33-.25.41-.16,3.49-.88.67-.16.26-.32,1.67-.57,3.77-.68,4.72-2,4.68-1.16a3.67,3.67,0,0,1-2.43,3,13.37,13.37,0,0,1-2.56,1.15c-6,1.36-5.68,5.38-4.7,4.23,1.28-1.5,1.09-1.81,1.57-.93.36.66.18.36-1,1.42-1,.9-4.34,3.6-2.72,3.36.23,0,.36-.15,2.48-1.93,1.51-1.28,2.12-2.43,7-2.48,2.81,0,5-1.29,6.91-1.66.73-.15.54,2.19-4.58,3.57a18.1,18.1,0,0,1-3.46,1,4.87,4.87,0,0,0-2.6.91c-.7.66-1.22,1-.86,1.37.13.14.25.25.44.05,1.21-1.26,2.46-1.2,5-1.71.76-.15.6-.53,1.81-.65a34.33,34.33,0,0,0,3.67-.84c1,0,.23,2.12-5,4.14-2.53,1-3.72,1.27-4.61,2.6-.24.36-.44.9,0,1.1.73.33.29-1.2,2.9-2.15.45-.16.56-.2.72,1.8.34,4.34-1.26,6.24-1.39,8,0,.24.28.55.58.18a31.69,31.69,0,0,0,1.21-3c2.24-6.7-3-8.88,4-6.73C83,149.72,83.44,149.57,84.67,150.41Z" style="fill: #ffc6a6"></path>
    <path d="M68.48,130.1c1.36-.31.23,2.63-2.26,4-2,1.13-2.2,1.24-2.48,1.58s0,.77.26.68c1.64-.48,4.36-3.41-1.22,3-1.32,1.52-1.12,1.63-1.3.29a11.16,11.16,0,0,1,.14-1.52c.25-1.19-1.06-4,.34-4.89a29.77,29.77,0,0,1,5.74-2.7A3.65,3.65,0,0,1,68.48,130.1Z" style="fill: #ffc6a6"></path>
    <path d="M93.32,56c0-.14.8-4,1.78-5.41s4.34-5,4.34-5,2.5,1.3,2.73-1c0,0,.94.89,2-.76S108,42.35,109,42.79s3.75.94,5.27,3.49S121,57.72,121.93,59s3.88,5,1.69,5.63l-4-2.28s-1.39-4.07-4.88-4.65-7.64-.93-9.34,2c0,0-3.35-2-5.68.13,0,0-.53-3.13-3.44-3.62S93.32,56,93.32,56Z" style="fill: #ffc6a6"></path>
    <polygon points="26.35 75.18 25.88 72.35 28.13 74.25 31.03 72.89 30.05 76.12 32.11 79.12 28.67 78.53 27.31 81.57 26.44 77.92 23.45 76.5 26.35 75.18" style="fill: #ffeab6"></polygon>
    <path d="M170.38,74.33c-4.67,3.72-5.17,10.85-7.52,9.14-2.69-2-4.41-4.09-4.49-7.09,0-.83-.45-1.64-1.25-1.34a16.22,16.22,0,0,1-2,.72c-2.29.6-2.2-1.48-3.26-.51a8.25,8.25,0,0,0-1.19,1c-.33.3-.17.13-.93-.44s-1.86.21-1.71.65a.57.57,0,0,0,.68.21c.59-.26.68.3,1.28.78,1,.81,1.79-1.83,2.65-1.22,1.43,1,2.08.66,4.26-.08,1.35-.45-1.24,2.54,4.17,7.13,3,2.57,3.51,1.76,5.86-2.94.86-1.72,2.55-4.52,4.08-5.46.63-.39,1.37-.59,2.91.5,3.61,2.56,2,3.21,1.53,4.32-.08.2.35.56.54.3,1.19-1.63.86-1.12,1.11-1.91C176.67,75.61,172.62,72.55,170.38,74.33Z" style="fill: #000001"></path>
    <path d="M168.88,61.58c-.08-.5-.24-1-.34-1.49a.59.59,0,0,0-.43-.51c-.39-.12-.44.1-1.78,1.69-1.19,1.41-.48,1.17-3.4.45a1.1,1.1,0,0,0-.77.55c-.2.29-.18.4.71,1.84.76,1.23,1,.93.64,1.46-1.89,2.83-2.74,3.76.74,2.49,2-.72,1.92-.83,2.21-.54,1.35,1.35,3.21,3.63,3.32,1.72a5.18,5.18,0,0,0-.34-2.2c-.14-.72,2.61-1.09,2.77-2.12a.34.34,0,0,0-.25-.43C168.15,63.14,169.33,64.46,168.88,61.58Zm.05,4.47c-1,.74-.06,1.36-.14,2.4-.78-.33-1.66-2-2.82-2-2.09.7-2.22,1-2.59,1,.12-.75,1.88-2.27.88-3.08-.39-.3-1.36-1.73-.87-1.62,1.94.45,1.93.54,2.3.28,1.95-1.34,2-3.4,2.36-.58.31,2.54-.32,1.5,2.49,2.52C171,65.16,169.56,65.59,168.93,66.05Z" style="fill: #000001"></path>
    <path d="M156.4,45.32c.08,4,2.59,6-1.61,5.46-6.44-.84-7.73-2.39-7.12,2.29.08.63.11.43-3,1.69-1.56.64-.85,1.43,0,1.1,2.84-1.16,4.09-1.33,4-2.57-.2-2.19-.48-2.58.35-2.44,5.61.9,6.56,1.11,7.57,1,3.94-.42-1.08-6.69,1.61-8,1.89-.94,2.52.56,11.59,4.17.5.2,1,.4,1.16-.07s-.3-.5-.55-.6c-9-3.69-8.08-3.87-10-4.5A2.81,2.81,0,0,0,156.4,45.32Z" style="fill: #000001"></path>
    <path d="M160.28,33.07c-.75,1.23-2.49,3.91-.88,3.51.6-.14,1.75-.36,2-.46,1.53-.52,1.58-.73,1.79-.51,2,2,3.43,4.19,3.33.53-.06-1.72-.44-2,.05-2.19.65-.28,1.94-1,2.3-1.09,1.23-.37,1.29-1.17.76-1.41s-2-.52-2.91-.91c-1.45-.65-.83.24-1.76-3.44a.53.53,0,0,0-1-.12c-.12.16-.54.76-1.82,2.64-.3.45-3.17-1.06-3.64-.5C157.32,30.49,160.67,32.43,160.28,33.07Zm1.2-2.54c1,.29.82.15,2.64-2.3.58-.79.21,2.78,1.56,2.9.46,0,1.12.56,2.19.8a.92.92,0,0,1,.24.13c-.05.07-.09.16-.16.19-2.52,1.3-2.69,1.14-2.54,2,.38,2.37.29,2,.23,2.41-2.67-2.42-1.61-2.11-2-2.18-.74-.11-2.12.72-3.45,1-.46,0-.28-.1.87-2C162.3,31.43,156.12,29,161.48,30.53Z" style="fill: #000001"></path>
    <path d="M136.64,35.36a2.82,2.82,0,0,0,2.75,3.14c1.46.13,2.05-1.12,2.6-1,1.23.24,2.21-1.12,2.25-2.09,0-.51.38-.85.58-1.34s-.06-.8.2-.88a2.71,2.71,0,0,0,1.17-2.38c0-.13.34-.59,0-1-.07-.09.27-.63.35-.71s9.6.68,11.27-7.71c2.44-12.26-17.25-17.22-20.92-5.44-2,6.34,3.2,9.7,2.89,10.35-.81,1.67-1.33,1-1.63,1.73-.8,1.85,0,1.62-.43,1.85-1.44.74-.64,1.65-1.14,2a1.88,1.88,0,0,0-.45,2.56C136.52,34.9,136.72,35,136.64,35.36Zm2.82,2.11c-1.16-.28-1.3-.3-2-1.72-.09-.18.13-.15.32-.07C140.54,36.82,141.31,37,139.46,37.47ZM139,23.67c-4.81-7.63,2-13.76,7.27-13.47,12.39-.07,15.06,16.23,2.18,17.7-1.68.2-2-.28-2.52.39-.94,1.33-.33,1.93-1.1,1.73a15.37,15.37,0,0,1-4.44-1.92c-1.27-.77,1-1,.34-2.43S140.08,25.33,139,23.67Zm.05,4.56c5.3,4,7.4,1.94,5.8,3.8-.3.35-1.46-.24-1.9-.4C140.85,30.84,137.28,29.7,139.09,28.23Zm-1.22,2.58c.16-.12.08-.46.31-.44.4,0-.13.42,2.52,1.48s2.88,1.18,3.4,1.23S144,34.23,143,34.21C141.38,33.65,136.54,31.87,137.87,30.81Zm-1,2c.44-.68.08.1,2.36,1.08,2.47,1.07,3.36,1.47,4,1.39.17,0,.16.12.09.21-.41.55-.88,1.36-1.65.87C139.68,35,135.82,34.44,136.89,32.77Z" style="fill: #000001"></path>
    <path d="M156.41,95.36c-.78-.5-.48-.56-.31-1.3.69-3,.66-2.79.62-3a.46.46,0,0,0-.75-.33c-1,.79-2.14,1.26-3.16,2-.47.32-2.05-1.28-2.41-1.14-.53.22-.92.48-.75,1.13.71,2.57.49,2.3.12,2.54-1.09.7-2,1-1.93,1.89,0,.72,2.18.67,3,.68s.65.36.93.82c1.25,2.06,2,3.25,2.62.91.54-1.94-.13-1.73,3.19-1.84C159,97.61,157.93,96.33,156.41,95.36Zm-.71,1.45c-1.17.15-1.66.18-1.79.89a8.87,8.87,0,0,1-.49,1.69.86.86,0,0,1-.14-.13c-2-2.94-.45-2.18-4.12-2.48-.73,0,1.28-.68,1.87-2,.22-.49-.81-2.32-.23-2,1.76.93,1.19.59,1.41.72.66.41,2.62-1.2,3.37-1.42.27,1.65-1.63,2.65.16,3.91C157,96.86,156.83,96.67,155.7,96.81Z" style="fill: #000001"></path>
    <path d="M145.26,108.89c-2.84-1.5-5.13-.38-8.63-2.36a5.2,5.2,0,0,0-3.45-.92c-.85.22-8.23-3-9.82-6.5a8.43,8.43,0,0,1-.52-2.85c-.07-.76,3.67,2.5,7.29.72a.52.52,0,0,0,.09-.94,6.79,6.79,0,0,1-3.16-2.71c-.12-.2-.26-.6.2-.29,4.07,2.77,9.41-.19,7.78-1a6.77,6.77,0,0,1-3.66-2.38c-.2-.25,0-.21.12-.14,3,1.34,7.22,1.15,9.6-1.14,1.24-1.2-2.74-1.71-3.61-6.39s2-7.75,2.5-15.74c.26-4.16-2.84-11.87-4.8-14.75-5.33-7.82-13-11.64-22.57-14.36a13.66,13.66,0,0,0-6.86.19c-.4.16-.31.82.17.75a15.46,15.46,0,0,1,10.23,1.26c3.9,1.84,11.61,3.58,17.46,11.81,12.84,18-3,27,4.93,35.22,1.67,1.73,1.91,1.45,1.12,1.92a8.67,8.67,0,0,1-9.17-.44c-.62-.4-1.26,0-.93.75,1.39,3.36,4.77,3.8,3.9,4.1-4.6,1.55-6.46-1.27-7.11-1.63-1.38-.74-1.63,2.26,2.17,5.15.79.6-5.85.09-5.79-2.08.55-18.28-1.21-10.26,4.1-11,4.41-.63,9.5-6.88,8.28-11.29-.82-2.93-3.53-2.59-4.21-3.08-6.59-4.73-10.09-6.19-12-9.19-2.26-3.54-10.69-4.76-13.66-.59-.11.16-.2.2-.35,0a3.14,3.14,0,0,0-4.57-.27c-.13.14-.19.14-.24-.06-.52-2.14-3.43-3.15-5.82-3.28-.37,0-.44.13.52-2.36.18-.46,1.22-.56,2.76.54,1.39.86.42-2.36-1.79-2.31-1,0,2.92-4.29,3.53-5,.32-.36.41.26,1.2.33.33,0,.54-.52.14-.83-5.13-4,.31-12.22,5.15-9.57,1,.57,1.49-.49.52-1-3.42-1.67-7.29.61-8.37,4.35-.14.46-.17-.07-2.5.47A6.07,6.07,0,0,0,91,44.2a2.67,2.67,0,0,1-.76,1.23c-2.3,2.48-1.2,5.64,1.42,6.43.19.06.94.15,1-.2.16-.58-.31-.59-.68-.7-3.5-1.05-1.45-5.76-1.06-4.09s2.65,3.77,3.14,2.91S90.5,47.88,92,44.13c1.18-3,5.65-4,5.64-2.83-.06,3.7,1.58,4,1.18,4.42-2,2.09-3,2.83-4.23,5.43a1,1,0,0,1-.47.52c-1.51.7-2.07,3-1.49,2.66,1.24-.83.84-.78.53.77-.15.73-1.15.06-3.67,1.42C85,59,87.18,64.89,91,67.5c1.45,1-2.86,2.39,1.42,12.66a.24.24,0,0,1-.16.36,12.49,12.49,0,0,1-5,1.1c-.6-.06-.58.6-.4,1.08,1.49,4,5.62,4.37,4.84,4.83-3.15,1.88-3.08,1.53-3.92,1.73a.59.59,0,0,0-.53.64c-.07.81.56,1.27,1.44,1.9,3.76,2.68,7.46,1,7.65,1.18a8.62,8.62,0,0,1-1.41,2.79c-1.38,1.75,2.55,2,5.82-.06a.37.37,0,0,1,.18,0,16.59,16.59,0,0,1-.48,2.15c-.48,1.59-1.69,1-2.15,2.65-.41,1.53-8.17,3.67-9.18,4.31-.33.2-.09.35-3.11-5.82-4.28-8.71-4-8.7-5.1-8.33-2.56.82-1.67,1.25-3.27-2C76.82,87,58.11,91.88,52.37,98.71c-1.21,1.5-.48,1.87-.07,1.5.23-.2,1.83-3.36,10.83-7.25a50,50,0,0,1,13.39-3.7c.52-.06.31-.21,1.34,2.07.26.58-24.74,8.29-25.36,9.08s-2,.54-1.58.22a.44.44,0,0,0,.13-.59c-2-4.63-4.28-5-4-6,0-.19-.88-2.26-.72-2.56s4.88,3.9,4.72,6.67c0,.7,1.12,1,.94-.28-.51-3.75-5.5-8.85-6.82-7.23-.23.27.74,2.24.76,2.83-.64-.19-4.15-3-5.26-1.61-.25.3-.13.34,1.43,3.22.39.73-.73-.09-1.84-.75-3.33-2-2-.07-.23,3.68,19.71,40.59,21.28,43,21.08,44.12a3.53,3.53,0,0,0,1.17,3.26,1.31,1.31,0,0,1,.33,1.23c-.11,2.47,1.66,2.07,1.64,3.45a3.81,3.81,0,0,0,1,2.53c1.52,1.11.87-1.06-.48,11.34-.38,3.47.7,6.3,1.29,8.45,1.25,4.48,6,6.94,9.3,7,.34,0,.48-.12,0,1.37-1.53,4.79.41,5.78-1.89,8.72a3.89,3.89,0,0,0-.68,2,.42.42,0,0,0,.82.06c.48-1.79,2-2.57,2.06-5.07,0-.44.06-3.2.16-3.62.89-3.85.7-3.45,1.21-3.53,3.25-.52,3.94-2.34,5.77-4.82,1.28-1.74,4-13.34,4.85-21.51,0-.32,0-.65.29-.87s1.73-9.15,1.7-10c0-.33-.58-.46-.7-.16-.33.79-.83,5.69-1.46,8.94-.07.4-.23.15-1.73-.91-2-1.42-2.29-1.08-4.78-1.79-4-1.17-3-.58-.77-2,3-1.94,2.8-3.75,2.46-4.18s-1.42-.18,0-.59c13.23-3.83,18.3-5.27,20.11-6,1.25-.48,1-.62.7-.94,0,0-1.9-3.86-14-28.49-.18-.38-.29-.24,2.11-1,.16,0,.21,0,.24.17a12.87,12.87,0,0,0,4,6.76c5.37,4.51,7.34,2.94,7.75,3.63,3.41,5.81,1.67-7.81,1,34.14h0c0,15.95,1.41,15,3.31,19.67.15.35,1,4,1.59,4.65,5.85,6.93,10.53,6.81,15.67,2.62,4.31-3.51,11.54-14.86,12.1-14.43s1.48.47,2.36,1.07c1.19.81,3.05,1.6,4.42,1.2,1.13-.33.83.45,6.7-16.8.31-.92-.27,7.5-2.23,15.17-2.7,10.54-7,16.56-6,20.58.4,1.56-.29,2.12,0,4.68,1,7.4.51,6.93,1.31,7s-.09-5.75-.16-6.09c-.61-3.11.18-4-.23-5.72-1.06-4.39,4.77-11.45,7.36-26.87,1.14-6.75.27-9.38,2.58-15.91,2.88-8.08,4.74-13.77,3.39-22.29C155.75,112,153.82,113.41,145.26,108.89Zm-93.66-7c3.12,0-1.73-6.9,15.37,27.43.3.61-.8.95-1.44,1.07-.38-.25.46,1.14-8.7-17.31C51,101.41,51,101.88,51.6,101.88Zm-9.88-9.29c1.33-.16,7,3.71,8.37,7.57a50.44,50.44,0,0,1-6.69-4C43.21,95.36,41.89,93.18,41.72,92.59Zm18.93,45.64c-.33-.48-21-42.82-21.14-43.17.16-.06-.38-.33,8.38,4.9,2.81,1.68,1.18-.45,5.93,9.19,11.14,22.6,10.93,21.56,10.45,21.73C58.28,132.94,61.26,136.87,60.65,138.23Zm.83,1.44a11.16,11.16,0,0,1,.14-1.52c.25-1.19-1.06-4,.34-4.89a29.77,29.77,0,0,1,5.74-2.7,3.65,3.65,0,0,1,.78-.46c1.36-.3.23,2.63-2.26,4-2,1.13-2.2,1.24-2.48,1.58s0,.77.26.68c1.64-.48,4.36-3.41-1.22,3C61.46,140.9,61.66,141,61.48,139.67Zm7.66-6c.17.42.11.35-1.45.66,0,0,0,0,0-.08.87-.53,1-1.13,1.17-1.09S69,133.37,69.14,133.71Zm8.24,8.94a18.1,18.1,0,0,1-3.46,1,4.87,4.87,0,0,0-2.6.91c-.7.66-1.22,1-.86,1.37.13.14.25.25.44.05,1.21-1.26,2.46-1.2,5-1.71.76-.15.6-.53,1.81-.65a34.33,34.33,0,0,0,3.67-.84c1,0,.23,2.12-5,4.14-2.54,1-3.72,1.27-4.61,2.6-.24.36-.44.9,0,1.1.73.33.29-1.2,2.9-2.15.45-.16.56-.2.72,1.8.34,4.34-1.26,6.24-1.39,8,0,.24.28.55.58.18s1.11-2.74,1.21-3c2.24-6.7-3-8.88,4-6.73,3.21,1,3.61.83,4.84,1.67,2.92,2,2.47.09,1.06,9.57a92,92,0,0,1-2.87,12.09c-.28.82.14-2.35,0-5.71-.14-4.56-4.84-12.18-5.34-12-1,.33,1,1.5,3.44,8.26,1.67,4.74.79,11.26-.38,13-1.52,2.24-2.84,3.19-6.67,2.61a8.79,8.79,0,0,1-7.22-6.57c-.54-2.22-1.42-4.78-1-7.47,2-14.4.8-7.73,3.3-4.29h.45c-.14-1.09-.24-1-1.58-5.4-.42-1.4-.43-1.6-.87-1.88-1.89-1.18-1.54-1.37-1.91-3.37-.23-1.21-1.72-.89-1.53-2.59a2.84,2.84,0,0,0-1.07-2.54c-.69-.65-.53-2.57.67-3.82,2.14-2.22,2.38-3.21,4.46-4.75.33-.25.41-.16,3.49-.88.67-.16.26-.32,1.67-.57,3.77-.68,4.72-2,4.68-1.16a3.67,3.67,0,0,1-2.43,3,13.37,13.37,0,0,1-2.56,1.15c-6,1.36-5.68,5.38-4.7,4.23,1.28-1.5,1.09-1.81,1.57-.93.36.66.18.36-1,1.42-1,.9-4.34,3.6-2.72,3.36.23,0,.36-.15,2.48-1.93,1.51-1.28,2.12-2.43,7-2.48,2.81,0,5-1.29,6.91-1.66C82.69,138.93,82.5,141.27,77.38,142.65Zm-6.9-2.22c-.13-.12-.07.07-.64-1.09-.13-.28.09-.36,1.49-.79.18-.06.34.27.75,1.18C72.17,139.94,72,140,70.48,140.43Zm31.62-5.76c-.8.25-18.75,5.57-18.78,5.58-.21.06-.38.08-.28-.12.43-.92,0-2.27-1.13-2-3.74.79-3.1,1.65-8.5,1.66-.41,0-.23.12-1-1.4-.08-.16,0-.26.14-.3a13.11,13.11,0,0,0,3.06-1.36c3.54-1.73,3.5-6.22.7-4.79a15.2,15.2,0,0,1-4.09,1.21,18.55,18.55,0,0,0-1.85.69c-.28.1-.72-1-.85-1.33s1.3-3.59-.75-3.54c-1.75.47.55,2.16-14.75-27.75-.4-.78-.81-.36,5.72-2.52,2.65-.87,18.39-6.08,21.35-7.15.28-.1,0-.52,3.46,6.55C102.56,135.29,102.84,134.44,102.1,134.67Zm22.23-68.33c0-.4-.2-.4,4.7,2.78.64.41-.85.24-2.37,2-.29.34-.3.32-.72.12C124.12,70.4,124.07,68.42,124.33,66.34ZM106.68,59c2-1.64,8.5-1.6,11,1.23,2.18,2.48-3.22,11.55-8.55,7.82C106.57,66.26,104.19,61,106.68,59ZM93.76,63.54c0-.5-.56-6.72.25-6.68A7.72,7.72,0,0,1,98.33,58c2.15,1.41-.29,11.15-5.53,9.22C92.24,67,93.72,65.69,93.76,63.54ZM91,57.35c.52-.16,1-.28,1.58-.42.18,0,.27,0,.25.2-.52,4.51.94,5.79-.79,9.25-.2.42-.24.44-.58.17C87.27,63.13,86.1,58.88,91,57.35Zm1.85,11a5.09,5.09,0,0,0,5-1.7c.57-.58,0,1.63,2.8,2.14.58.11.8-.6.45-.77-.85-.43-1.65-.63-2.11-2.06-.36-1.11,3.1-.22,3-2.82,0-.69-.67-.71-.82-.09-.27,1.07,0,.91-1.6,1.21-.14,0-.18,0-.13-.17.88-2.77.6-3.56,1.5-4.23a2.52,2.52,0,0,1,3.79,2.27c.13,3.27,3.3,8.06,7,7.92,5.24-.21,6.75-5.61,7.7-6.2.63-.4,1.29-.15,3.95,1.48.78.47-1.49,5.21,2.21,6.83.39.17-.46.69.49,1,.15,0,.69-.89,1.55-1.61,4.22-3.57,9.21-.67,5,6.07-.84,1.33-1.68,2.48-5.35,4-4.77,2-5.34-10.21-5.43,12,0,6.3.68,8.19,9.53,12.48.35.17-2.72,2.46-2.74,2.47-5.33,3.82-2.2,2-8.1,4.37-1,.38-5.13,2.09-5.2,1.46-.8-6.69-2.4-8.22-3.5-12.14-1-3.46-2.12-4.34-2.22-5.5-.14-1.7-4-5-4.47-5.6-.17-.2-.15-.28.1-.37,11.27-3.67,9.56-6.46,8.42-5.79-2.32,1.35-12.71,5.07-17.55-.48C90.75,78.54,90.63,67.71,92.83,68.39ZM96,96a13.38,13.38,0,0,0,1.48-4,.5.5,0,0,0-.8-.51c-3.47,2.34-9.59-1.33-8.14-1.44.87-.07,6.71-2.76,3.89-3.7-3.33-1.11-4.84-3.69-4.44-3.81a13.61,13.61,0,0,0,4.53-1.1c1.32-.63,0,2.5,6.15,6.29a1.7,1.7,0,0,0,0,2.27c1.72,2.1,3,3,2.91,3.2-.15.32,0,.76-.39,1C99.7,95.21,97.72,96.35,96,96Zm6.58,18.17c-4.53-.71-8.95-5.19-9.86-8.95-.17-.71-.29-.64.47-.9,2.23-.79,3.38-1.64,3.1-1.14-.56,1-.16,2.29-.23,2.75-.26,1.73.94,3.19,2.67,4.11.23.12.15.1,1.68.2,1-.24,1.13-.34,1.25,0a8.52,8.52,0,0,1,.51,1.55C102.57,114,103.09,114.29,102.57,114.21Zm29.27,53.11a36.78,36.78,0,0,1-2.92,3.48c-1.41,1.63-2.54,3.45-4.77,5.16-5.22,4-9.13,3-13.68-2.33a12.3,12.3,0,0,1-1.45-3.78c-.65-2.63-1.81-3.36-2.62-6.34-2.12-7.79.19-45.43.4-45.62.86-.79-.48-.4-2.41-2.92-1.57-2-.84-4.14-4-9.28a1,1,0,0,0-.68-.56c-.61-.1-.11.69.17,1.31.42.91-.44.33-.6.32-.41-.05-.69.42.71,1.24.17.1.63.11.75.27a2.59,2.59,0,0,1,.25.71c0,.14,0,.18-.13.19-1.1.13-1.58.36-2.49-.41-.52-.44-1.45-1.44-1.43-2.12.05-2-.29-3,1.43-4,.67-.37.79-1,.83-1.74.07-1.36,1.44-.62,2-2.39.8-2.52,4.46-.3,3.93-1.71-1.62-4.25-6.7-7-6-8.22.66-1.07,3.06.92,3.69,1.64,1.94,2.19,5.5,5.17,5.82,7.25.2,1.24,1.07,1.68,1.94,4.6,1.57,5.24,3.35,7.47,3.56,13.26.33,9,9.62,43.54,9.63,43.57.26.54.88.32.85-.25-.36-6.71-4.1-14.11-3.18-14.16a8.65,8.65,0,0,1,4.4.86c.92.69,6.6,5.74,7.1,6.21,2.07,1.9,4.38,2.56,5.87,4.84C139.88,157.93,140.16,155.59,131.84,167.32Zm-30-71.14c.46-2.36.41-2.27.69-2A6.87,6.87,0,0,1,103.75,96c.21.39-.43.25-.44.21C101.88,96.47,101.71,96.59,101.79,96.18Zm42.92,65.62a.72.72,0,0,1-.17.22,1.3,1.3,0,0,1-.15-.18c-2.72-4-4.09-5-4.73-6.14-.81-1.43-3.15-2.91-4.56-3.77-.93-.57-2.74-2.43-4.17-3.56-3.23-2.55-3.31-4.16-7.92-4.79-.7-.1-1.77.21-1.94.07s0-.38.81-1.94a24.22,24.22,0,0,1,2.43-4c4.14-5.84,3.3-5.54,4.71-7.95,2.48-4.28,3.13-3.76,7.1-8,5.44-5.82,5.71-5.95,6.07-6.87.16-.43-.22-.63-.42-.42-12.44,13.14-11.25,10.5-13.8,15.26-5.65,10.56-2.35,3.21-7.17,11.9-.51.91-6-24.18-5.47-25.86.15-.48.71.29,5-1.53,6.49-2.77,3.07-.52,8.5-4.52,2.75-2,4-4.23,6.79-2.56,3.6,2.16,4.9,1.27,8.28,2.27,1.79.53,1.61,1.12,9.12,4.15,2.2.89,2.51,2.83,2.77,4.74C157.14,128.35,156.24,129.57,144.71,161.8Z" style="fill: #000001"></path>
    <path d="M142.23,19.33c.18,0,.31,0,.25.31-.38,1.63,1.83,3,1.39,3.79a12.77,12.77,0,0,0-1.25,3.64c-.05.3.22.14.33.23.42.36.62-1.52,1.7-3.55.73-1.35-1.39-2.7-1.34-3.86.06-1.49.64-.64,2-.21.76.24,1.34,0,1.55.5a1.25,1.25,0,0,0,1.51.62c.92-.24.68.47,1.76.7s1.07.18,1.07.58c0,.14,0,.29-.17.33a6.57,6.57,0,0,0-1.46.71c-.57.27-.32-.19-1.27.43-1.43.93-1.19.34-1.79.81-1,.81-3.19,3.12-2.49,3.67s.78-.89,2.2-2.19,1.2-.67,1.68-1c1-.62,1.14-.71,1.29-.72.86-.07,1.52-.79,2.17-.85.88-.08.65-.85.84-.79s.19.25.26.42c.63,1.57,2.59-2.13,1.08-2.62s-1.91.57-2.15.51c-2.32-.52-.88-.22-2.22-.91-.62-.32-1.11.43-1.61-.28-.79-1.14-.22,0-3.93-1.48-.26-.1-.4-.46-.6-.7s-.51-.24-.88-.34C141.1,16.83,140.48,19,142.23,19.33Zm10.88,1.79c.31.09.08.82-.2.67C151.85,21.25,152.74,21,153.11,21.12Zm-11-3.26c.12,0,.33.35.44.52C142,18.83,141.74,18,142.1,17.86Z" style="fill: #000001"></path>
    <path d="M149.21,127.06c-3.32,1.7-7.75,4.79-18,5.42-.39,0-.78.18-.73.58s8.55.85,19-5.18C150.86,127.07,150.12,126.6,149.21,127.06Z" style="fill: #000001"></path>
    <path d="M132.77,129.79c5.35-1.67,12.23-7,11.79-7.58-.87-1.11-3.07,3.35-12.08,6.87C132.16,129.2,132.3,129.69,132.77,129.79Z" style="fill: #000001"></path>
    <path d="M129,61.73c.17.18,4.12,3.76,4.55,2.65.16-.42-.1-.54-1.48-1.5C124.88,58,121.83,48.12,118.41,46c-.23-.14-.42.41-.33.58a21.12,21.12,0,0,1,2.13,2.78C124.4,56.06,123.36,55.62,129,61.73Z" style="fill: #000001"></path>
    <path d="M129.51,112.45c-2.27,1.35-2.32,2-3.5,2.51-.78.34-7,2.77-6.47,3.68.29.47.24.09,7-2.92a23,23,0,0,0,2.74-2c3.42-2.47,3.9-2.43,3.73-3C132.71,109.81,130.85,111.66,129.51,112.45Z" style="fill: #000001"></path>
    <path d="M126.91,79.54c2.06,0,2.75-2.36,2.09-3.63a1,1,0,0,1-.06-.93c.42-1,2.51-2.89,2.71-.21,0,.32.52.42.74,0a1.67,1.67,0,0,0-1.82-2.38c-1.62.35-3.39,2.41-2.53,4.08.29.57,0,1.75-.6,1.89-1.19.26-1.27-.3-1.56.24S126.23,79.54,126.91,79.54Z" style="fill: #000001"></path>
    <path d="M120,34c.06-.68-.14-2.59,1.55-3.05,1.36-.38,2.11-.25,2.72-1.31.52-.9,0-1.18.49-2.11,1.64-3,.8-2.54,3-3.5,5.88-2.61,1-5.94.48-4.26-.27.81.25,1.27.6.49.18-.41,2.09,1.07-.16,2.3-2.08,1.13-3.09,1.12-3.65,2.55s-1.46,2.34-1.43,3.66c0,.94-.87.91-1.88,1.11a3.61,3.61,0,0,0-2.65,3.7C119.09,35.38,119.87,35.56,120,34Z" style="fill: #000001"></path>
    <path d="M107.4,42.07a4.58,4.58,0,0,0-3.46,1.46c-.59.63,0,1.2.6.69a3.85,3.85,0,0,1,3.51-1.1c7.48,1,8,10.23,15.65,19.35.91,1.07,1.62.68,1.27.05a55.93,55.93,0,0,1-3.91-5.47C114.75,45.73,114.14,43.07,107.4,42.07Z" style="fill: #000001"></path>
    <path d="M108,51.35c-.35.37-.61,1.17-.09,1,.72-.29,1.4-1.14,3.21-1.12,2.51,0,3.42,3.68,3.59,1.81C114.5,50.07,110.86,48.28,108,51.35Z" style="fill: #000001"></path>
    <path d="M109.73,63.12c.54,0,.57-.36.71-.91-.16-1.06-1-1-1.2-.39S109.14,63.09,109.73,63.12Z" style="fill: #000001"></path>
    <path d="M101.63,43.4c0,.67,0,1.89.69,1.78.91-.14-.59-1.84.8-4A2.27,2.27,0,0,1,104.67,40a.72.72,0,0,0,.44-.56C105.06,38.12,101.59,39.57,101.63,43.4Z" style="fill: #000001"></path>
    <path d="M95,6.36c.3.08.73-.35,1.21-.43.72-.12,2.63-.18,3,.55,1.19,2.29-2.84,5.15-3.33,8.31-.31,2,1.79,2.52,5,3.41,2.77.76-2.39,4.29-.81,6.42.26.34,1,1,1.6,1.63,1.51,1.58-.45,3.69.54,3.9s1.72-3.09,0-4.76c-1.91-1.92-2.11-1.25-.08-4.8.53-.93.82-2.56-.34-3.06s-1-.13-3.78-1.21c-4.24-1.63,3.82-6.47,1.91-10.24C99.48,5,98.55,5.12,97.28,5,94.72,4.94,94.63,6.26,95,6.36Z" style="fill: #000001"></path>
    <path d="M100.83,75.88c0-.36-.22-1.41-1.06-1.43-1,0-1.15,1.49-.43,2.22C99.77,77.12,100.59,77.22,100.83,75.88Z" style="fill: #000001"></path>
    <path d="M97.18,61.43c-.08-1-.87-1-1-.62C95.55,61.94,96.86,63,97.18,61.43Z" style="fill: #000001"></path>
    <path d="M80,96.24c-22.79,7.59-22,7-21.35,8.26,4.63,9.63,4.47,9.18,5.3,9.27,2.28-.66,20.88-6.83,21-6.89,1.28-.44.54-1.14-2.88-8.08C80.87,96.28,80.91,95.94,80,96.24Zm4.32,9.85L64,112.8c-.24,0,.09.57-4.43-8.37-.23-.45-1.44.16,12.83-4.62,2.48-.83,4.84-1.66,7.49-2.53.69-.22.14-.9,3,5C84.7,106.12,84.78,105.94,84.33,106.09Z" style="fill: #000001"></path>
    <path d="M78.84,105.36c-.13,0-13.08,4-14,4.44-.45.19-.86.79-.31.93.18,0,14.81-4.27,15.58-5.16C79.71,104.83,79.37,105.34,78.84,105.36Z" style="fill: #000001"></path>
    <path d="M66.77,104.49c1.65-.29,1.59-.82,2.56-.77,1.85-.25,2.55-1,4.23-1.42s2.16-.3,3.47-1c.32-.16.54-.72-.14-.86-.12,0-.89.23-2,.51-3.95,1-4.5,1.74-5.52,1.72-1.18,0-1.13.48-2.89.87-4,.89-3.35,1.27-4.42,1.32-.13,0-.34.31-.38.43-.09.36,1,.57,1.52.28A10.08,10.08,0,0,1,66.77,104.49Z" style="fill: #000001"></path>
    <path d="M70.15,54.59c1.46-1.94.6-1.66,5.41,0a.52.52,0,0,0,.67-.73,26.13,26.13,0,0,0-1.82-3.3c-.41-.52,1.7-2.77,1.74-4,.06-1.81-3.65,1.2-4.46.14-.65-.85-1.64-1.79-2.29-2.82-.29-.47-.85-.64-.94-.08-.77,5.11.47,3.85-2.38,4.95-1.59.62-1.64.61-1.73,1.12-.28,1.61,3.44,1.84,3.45,2.57.06,3.29-.07,3.09,0,3.78a.52.52,0,0,0,.86.31A14.6,14.6,0,0,0,70.15,54.59ZM67.9,51.24c-3.42-1.28-3.42-1,.34-2.36.82-.3.43-2.09,1-3.63,3.57,3.34.56,3.06,5.78,1.86-.77,2.06-2.37,2.65-1.45,3.72a14.09,14.09,0,0,1,1.33,2.29c.25.42-1,0-2.77-.66-1-.37-.77-1.12-3.13,2.18C68.08,55.93,69.41,51.8,67.9,51.24Z" style="fill: #000001"></path>
    <path d="M50.9,37.11c.48-.52.49-.52.93,0a5.35,5.35,0,0,1,1,1.81c.18.64-.5.3-.71.31-1,0-.59.75-.34.87,2.46,1.19,3.52-1.64,3.59-.71.11,1.26.1,2.63.16,4.28,0,.75.61,1.32,1.12.86s1.87-1.84,3.8-3.72c3.16-3.09,3.29-3,3.25-3.61-.46-6.7-1-5,1.2-7.39,2.66-2.87,8-8.71,9.73-12.21,2.67-5.29,3.73-10.86,1.24-11.14-3.33-.37-9.12,2.54-12,5.07a54,54,0,0,0-5.77,5.75c-6,6.59-4.3,5.52-7,5.88-5.43.7-3.53-.47-10.28,6.89-.83.91-.24,1.53.3,1.53A34.26,34.26,0,0,1,46,31.42a2.52,2.52,0,0,0-.66,2.24,4.57,4.57,0,0,0,1.21,2.09c.33.21.57-.16.44-.55-.06-.2-1.09-1.72-.79-2.09s1.06,0,3.27,1.68c.61.46-.56.9-1.55,2.36-.57.86.44,1.3.71,1.5s.52.24.79.05ZM46,43.84c-7,11-8.56,22.52-3.16,36.84.1.25.44,1.38.78,1.15,1.08-.71-4.63-9.71-2.75-22.95,1.73-12.18,9.77-19.21,10-20.27.12-.52-.07-.74-.69-.5A48.25,48.25,0,0,0,46,43.84Zm3.12-10.45c-1.95-1.47-2.72-.82-2.35-1.45.18-.31.36-.66.65-.53,1.39.12,1.87.65,3.55,1.79.29.2.06.42-.4.87C50.3,34.37,50.36,34.31,49.16,33.39ZM49,37.91c-.74-.51-1.07.53,7.84-9.85.44-.5,1-1,1.27-.33C58.14,27.76,49.05,37.89,49,37.91Zm5.35,1c-.88.75-.09,0-1.61-2-.7-.92-.79-.92-.66-1.07.81-.95.64-1.4,2.58,2.39C54.86,38.5,54.66,38.65,54.38,38.89Zm2.32,4.52c-.32.33-.17.32-.52-4.69,0-.47,4-3.6,5.29-5.14s1-1.28,1.43,3.32C63.08,37.33,63,37.17,56.7,43.41ZM66,11.3A21.07,21.07,0,0,1,72.7,8c3.79-1,3.37,0,3.55,1.49a14.1,14.1,0,0,1-.92,4.13c-2.41,5.88-2.2,5.35-2.86,4.17C69.41,12.34,65.18,11.81,66,11.3Zm-1.29,1c1.28-1.21,8.55,6.26,7.5,7.66-3.07,4.12-13.75,16.12-16.57,17.85a26.92,26.92,0,0,0-2-3.29c-.25-.37-.28-.12,3.25-4.05,2-2.28,2.57-2.54,1.87-3.4-.3-.37-1.1-.91-1.61-.39s-.79.87-3.3,3.75c-2.31,2.64-1.83,2.34-2.65,1.72-3.3-2.49-3.89-.53-1.78-3.22A179.5,179.5,0,0,1,64.68,12.28ZM46.62,25c.41-.48.41-.4,5.32-1,.77-.1-1.41,1.67-3,4.07-.36.52-1.72,2.34-2.25,2.41,0,0-5,.15-5,.12C41.48,30.42,44.15,27.87,46.62,25Z" style="fill: #000001"></path>
    <path d="M71.53,105.78c2-.58,2.13-.76,2.84-.77a.7.7,0,0,0,.73-.55c0-1.15-4,.68-5.89,1-1.72.29-5.63,1.43-6.2,2.05-.4.44-.18.69.36.72,2-.68,1.73-.77,2.45-1C70,106.09,67.12,107.05,71.53,105.78Z" style="fill: #000001"></path>
    <path d="M68,74c-.62.08-2.68.53-3,.62-.59.15-2.44-3.94-2.91-2.42-1.15,3.74.43,3.13-2.5,3.38-1.2.1-1.22.42-1.19,1,0,.39.14.47.86.91,3.25,2,1.83.55,1.56,4.25,0,.51.26.75.67.62.93-.31,2.4-3,3.08-2.65a29,29,0,0,0,3,.86c.57.16.81-.14.74-.58-.11-.7-.88-1-1.65-2.42-.17-.33-.13-.18,1.78-2.47C68.77,74.68,68.92,73.89,68,74ZM65.8,78c.93,1.64,1.31,1.49-.5,1.09-2.1-.47-1.15-.61-3.33,1.6-.26.27.05-.83.13-1.87.09-1.24-2.31-1.64-2.66-2.29.17,0-.13,0,1.41-.15,1.9-.16,1-1.23,1.83-2.93.68.58,1.38,2.32,2,2.19C69.75,74.46,64.7,76.06,65.8,78Z" style="fill: #000001"></path>
    <path d="M64.26,23.82c4.83-.25,4.49-7.32-.15-7.21C59,17.23,59.93,24,64.26,23.82Zm-.53-6.23a2.68,2.68,0,1,1-.09,5.26A2.68,2.68,0,0,1,63.73,17.59Z" style="fill: #000001"></path>
    <path d="M53.23,90.34c-.66.12-.79,1,.06,1,4.34-.07,4.56-7.93.38-7.87a3.83,3.83,0,0,0-1.34.19c-.06-.57,1-3.06-.12-5-1.24-2.14-4.83-2-6,.95a10.26,10.26,0,0,0,.44,7.87c.23.45.81.19.67-.41-3-8.53,2.87-10.73,4.19-7.65,1.1,2.57-1.28,5.41-.25,6,.73.41,1.1-1.2,2.51-1,1.83.32,2.16,2.31,1.86,3.64C55.12,90.25,53.74,90.24,53.23,90.34Z" style="fill: #000001"></path>
    <path d="M42.88,82.74c-5.59-9.18-7-25.23-.09-38.31a69.33,69.33,0,0,1,5.33-8c.93-.91,0-1.39-.51-.81-5.79,6.85-10.33,16.77-10.33,25.71,0,13.1,3.28,19.48,4.92,21.44C43,83.69,43.41,83.61,42.88,82.74Z" style="fill: #000001"></path>
    <path d="M38.24,90.64c-5,1.57-4.43-4.23.52-2.22a.49.49,0,0,0,.71-.24c.27-.61-.26-.76-.77-.93-2.73-.91.31-6.12,4.09.24.31.52.84.16.72-.24-.8-2.85-4-5-6-3.25A2.36,2.36,0,0,0,37,87c-2.36.06-3,1-3.27,2.23-.54,2.9,4.13,3.24,5.32,2.1C39.51,90.87,39.13,90.36,38.24,90.64Z" style="fill: #000001"></path>
    <path d="M31.45,72.87c-.15-.3-.25-.88-.94-.46-2.81,1.71-2.24,1.44-3,.63-1.14-1.19-1.43-1.65-2-1.51-.25.07-.19.58-.13.85.69,3.2.91,2.35-.39,2.83-.3.12-.56.26-1.78.77a.66.66,0,0,0,0,1.2c3.72,1.39,2.88,1.13,3.13,2.7.29,1.8.34,2.25.72,2.29a.71.71,0,0,0,.75-.43c1.56-3.79.54-2.79,2-2.53,2.51.45,2.64.7,3,.26s-.37-1.09-.73-1.5C29.72,75.25,30.42,77.05,31.45,72.87Zm-.74,5.47a3.65,3.65,0,0,1-1.52-.46c-1.26-.41-1.26,2.11-1.76,2.54a8,8,0,0,1-.2-1.61c0-1.1-.6-1.18-2.42-2.18-.4-.23.51-.32,1.54-.84s.21-1.52.19-2.22c0-.42.7.59,1.14,1.14.68.85.76-.5,2.67-1.07-.32,1.65-1.43,2.08-.36,3.22C31.55,78.53,31.13,78.38,30.71,78.34Z" style="fill: #000001"></path>
  </g></g></g></svg>