<svg xmlns="http://www.w3.org/2000/svg" viewBox="0 0 250 250">
  
<g transform="matrix(0.625,0,0,0.625,0,0)"><g transform="matrix(2,0,0,2,0,0)"><g>
    <g>
      <path d="M8.55,44a6.14,6.14,0,0,1,.4.73c2.61,5.62,5,11.31,7.76,16.8.64,1.2,1,3.77,2.28,4.08,2.14-.74,4.21-1.81,6.55-1.81.34,0,.34-.33.41-.53a14,14,0,0,0,.2-2.81,22.21,22.21,0,0,0-.27-7,1.48,1.48,0,0,1-.2-1.07s-.14-1.18-.14-1.88a4.45,4.45,0,0,0-1.27-1.94c-.2-.2-.47-.4-.2-.73s.6-.2.87-.07a3.88,3.88,0,0,1,1.67,1.94c.14.07.21.07.34.14.55.36.77.85,1.54,1.47,1.94.6,4,.93,5.95,1.54s3.35,2,5,2.94c.2.13.47.4.33.67s-.53.13-.73.07c-2.83-1.31-2.84-2.35-3.35-1.21a22.75,22.75,0,0,1-3.34,7c-1.49,1.67-4.18,3.54-3.75,7.09.34,2.81,0,5.55-2.21,7.69-.26.27-.13.4,0,.67,1.41,2.41,3,4.62,4.55,7a18.5,18.5,0,0,0,5.49,3.28c1,.26,1.94.53,2.94.8.2-.07.2-.34.07-.74-.47-1.6-1-3.28-1.34-4.88s-.94-3.55-.4-5.35a9.88,9.88,0,0,1,.94-2.34,6.47,6.47,0,0,1,2-4,21.86,21.86,0,0,1,11.58-5.89v-.13c-.07-.81.33-1.47.13-2.28-.13-.53-.07-1.13.6-1.27s1,.34,1.21.87a10.53,10.53,0,0,1,.47,1.94.89.89,0,0,0,.26.67,36.32,36.32,0,0,1,9.24,1.07c.38,0,.5-.24.48-.72a12.66,12.66,0,0,1-.2-2.36.87.87,0,0,1,.72-.87c.74-.13,1.14.34,1.27,1A16.23,16.23,0,0,1,67,66.81a2,2,0,0,0,.13.74c.6.2,1.14.47,1.74.67a.82.82,0,0,0,.67.06,4.62,4.62,0,0,1,.33-.6c.07-.07.07-.13.14-.2,1.29-2.9,1.08-6.2.73-9.37,0-.4-.13-.93.47-1s.67.4.74.8a21.34,21.34,0,0,1,.4,5.42c-.24,3.52-.87,3-.27,4.22a5.29,5.29,0,0,1,1.14,3.14c1.23.62,2.74.14,4.81.4,1,.2,1-.2.81-.93-.07-.13-.42-2.2.8-2.35s1.07.94,1.14,1.68c.2,1.07.13,2.14,1.27,2.94a1.13,1.13,0,0,1,.47.67,1.3,1.3,0,0,1,.67,1.14C83,75.32,81.59,75.71,80.54,76c.45.3,1.8.55,1.8,2.07-.09,1.23-1.69,2.43-3.81,2.07a10.31,10.31,0,0,0-2.74-.06c-.74.06-1.48.2-2.21.33.87.67,1.47,1.27,2.67.87a3,3,0,0,1,2.88.8A2.11,2.11,0,0,1,80.2,83.6a5.06,5.06,0,0,1,0,3.15c-.07.33-.13.67-.2.93,0,.45-.26,1.49.4,2.15a13.64,13.64,0,0,0,5.76,4.34,2,2,0,0,0,.87.14c.13-.27-.14-.54-.14-.81,0-.51-.39-2.86,0-4.14.14-.47.4-.87.94-.87s.8.33.93.87c.42,1.24,0,2.45.47,3.34.94-1.27,1.81-2.61,2.68-3.88a.07.07,0,0,1,.07-.07,1.51,1.51,0,0,0-.34-1,55.77,55.77,0,0,1-3.54-7.42c-.07.46,0,.6-.07.8-.2.6-.07,1.47-1,1.54s-1.07-.74-1.28-1.41c-.4-1.27-.2-2.67-.46-4a1,1,0,0,1,.53-1.07.48.48,0,0,0,.27-.13c-.07-.2-.2-.47-.27-.67a11.35,11.35,0,0,1-.94-5.35,5.19,5.19,0,0,0-1.33-4.35c-1.54-1.6-1.41-3.68-1.68-5.62-.46-3.34-.66-6.76-1-10.17a4.52,4.52,0,0,0-1.27-2.74,15.31,15.31,0,0,1,.2,1.87c0,1-.4,1.54-1.2,1.54s-1.14-.6-1.28-1.4a18.5,18.5,0,0,1-.13-1.88c-1.48,1.32-3.31,1.93-6.82,3.55a1.17,1.17,0,0,0-.34.47c-.26.87.27,1.94.47,2.94a1.51,1.51,0,0,1-1.14,1.87c-.87.14-1.53-.4-1.67-1.47s.09-2.19-.07-2.67a29.79,29.79,0,0,1-4.14,1.33,5.38,5.38,0,0,1-3.42-.13,8.94,8.94,0,0,1,1,3.88c.07,1.14-.4,1.74-1.21,1.74s-1.33-.67-1.4-1.67a16.51,16.51,0,0,0-.27-2.61,7.43,7.43,0,0,0-1.94-4.22c-5.82-4.43-4.31-2.52-8.83-7.69-.19-.19-.29-.45-.6-.6.27,1.2.47,2.14.6,3.14a1.44,1.44,0,0,1-1.07,1.74A1.23,1.23,0,0,1,45,45.8a17.79,17.79,0,0,1-.34-3.88.77.77,0,0,1,.67-.87c.4-.06.54-.2.54-.33-.21-.2-.41-.47-.61-.67a6.64,6.64,0,0,1-2.47-2,3.48,3.48,0,0,0-1.07-.26,2,2,0,0,1-1.74-.94,4.26,4.26,0,0,1-1.07-1.54c-.62,0-.61.07-.94.07.45,2.58.4,2.24.4,2.27.3,2.12-2.54,2.82-2.54.27,0-.1-.15-2.44-.13-2.21-2.35.34-4.62.4-6.83-1.13a1.81,1.81,0,0,0-2.27-.14,11.07,11.07,0,0,1-5.09,2.08c.14.8.34,1.53.47,2.34s-.27,1.67-1,1.74c-.94.13-1.41-.34-1.54-1.41a12.61,12.61,0,0,1-.2-2.21C15,37.92,8.55,41.11,8.55,44ZM35.18,81.19c0,.81-.34,1.41-1.21,1.48a1.34,1.34,0,0,1-1.4-1.21,16.57,16.57,0,0,1-.2-4.88,1.09,1.09,0,0,1,.87-1.14c.6-.13,1,.27,1.27.8a13.2,13.2,0,0,1,.67,4ZM34.78,69c-1.7.14-1.68-1.9-1.68-3.55a9.09,9.09,0,0,1,.41-2.81c.13-.46.4-.8.87-.8a.87.87,0,0,1,.86.8,43.88,43.88,0,0,1,.61,5.15C36,68.48,35.65,69,34.78,69Zm49,19.8a1.08,1.08,0,0,1-.94,1A1.11,1.11,0,0,1,81.67,89a24.61,24.61,0,0,1-.73-5.82c0-.67.27-1.27.93-1.34s1.07.41,1.28,1A20.34,20.34,0,0,1,83.75,88.82Zm-9-30c.07-.6.2-1.34,1-1.4s1,.6,1.2,1.2a14.75,14.75,0,0,1,.4,4.55A1.33,1.33,0,0,1,76,64.6c-.81,0-1.19-.46-1.21-1.47C74.78,63,74.71,59.26,74.78,58.85ZM49.23,51.49c.06-.53.26-1.2.93-1.27s1,.4,1.21,1a24.77,24.77,0,0,1,.8,4.29c.07.93-.53,1.8-1.2,1.73-.87,0-1.34-.6-1.54-1.47A20.3,20.3,0,0,1,49.23,51.49Zm-7.3,7.56c.07-.53.21-1.27.94-1.2s1,.67,1.14,1.33c.66,4,.6,3.89.47,4.42a1.36,1.36,0,0,1-1.27,1.07,1.21,1.21,0,0,1-1.28-1.14c-.06-.73-.06-1.54-.13-2.27A12.61,12.61,0,0,1,41.93,59.05Zm-4-12.58c.06-.46.27-1.13.94-1.07s1,.54,1.13,1.21c.27,1.4.54,2.74.74,4.15-.07.66-.33,1.27-1.07,1.4a1.42,1.42,0,0,1-1.61-.94A12.49,12.49,0,0,1,37.92,46.47Zm-9.23-3.88c.2-.4.47-.87,1-.8C31,42,30.51,44.4,31.16,47a1.25,1.25,0,0,1-1,1.6,1.41,1.41,0,0,1-1.74-1.13A9.53,9.53,0,0,1,28.69,42.59ZM17.58,53.3c0-1.11-.15-2.34,1.07-2.54.47-.07.61.4.74.66a14.5,14.5,0,0,1,.67,3.68,1.2,1.2,0,0,1-2.34.41A5.73,5.73,0,0,1,17.58,53.3ZM12.1,42.06c.42-.8,1.07-.94,1.47-.14a7.72,7.72,0,0,1,.67,3.88,1.07,1.07,0,0,1-1.07,1.14c-1.53,0-1.25-2.2-1.34-2.81C12,43.33,11.78,42.67,12.1,42.06Z" style="fill: #fef0bb"></path>
      <path d="M181.35,120.53a200.39,200.39,0,0,1-23,10.1c-2.88,1.07-5.69,2.41-8.83,2.41-.53,0-.53.34-.53.74a15.31,15.31,0,0,0,.26,3c-.13.73-.2,1.54-.33,2.34a13.83,13.83,0,0,1,1.67-.87c.2-.07.4-.33.6,0a.53.53,0,0,1-.13.67,2.33,2.33,0,0,1-.6.53c-1.61,1.34-3.21,2.68-4.89,4-.4.33-.53.53-.33,1.07a21,21,0,0,0,3.21,5.62,18.9,18.9,0,0,1,4.82-4.08,63.21,63.21,0,0,1,12.77-6c.47-.2.81-.33.81-.93.06-1.14.2-2.34.33-3.48s.07-2.54,1.74-2.95c3.15-.78,11.94-5.05,16-6.62H185C183.72,124.49,183.87,123.74,181.35,120.53Z" style="fill: #fef0bb"></path>
      <path d="M146.37,131.3c-.48-5.53-1.83-11.65-6.16-15.12a22.78,22.78,0,0,0-4.82-2.74,5.86,5.86,0,0,0-.93,1.81c-1.11,3.89-.42,9.71-.87,10.17,4.78,6,5.68,12.19,5.68,19.87,0,.26-.13.6.21.73h.06a3.52,3.52,0,0,0,.6-.47,2.84,2.84,0,0,1,1.07-.73c1.94-1.34,3.88-2.68,5.76-4.15C146.6,139.57,146.94,137,146.37,131.3Z" style="fill: #fef0bb"></path>
      <path d="M99.13,161.21c1.27-.6,2.55-1.27,3-2.81,2.31-6.9,2.41-13.67,5.22-20.07a7.47,7.47,0,0,1,2.48-3.41,18.77,18.77,0,0,0,5-4.95,1.7,1.7,0,0,1,1.53-.81,6.2,6.2,0,0,0,1.61,0,6.62,6.62,0,0,0,3.55-1.07c-.14-.27-.34-.27-.54-.33a18.88,18.88,0,0,0-3.81-.34c-.4,0-.87,0-.87-.53s.4-.54.8-.6c1.8-.21,3.08,0,4.55-.81a19.24,19.24,0,0,0-4.88.27c-.41.07-.87,0-.87-.54s.33-.6.73-.66c2.12-.27,3.9-.34,5.42-1.61-.47,0-.67-.07-.94-.07a29.34,29.34,0,0,0-6.35,1.21c-.54.13-1.27.73-1.54-.07s.67-.73,1.2-.94a13.32,13.32,0,0,0,4-2.14v-.13c0-.07-.07-.13-.07-.2a13.71,13.71,0,0,0-1.67.33,14.85,14.85,0,0,1-1.87.74,20.38,20.38,0,0,0-9.63,7.09c-.27.4-.81.87,0,1.34,1,.61-2,2.28-7.3,12.51-.67,1.34-.93,2.34.4,3.28.14.06.21.26.34.4.27.47.87.94.2,1.47s-.8-.33-1.14-.6c-9.59-9.37-8.76-8.77-9.16-8.83-.14.26-.2.47-.34.73-1.54,3.75-3.07,7.56-4.88,11.24-.47.94-.27,1.34.47,1.88,4,2.87,8.16,5.55,12.44,8.09a6.54,6.54,0,0,0,2.41.94h.13C98.73,161.34,98.93,161.27,99.13,161.21Z" style="fill: #fef0bb"></path>
      <path d="M128.1,31.56c.07.06.2.2.14.33s-.27.2-.41.2a2.87,2.87,0,0,1-1.4-.53A8.85,8.85,0,0,1,123.35,28a20.33,20.33,0,0,0-1,2.07c-.14.27-.27.61-.6.61a.79.79,0,0,1-.67-.54,20.38,20.38,0,0,1-1-2.81,3.2,3.2,0,0,0-.46-1.34,6.29,6.29,0,0,0-1.68,3.15c-.24,1-.17,1.42-.87,1.54a.92.92,0,0,1-.73-.47c-.2-.47-.47-.94-.81-1.61a6.94,6.94,0,0,0-.13,3.28c.07.6.67,1.54-.27,1.87s-1.07-.67-1.47-1.13c-.6-.67-1.07-1.41-1.74-2.28-.13.47-.2.67-.27.94-.26,3.07,2.15,6.69,5.09,7.82a4.81,4.81,0,0,0,2.61,0c.77-.38,1.06-.84,1.67-.6.6-.26,1.07.07,1.54.47.13.13.33.27.47.4a20,20,0,0,0,3.94,1c2.94,0,5.21.18,8-.74,1.49-.62,2.56-1.59,3.94-2.21.4-.2.87-.4,1.14.07s-.13.8-.47,1,.34.14.8.27.34.54.34.87c-.13,2.74-.47,5.49-.4,8.23v.4c.2-.13.47-.33.67-.47a4.26,4.26,0,0,1,1.94-.53c2.82-.63,3.31,4.07,2.47,6.82-.6,2-1.47,2.74-4.15,3.61.74.81,1.48,1.54,2.21,2.28.2.2.34.2.54-.07.73-1.17,1.25-1,3.28-3a39.3,39.3,0,0,0,3.47-8.56,20.15,20.15,0,0,0-.2-9A4.52,4.52,0,0,0,147,35.9a1.93,1.93,0,0,1-1.27-.87c-1.67-3.54-4.81-4.81-8.43-5.28a35.09,35.09,0,0,0-9.5-.34,7.16,7.16,0,0,1-1.2.2,1.88,1.88,0,0,1-.8-.06C126.56,30.22,127.3,31,128.1,31.56Z" style="fill: #fef0bb"></path>
      <path d="M61.47,116.32c.47-.2.67-.27.33-.67a19.11,19.11,0,0,1-3.61-3.48c-.2-.2-.47-.47-.2-.8s.6-.07.87.13a6.47,6.47,0,0,1,.94.87c.6.67.93.54,1.2-.27a3.88,3.88,0,0,1,3.55-2.74,9.88,9.88,0,0,0,3.27-.8c2.48-1,4.82-2,6-4.15,0-.07-.07-.07-.14-.13a6.08,6.08,0,0,1-1.8-3.42c-.61-2.27.06-2.94,2-2.34.54.14.87.07.87-.67,0-2.88-.4-3-.4-6.15,0-.39-.07-.51-.07-.8-.06-.61-.33-.87-.93-.74-1.88.33-3.75.6-5.62.87a9.09,9.09,0,0,0-1.34.13c.27,2.48-1.78,6.3-2.88,8.57a3.26,3.26,0,0,1-.6.87c-.4.53-.67.53-1.54.06a4.41,4.41,0,0,0,.14,1.61c.13,1.27-.07,1.54-1.34,1.47-2.28-.14-5.65-.89-9.57-.13a19.51,19.51,0,0,0,4.42.93c.33.07,1-.2,1,.27s-.67.54-1,.67a.83.83,0,0,1-.4.07,13.27,13.27,0,0,1-6-1.21c-.13-.06-.33-.13-.4-.27-.13-.33-.26-.6-.67-.53s-.4.47-.46.74c-.34,1.73-.67,3.47-1.07,5.21-.07.41-.21.94-.81.87-1-.12-.11-1.57-.93-1.4a27.48,27.48,0,0,1-4.08.2c.33.53.6,1.07,1,1.6.87,1.08,1.81,2.15,2.74,3.15a17,17,0,0,0,6.49,3.61C54.84,118.07,56.88,118.15,61.47,116.32ZM72.11,91.7a1.63,1.63,0,0,1,1.6,1.8A1.78,1.78,0,0,1,72,95.31a1.71,1.71,0,0,1-1.67-1.74A1.85,1.85,0,0,1,72.11,91.7Z" style="fill: #fef0bb"></path>
      <path d="M74.85,101.2c.13-1.47.07-1.54-1.41-1.61-.4,0-.46.07-.4.47a8.45,8.45,0,0,0,1.41,3.41.06.06,0,0,1,.06-.06A9.69,9.69,0,0,0,74.85,101.2Z" style="fill: #fef0bb"></path>
      <path d="M72.44,85.48c-.73-.07-.53.53-.53.93a3,3,0,0,1-.2,1.14,2.41,2.41,0,0,1-1.08,1.74c1.14-.13,2.08-.27,3-.4a.5.5,0,0,0,.33-.14,1.08,1.08,0,0,0,.13-.6l-.4-2v-.07c-.23-.47-.21-.45-.87-.67A.81.81,0,0,1,72.44,85.48Z" style="fill: #fef0bb"></path>
      <path d="M67,88.75c-.2-.13-.53-.46-.6,0s-.33.87-.13,1.34c1.27-.2,2.47-.4,3.61-.6-.2-.07-.4-.07-.6-.13A3.53,3.53,0,0,1,67,88.75Z" style="fill: #fef0bb"></path>
      <path d="M147.24,120.47c-.54.06-.74.4-.54.93a34.36,34.36,0,0,1,1.94,9.37c0,.4.2.53.67.47a27.45,27.45,0,0,0,4.28-1.41c22.46-9.21,25.84-11.24,26.16-11.24a56.14,56.14,0,0,0-7.63-6.82C169.59,112.19,155.1,119.11,147.24,120.47Z" style="fill: #fef0bb"></path>
      <path d="M156.53,177.73a25.48,25.48,0,0,0,12.31,6.83,48.83,48.83,0,0,0,9.37.46c.85,0,.63.11.2.54,1.2-.13,2.48-.47,3.81-.74a1.42,1.42,0,0,0,1.21-1.27c.53-2.54.47-5.08.8-7.62.07-.67-.2-.81-.8-.61a25.16,25.16,0,0,1-9.77,1.14c-7.27-.56-13.69-2.26-19.47-7.36a35.83,35.83,0,0,0,.47,5.29A5.83,5.83,0,0,0,156.53,177.73Z" style="fill: #fef0bb"></path>
      <path d="M144.49,117c1.28,1.86,1.34,1.87,3.48,1.07,38.79-14.78,10.64-4.08,21.34-8.1a25.31,25.31,0,0,0-2.27-1.14c.31,1-1.41,2.2-1.41,1.14-1.27-5.1,1.17-6-1.27-6.35-9.92-.93-14.48,3.73-19.93,6.15a4.15,4.15,0,0,0-.94,1.21c.33.33.53,0,.8,0s.4-.07.47.2a.44.44,0,0,1-.2.53,4.34,4.34,0,0,1-2.07.6,22.27,22.27,0,0,0-4.42-.13A12.48,12.48,0,0,1,144.49,117Z" style="fill: #fef0bb"></path>
      <path d="M137.13,147.09c-.06-1.14-.2-2-.26-2.94-.44-6.05-.88-11.24-4.55-16.46-1.62,1.62-4.37.69-7.7,9.83a103,103,0,0,0,6.56,12.65c.27.4.47.53.94.33a10.1,10.1,0,0,0,1.53-.67c1.08-.6,2.15-1.27,3.22-2A.71.71,0,0,0,137.13,147.09Z" style="fill: #fef0bb"></path>
      <path d="M153.52,154.85a20.67,20.67,0,0,0,6.69,2.48,20.13,20.13,0,0,0,3.88-.4c.61-.14.74-.34.74-.87.44-5.92.67-6.09,1.61-13,.13-1.07.06-1.07-1-.74a61.76,61.76,0,0,0-8.9,4.28,42.23,42.23,0,0,0-6.95,4.82A20.92,20.92,0,0,0,153.52,154.85Z" style="fill: #fef0bb"></path>
      <path d="M71.37,119.06c-.34.4-.07.47.2.67,1.07.53,2.21,1.07,3.28,1.74a7.36,7.36,0,0,0,5.42,1.2,25.21,25.21,0,0,0,4.15-.67c-2.72-.5-3.32-.23-3.42-.93-.06-.47.27-.67.61-.81,1.07-.46,3-.75,4.81-2.2a40.23,40.23,0,0,0-4.61,1c-.4.07-1,.33-1.27-.27s.26-.8.67-1.07A22.75,22.75,0,0,0,85,115a4.4,4.4,0,0,0-1.47.2,20.39,20.39,0,0,0-5.15,2.41c-.4.2-.8.53-1.14.07s.13-.81.47-1.07a34.54,34.54,0,0,0,2.74-2.68,1.3,1.3,0,0,0-1.13.33c-1,.61-2,1.27-3.08,1.88-.34.2-.67.6-1.21.33s-.26-.73-.2-1.34C73.58,116.52,72.48,117.77,71.37,119.06Z" style="fill: #fef0bb"></path>
      <path d="M155.06,166.89a31.59,31.59,0,0,0,7.43,4.29c.53.2.87.33.94-.47.33-3.28.2-6.69.73-9.84.13-.8,0-1-.8-.93-4.92.77-7.7-.18-8.23,0a40,40,0,0,0-.94,6.28A4.38,4.38,0,0,0,155.06,166.89Z" style="fill: #fef0bb"></path>
      <path d="M91.71,43.2c-.87.27-1.07,1.2-.27,1.67,1.67,1.07,2.94,2.27,1.94,4.15,0,1.47.67,1.94,1.67,1.33,1.81-1,3.42-1.33,4.89.54.4.47,1,1.4,1.87.87s.6-1.41.47-2.07c-.34-2.21.27-3.88,2.34-4.89.07,0,.13-.07.2-.13a1.08,1.08,0,0,0,.47-1.07c-.07-.47-.4-.67-.87-.74-.74-.13-1.54-.27-2.27-.33a1.67,1.67,0,0,1-1.68-1.27c-.33-.94-.73-1.81-1.13-2.68-.21-.4-.34-.87-.94-.87s-.87.47-1.07.94c-.4.93-.87,1.87-1.21,2.87a1.13,1.13,0,0,1-.87.67A28.11,28.11,0,0,0,91.71,43.2Zm6.55-2.35c0-.06.14-.13.27-.2A20.78,20.78,0,0,0,99.8,43.4c.54.93,1.74.6,3,1.13-2.61.87-1.94,2.81-2.08,4.69a7.73,7.73,0,0,1-1.33-1.07,1.6,1.6,0,0,0-2.21-.4,1.91,1.91,0,0,1-.67.26c-.34.14-.74.6-1.07.27s-.07-.74,0-1.14a1.85,1.85,0,0,0-1.07-2.2.63.63,0,0,1-.34-.47c0-.2.27-.27.47-.34A4.85,4.85,0,0,0,98.26,40.85Z" style="fill: #fef0bb"></path>
      <path d="M85,33.63c-.94.53-1.87,1.07-2.74,1.67s-.81,1.27.13,1.74,1.81.87,2.74,1.27a1.16,1.16,0,0,1,.8,1.21,13.62,13.62,0,0,0,.27,2.34c.07.4.07.87.67,1s.87-.2,1.14-.6c.47-.74,1-1.47,1.4-2.14a1,1,0,0,1,1.21-.54c1.14.27,2.34.4,3.68.67.73,0,1.13-.73.67-1.54s-.94-1.67-1.41-2.54a1.22,1.22,0,0,1,.07-1.54,20.2,20.2,0,0,0,1.8-2.47c.41-.67.14-1.21-.66-1.27H94c-1.13.2-2.27.4-3.41.67a1.25,1.25,0,0,1-1.34-.41c-.8-.73-1.67-1.4-2.47-2.14-.27-.26-.6-.47-1-.2a1,1,0,0,0-.4,1c.14.66.07,1.4.27,2.07A1.25,1.25,0,0,1,85,33.63Zm2.14-2.14a.69.69,0,0,1,.73.4c1.28,1.67,3,1.34,4.69.94a2,2,0,0,0,.53-.14A4,4,0,0,1,92,34.3a1.46,1.46,0,0,0-.06,2c.33.6.66,1.2,1,1.87A2.72,2.72,0,0,1,91,38a2.17,2.17,0,0,0-2.88,1.2,1.15,1.15,0,0,1-.33.47h-.27C88.1,37,86,36.71,84,35.9,86.29,35.17,87.43,33.76,87.16,31.49Z" style="fill: #fef0bb"></path>
      <path d="M172.59,173.52c.87.06,1.67.2,2.54.2a33.71,33.71,0,0,0,8.57-1.14.87.87,0,0,0,.8-.87c.13-1.14.33-2.21.53-3.34.07-.27.14-.54-.06-.74a1.65,1.65,0,0,1-.81.53,93,93,0,0,1-9.29,3.89c-.81.4-1.61.73-2.41,1.13C172.52,173.38,172.59,173.45,172.59,173.52Z" style="fill: #fef0bb"></path>
      <path d="M129,151.44c.47-.07.73-.27.33-.8-2.12-2.71-4-7.14-5.55-10.51a8.33,8.33,0,0,0-.33,4.08,16.42,16.42,0,0,0,2,5.83,4.14,4.14,0,0,0,1.61,1.6A9.06,9.06,0,0,0,129,151.44Z" style="fill: #fef0bb"></path>
    </g>
    <g>
      <path d="M94,28.41c.27,1.2.6,1.41,1.81,1.14,3.68-.8,15.92-3.41,18.33-3.95.74-.13,1.4-.4,1.2-1.34-.87-5-1.67-9.9-2.54-14.85a1.13,1.13,0,0,0-1.07-1c-.13.06-.27.06-.4.13C109,9,96.46,11.75,92.51,12.62c-.73.14-1.4.47-1.2,1.41C92,18.84,92.92,23.66,94,28.41Zm18.07-13.78,1.4,8.56c.13.74-.27.94-.87,1.07-5.42,1.14-10.77,2.34-16.19,3.55-.8.2-1.07-.07-1.2-.8-.54-2.61-1-5.22-1.54-7.83-.2-.8,0-1,.87-1.21,4.68-.93,15.92-3.41,16.86-3.61C111.71,14.29,112,14.23,112.05,14.63Zm-17.53-1c4.76-1,15.68-3.16,16.25-3.28s.61.13.67.53V11c.34,1.74.34,1.74-1.4,2.14-5.35,1.2-10.77,2.48-16.12,3.75-.61.13-.74-.07-.94-.54C92.38,14.09,92.38,14.05,94.52,13.63Z" style="fill: #FFC7D6"></path>
      <path d="M99.74,133.18c-.07-.41.53-.87.87-1.27a7.77,7.77,0,0,0,.46-.67c.27-.47.61-.81,1.21-.61.33-.06.73.14.94-.2a.4.4,0,0,0-.14-.46c-.94-.47-.4-1,0-1.48s.47-1.33,1.21-1.47c.33-.07.73-.07.73-.53s-.4-.47-.73-.61c-5.29-2.07-10.57-4.08-16-5.82l-2-.6-1.2.6c.06,0,.13.07.2.07.46.13.93.34,1.4.47s.8.4.27.87a2.61,2.61,0,0,0-.47.47,1,1,0,0,1-.54.67,1.44,1.44,0,0,1-2.07.53,17.94,17.94,0,0,1-2.61.34,3.48,3.48,0,0,0-.4.53c-.2.34-.53.74-.13,1s.6-.26.73-.46c.6-1.07,1.34-1.07,2.34-.61.47.2.74.34.27.87a8.55,8.55,0,0,0-1.6,2.14c-.07.07-.07.14-.07.27s.33.54.47.87c.93.4,1.8.87,2.74,1.21,4.28,1.47,8.5,3,12.65,4.68.8.33,1.6.67,2.4.94.2-.41.47-.74.67-1.14a1.1,1.1,0,0,0-.33-.2C100.61,133.44,99.81,133.64,99.74,133.18Zm.8-7.7c.94.39,1.81.74,2.88,1.21-.54.8-1.07,1.54-1.61,2.27l-.2.2a9,9,0,0,1-3.28-1.2.45.45,0,0,1,.14-.47c.4-.6.86-1.2,1.27-1.81C99.87,125.35,100.21,125.35,100.54,125.48ZM97,124.14a8.11,8.11,0,0,0,1.68.61c.2.06.4.06.46.33-.2.27-.33.54-.53.8-1.34,1.74-1.34,1.74-3.41,1-1.54-.54-1.54-.54-.47-1.81a1.57,1.57,0,0,0,.27-.4C95.52,124,96.05,123.55,97,124.14Zm-4.55-1.6c.87.34,1.74.6,2.88,1.07a6,6,0,0,0-1.14.94c-1.6,1.74-2.07,1.8-4.21.8-.4-.2-.34-.34-.13-.54a24.62,24.62,0,0,0,1.73-2.07A.65.65,0,0,1,92.44,122.54Zm-6.22.94a7.77,7.77,0,0,0,.74-.81c1.47-1.6,1.6-1.6,3.61-.73.2.06.54.13.27.46l-2,2.21a1.25,1.25,0,0,1-.33.2c-.81-.26-1.54-.53-2.28-.8C85.89,123.88,86.09,123.68,86.22,123.48Zm-.47,5a4.24,4.24,0,0,1-1.67-.54c-.4-.13-.8-.33-1.27-.53a13,13,0,0,0,2.07-2.21.8.8,0,0,1,1.07-.34c2.15.67,2.15.67.81,2.41C86.36,127.62,86.09,128.36,85.75,128.43Zm12.45,4.41c-3.85-1.38-7.63-2.81-11.51-4-.07,0-.13-.07-.2-.14.74-.87,1.54-1.67,2.21-2.61.27-.33.53-.2.8-.13.87.27,1.67.54,2.68.87-.47.67-.94,1.27-1.34,1.87-.14.2-.47.54-.2.81s.6,0,.8-.34.74-.87,1.07-1.34.8-.73,1.41-.4a17.36,17.36,0,0,0,2.07.74c.6.2.74.4.33.93a10.52,10.52,0,0,0-.87,1.27c-.53,1.09-.26,1.23.61.39a6.65,6.65,0,0,0,1-1.32c.33-.6.67-.8,1.34-.47s2,.6,2.27,1.21-.93,1.33-1.34,2S98.79,133.06,98.2,132.84Z" style="fill: #FFC7D6"></path>
      <path d="M145,96a4.85,4.85,0,0,1,.27-1.87,6.26,6.26,0,0,0-2.88,3.27,3.72,3.72,0,0,0,.14,3.48c1.85,2.56,6.66.3,6.55-.6C145.35,99.41,144.93,97.61,145,96Z" style="fill: #FFC7D6"></path>
      <path d="M55.45,14.56c.6.21.94-.13,1.2-.6a7.68,7.68,0,0,0,.74-2.81v-.6a1,1,0,0,0-.94-1.14c-.67-.07-.93.34-1,.87a16.33,16.33,0,0,0-.67,3.15C54.85,14,54.91,14.37,55.45,14.56Z" style="fill: #FFC7D6"></path>
      <path d="M66.22,17.24a1,1,0,0,0,1.07-.74,10,10,0,0,0,.4-2.41,2,2,0,0,0-.33-1.4.88.88,0,0,0-1.61.13,10.61,10.61,0,0,0-.47,3.55C65.42,16.84,65.62,17.24,66.22,17.24Z" style="fill: #FFC7D6"></path>
      <path d="M44.14,30a.85.85,0,0,0-1,.67,7.29,7.29,0,0,0-.27,3.61,1.07,1.07,0,0,0,1,.87c.54,0,.67-.4.81-.87a11.17,11.17,0,0,0,.2-2.07V31C44.81,30.42,44.68,30,44.14,30Z" style="fill: #FFC7D6"></path>
      <path d="M60.87,21a8.56,8.56,0,0,0,.6-2.6c0-.54,0-1.14-.74-1.28s-1,.34-1.2.94a7.18,7.18,0,0,0-.47,2.68c.07.47.2.87.67,1A1,1,0,0,0,60.87,21Z" style="fill: #FFC7D6"></path>
      <path d="M45.21,25.2a.72.72,0,0,0,.54-.74c.13-.93.27-1.87.4-2.87a1.26,1.26,0,0,0-.74-1.07.84.84,0,0,0-1,.26,4,4,0,0,0,0,3.95C44.61,25,44.81,25.33,45.21,25.2Z" style="fill: #FFC7D6"></path>
      <path d="M39.66,27c-.4-.14-.74.2-.87.53a5.54,5.54,0,0,0-.6,3.28,1,1,0,0,0,.67.87c.53.07.73-.34.93-.8a6.85,6.85,0,0,0,.47-2.21v-.74A.88.88,0,0,0,39.66,27Z" style="fill: #FFC7D6"></path>
      <path d="M52.44,24a9.62,9.62,0,0,0,.2-2.35c0-.46-.07-.87-.67-.93a.79.79,0,0,0-.94.67,6.27,6.27,0,0,0-.4,1.87c.27.67.54,1.4.87,2.07C52.17,25.2,52.3,24.53,52.44,24Z" style="fill: #FFC7D6"></path>
      <path d="M79.73,24c.67.06.87-.54,1-1.14a9.17,9.17,0,0,0,.2-1.88c0-.53-.14-.93-.67-1.07a1,1,0,0,0-1.07.81,5.62,5.62,0,0,0-.27,1.94C78.86,23.39,79.06,23.93,79.73,24Z" style="fill: #FFC7D6"></path>
      <path d="M76,18.91c.2-.73.33-1.47.47-2.21a.94.94,0,0,0-.67-1c-.47-.13-.74.13-1,.47-.53.6-.33,1.34-.6,2,.13.53.13,1.07.8,1.27A.79.79,0,0,0,76,18.91Z" style="fill: #FFC7D6"></path>
      <path d="M62.67,6.27c-.6.06-.8.53-.8,1.07,0,.26-.07.53-.13,1,.2.4-.07,1.14.6,1.61.47.33.94.33,1.14-.27a4.79,4.79,0,0,0,.33-2.54,1,1,0,0,0-.47-.74c-.13-.07-.33-.13-.47-.2A.23.23,0,0,1,62.67,6.27Z" style="fill: #FFC7D6"></path>
      <path d="M71.37,25c.07.53.2,1,.87,1.07s.94-.34,1.07-.94l.2-1c.14-.74-.13-1.34-.87-1.41s-1,.54-1.2,1.14c-.07.2,0,.4,0,.34C71.37,24.66,71.3,24.87,71.37,25Z" style="fill: #FFC7D6"></path>
      <path d="M64.75,24.33c-.74-.07-.94.6-1,1.14a4,4,0,0,0,0,1.2.78.78,0,0,0,.67.67c.4.07.61-.2.67-.6a3.64,3.64,0,0,0,.2-1.34C65.22,25.07,65.48,24.4,64.75,24.33Z" style="fill: #FFC7D6"></path>
      <path d="M96.66,21.59c.8-.07,1.6-.2,2.34-.34l7.36-1.4c1.5-.19,1-2.14-.8-1.54-3,.6-6.09,1.2-9.1,1.81-.4.06-.87.26-.87.8S96.26,21.59,96.66,21.59Z" style="fill: #FFC7D6"></path>
      <path d="M103.82,23.59c-2.08.47-4.15,1-6.22,1.48-.41.06-.87.26-.74.73s.6.54,1.07.47l6.09-1c.47-.07,1-.34.93-.94S104.35,23.59,103.82,23.59Z" style="fill: #FFC7D6"></path>
      <path d="M107,20.25a19.62,19.62,0,0,0-4,.87c-.4.07-.8.33-.73.8s.53.6,1.07.6l3.88-.8a.78.78,0,0,0,.67-.94A.72.72,0,0,0,107,20.25Z" style="fill: #FFC7D6"></path>
      <path d="M100.54,23.26c.53-.07,1-.33.94-1s-.67-.61-1.28-.67c-.93.13-2,.26-3,.47a.79.79,0,0,0-.73.93c0,.54.47.67.87.67Z" style="fill: #FFC7D6"></path>
      <path d="M100,19a.81.81,0,0,0,.74-.94c-.13-.53-.6-.67-1.14-.53a36.05,36.05,0,0,0-3.68.93c-.33.14-.73.27-.67.67s.54.54.94.54C97.46,19.45,98.73,19.22,100,19Z" style="fill: #FFC7D6"></path>
      <path d="M108.9,11.08a.71.71,0,0,0-.13.87.87.87,0,0,0,.87.41c.33-.07.73-.21.8-.67a1,1,0,0,0-.09-.74A.89.89,0,0,0,108.9,11.08Z" style="fill: #FFC7D6"></path>
      <path d="M106.89,12.76a.87.87,0,0,0,.94-.67c0-.47-.2-.67-.6-.67s-.8.27-.94.73A.51.51,0,0,0,106.89,12.76Z" style="fill: #FFC7D6"></path>
      <path d="M60.8,92c2.12-1.11,2.81-3,2.88-5.22a3.63,3.63,0,0,1,2.14-3.61,5.46,5.46,0,0,0,3-3.89A2.64,2.64,0,0,0,65.62,76a13.3,13.3,0,0,0-2.75.93c-1.47.74-2.87,1.54-4.34,2.28-.54.27-.81.2-.94-.34-.2-.73-.4-1.47-.67-2.2a3.47,3.47,0,0,0-5-1.88A12.31,12.31,0,0,0,49,77.11c-.51.51-.81.71-.81-.2A13.31,13.31,0,0,1,48,74.1a2.23,2.23,0,0,0-3-2.2c-3,.87-6,4.88-6,8.29a11.09,11.09,0,0,0,.74,3,58.32,58.32,0,0,1,3.48,9.23c.53,2.08,1.27,4.09,1.94,6.09a2.31,2.31,0,0,0,1.74,1.67,12.82,12.82,0,0,0,3.54.61c2.88-.14,5.62.53,8.43.8a2.75,2.75,0,0,0,1.54-.27c-.21-1.39.07-1.61.2-1.74.87-.8.87-1-.13-1.67a3,3,0,0,1-1.07-3.48,3.16,3.16,0,0,1,.33-.73A1.92,1.92,0,0,1,60.8,92Z" style="fill: #FFC7D6"></path>
      <path d="M53,32.29c-.4.14-.6-.27-.73-.53-.27-.47-.47-1-.74-1.54-.87-1.41-1.8-1.41-2.88-.2-2,2.27-.4,5.62,1.61,6.42.4.13.74,0,.4.73-.27.54.2,1.34.67,1.74a9.4,9.4,0,0,1,1.81,2.15,16.56,16.56,0,0,0,10.1,6.55,8,8,0,0,0,7.16-2A17.57,17.57,0,0,0,74.85,39a1.71,1.71,0,0,1-1.07.34,1.53,1.53,0,0,1-1.14-.54,8,8,0,0,1-.27,1.34c-.33.94-1.33,1.14-2.27.53-.4-.33-.67-.53-1.2-.06a1.39,1.39,0,0,1-2.08-.27,2.07,2.07,0,0,1-.33-2.48.87.87,0,0,1,.87-.33c.26.07.6.13.2.47s-.2.8-.07,1.2a.65.65,0,0,0,.54.54c.33.06.46-.2.6-.4.4-.81.87-.74,1.4-.14.34.34.6,1,1.21.74s.26-.87.33-1.41v-.6a6.47,6.47,0,0,0-.47-2.54c-.13-.27-.26-.6.14-.8s.6.06.73.33a8,8,0,0,1,.61,1.74A1.86,1.86,0,0,1,74,36a1.49,1.49,0,0,1,1.54,1.41c.13-.47.27-.87.4-1.34.54-1.88.94-3.75,1.4-5.62.07-.94.07-1.88.07-2.74a3.19,3.19,0,0,0-.8-2.08,9.63,9.63,0,0,1-1.74,5c-1.34,1.6-2.88,1.54-4-.2a10.83,10.83,0,0,1-1.14-2.74c-.07-.27-.14-.61-.2-.87-.07-.47-.14-.94-.27-1.48a22.48,22.48,0,0,1-2.48,3,4.9,4.9,0,0,1-2.2,1.34c-2.85.78-3.29-2.55-3.55-2.81a9.3,9.3,0,0,1-3.34,2.28,1.83,1.83,0,0,1-1.88-.2,2.54,2.54,0,0,1-.87-.41.93.93,0,0,0-1.47.87A1.16,1.16,0,0,1,53,30.48a3.85,3.85,0,0,1,.27,1.28C53.31,31.82,53.44,32.22,53,32.29Zm-1.27,2a.37.37,0,0,1-.6-.14c-.54-1-1.14-.66-1.87-.2-.27.2-.67.54-.94.07s.27-.67.67-.8.67-.2,1.07-.34a1.88,1.88,0,0,0-1.14-1c-.2-.07-.4-.2-.33-.4s.27-.34.53-.34a1.44,1.44,0,0,1,1.21.47,7.44,7.44,0,0,1,1.54,2.21A.48.48,0,0,1,51.7,34.3Zm21.61-.6a3,3,0,0,1,1.94-1.34c.74-.2.94.33.94.93a1.18,1.18,0,0,1-.74,1.21c-.6.33-1.2.67-1.87.33S73,34.16,73.31,33.7ZM69.7,42.33c.74.25.53.93.27,1.33a12.63,12.63,0,0,1-2.28,3,2.37,2.37,0,0,1-2.34.34,4,4,0,0,1-2.54-3.41A1.54,1.54,0,0,1,64,41.92,9.51,9.51,0,0,1,69.7,42.33ZM60,31.56c.2-.87.87-1.08,1.6-1.28h.47a4.58,4.58,0,0,1,2.88,1c.67.53.53.93-.14,1.47a3.1,3.1,0,0,1-3.67.27C60.53,32.69,59.86,32.43,60,31.56Zm-2.08,1.6A3,3,0,0,1,60.47,36c0,1.27-1,2.07-2.48,2.07a2.27,2.27,0,0,1-2.47-2.27A2.74,2.74,0,0,1,57.92,33.16Z" style="fill: #FFC7D6"></path>
      <path d="M63.88,43.86A3.14,3.14,0,0,0,65.55,46c.54.26,1.07.4,1.54-.2.67-.81,1.27-1.68,2-2.61A10,10,0,0,0,65,42.73C64.35,42.79,63.65,43,63.88,43.86Z" style="fill: #FFC7D6"></path>
      <path d="M77.19,45.2c-1.07-.67-2.47-.67-3.48-1.54-.2-.2-.33.14-.4.27-.8.87-1.6,1.67-2.34,2.61-2,2.41-4.88,2.74-7.56,2.34a16.67,16.67,0,0,1-12.58-8.83c-.4-.73-.73-1.47-1.13-2.27a4.85,4.85,0,0,1-3,1.8,60.91,60.91,0,0,0,5.75,6.69c2.15,2,4.75,3.28,7.1,4.95.2.14.46.27.67.41a8,8,0,0,0,3.34.2c1.34-.34,2.61-.67,4-1.14.06-.14.2-.27.26-.4s.27-.14.47-.2C69.9,49.48,71.44,49,73,48.28a29.88,29.88,0,0,0,4.08-2.61C77.12,45.54,77.19,45.34,77.19,45.2Z" style="fill: #FFC7D6"></path>
      <path d="M129,101.06a2.23,2.23,0,0,0-1.67,1.81c-.2.67.13.94.74.94a1.83,1.83,0,0,0,1.13-.4,24,24,0,0,1,3.08-2.48A7.65,7.65,0,0,0,129,101.06Z" style="fill: #FFC7D6"></path>
      <path d="M155.66,102.27a.84.84,0,0,1-.26.2c-1.34.87-2.48,1-3.62.13-.53-.4-.73-.26-1.13.2-3.42,3.75-9.3,2.75-10.84-1.8a7,7,0,0,1,2.41-7.63,5.6,5.6,0,0,1,.93-.74c.34-.2.67-.46,1.21-.8a3.18,3.18,0,0,1-3.68-2.14,9.16,9.16,0,0,1-.34-4.21c.07-.47.14-.74-.46-.81a3.39,3.39,0,0,1-2.81-3c-.07-.26-.07-.53-.34-.67a7.61,7.61,0,0,1-3.21,2c-1.74.4-3.88.2-4.68-1.94-2.61,3.15-3.48,8.43-1.81,11.91A.9.9,0,0,1,127.1,94a.85.85,0,0,1-1.07.27,1.44,1.44,0,0,0-1.67.53,5.86,5.86,0,0,0-1.61,2.88,2.43,2.43,0,0,0,2.07,3.08,6.73,6.73,0,0,0,3.62-.34,5.3,5.3,0,0,1,4-.4,2.44,2.44,0,0,0,2.61-.47c.13-.06.27-.2.4-.27.8-.33,1.34,0,1.21.87s-.41,1.74-.61,2.61c-.06.34-.2.61.07.94a5.75,5.75,0,0,1,1,3.88c-.06.67.2.87.81,1a21.55,21.55,0,0,0,5.15.41.85.85,0,0,0,.6-.27,11,11,0,0,1,.94-.74,14.4,14.4,0,0,1,3.94-2.41,28.08,28.08,0,0,1,7-2.34,5.27,5.27,0,0,0,.53-.8C156,102.2,155.87,102.2,155.66,102.27ZM128.1,83.94c-.12-.47.27-.67.67-.87a2.71,2.71,0,0,1,1.47-.2,5.68,5.68,0,0,1,5.15,4.88c0,.34,0,.67-.33.74s-.6-.2-.74-.47a7.54,7.54,0,0,0-1.94-2.88,3.39,3.39,0,0,0-3.21-.87C128.7,84.27,128.24,84.47,128.1,83.94Zm2.81,8.76a1,1,0,0,1-1.94.07,5.25,5.25,0,0,1-.13-3.28.88.88,0,0,1,1.67-.13A6.68,6.68,0,0,1,130.91,92.7Zm4,4.82c-1.61,0-3-1.07-3-2.34a2.53,2.53,0,0,1,2.74-2.48,2.47,2.47,0,0,1,2.47,2.48A2.21,2.21,0,0,1,134.93,97.52Z" style="fill: #FFC7D6"></path>
      <path d="M133.65,107.49c-.33.21-.4,1.07-.06,1.6a1.26,1.26,0,0,0,1,.54.86.86,0,0,0,.2-.27c.34-.54.67-.8,1.14-.8a7.21,7.21,0,0,0-.54-3.62C134.79,105.81,134.67,106.84,133.65,107.49Z" style="fill: #FFC7D6"></path>
      <path d="M38.79,191.11c-.33-3.81-.6-7.62-.6-11.44,0,0-.34-7-.47-10.43-.07-1.34.2-1.54,1.54-1.34l3.48.6c.47.07.67,0,.73-.54v-.06c.74-3.35.74-3.35-2.47-4.48s-6.76-2.48-10.24-3.82a29.51,29.51,0,0,1,.47,4.08c0,1.88.67,3.08,2.61,3.35.74.13.87.73.94,1.47.13,3.08,1.33,23.68,1.33,23.68a.8.8,0,0,1-.46.8v.07c0,.67.06,1.27,1,.94a2.11,2.11,0,0,1,1.27.2c1.07.2,1.2.13,1.07-1,0-.34-.07-.67-.07-1a1.6,1.6,0,0,1-.06-.53A1.29,1.29,0,0,1,38.79,191.11Z" style="fill: #FFC7D6"></path>
      <path d="M184.9,152c-.4.13-.6.27-.6.74.06.73.06,1.47.06,2.27.14,0,.21-.06.34-.06.67-.27,1.34-.41,2-.74,2-.94,3.34-.27,3,2.48,0,.13-.07.26-.07.4a47.8,47.8,0,0,0-1.07,8.09A64.4,64.4,0,0,1,187,176.59c-.07.47-.2.94-.27,1.41-.26,1.74-.46,3.41-.8,5.15-.07.27-.07.54-.13.74h.53c1.27-.14,2.54-.54,3.81-.74.81-.13,1.08-.6,1.21-1.34.2-1.87.53-3.68.74-5.55.33-2.94,1.2-5.82,1.07-8.83a27.69,27.69,0,0,1-.14-3.28c.07-2.67.27-5.35.34-7.22,0-3-.2-5.09-.4-7.3v-.13c-.14,0-.21.07-.34.07C190.05,150.44,187.44,151.22,184.9,152Z" style="fill: #FFC7D6"></path>
      <path d="M26.41,75.71a7.58,7.58,0,0,0,.54-1c1-2.81.6-5.69.07-8.5-.14-.8-.47-.8-1.14-.67-2.34.4-4.55,1.27-6.89,1.54-.54.07-.4.33-.27.6a5.74,5.74,0,0,1-1.47,5.55,20.48,20.48,0,0,0-3.35,5,3,3,0,0,0-.4,1.94c.34-.46.54-.8.81-1.13.46-.74,1-1.41,1.47-2.14.26-.34.53-.67,1-.34s.2.6.07.94-.47.87-.67,1.34A11.4,11.4,0,0,0,15,82.13a60.52,60.52,0,0,0,3.48-5c.27-.4.53-1,1.14-.6s.2.87,0,1.21a13.48,13.48,0,0,0-1.41,3.34,2.43,2.43,0,0,0,1.07-.94c1.61-2,3.08-4.14,4.55-6.22.27-.4.6-.87,1.14-.53s.27.73.07,1.13a4.19,4.19,0,0,0-.47,2.21c.06.4.13.6.4.47A16.21,16.21,0,0,1,26.41,75.71Z" style="fill: #FFC7D6"></path>
      <path d="M89.77,103.61c.13.73.67.8,1.34.8h.13a4.07,4.07,0,0,0,.2-.8,2.15,2.15,0,0,1,.13-.67.91.91,0,0,0-.06-.4c-.07-.47-.2-.94.27-1.34s.93-.14,1.4.06c1.54.81,7,3.62,8.16,4.29a.52.52,0,0,0,.67,0,.54.54,0,0,0-.13-.61,5.16,5.16,0,0,0-1.54-1.4c-.94-.67-1.94-1.34-2.88-2-.33-.27-.67-.6-.4-1s.67-.13,1.07,0c.2.07.34.4.67.2a2.77,2.77,0,0,0,.67-3.41,2.58,2.58,0,0,1-.6-1.94c.4-1.27-.34-2.08-1.14-2.88a33.62,33.62,0,0,0-4.22-2.81c-.53-.4-.66-.2-.93.27-1.21,2.21-2.41,4.41-4.42,6a14.84,14.84,0,0,1,1.27,4.42C89.63,101.33,89.63,102.47,89.77,103.61Z" style="fill: #FFC7D6"></path>
      <path d="M120.41,134.92a3.7,3.7,0,0,0-.34.8c-.33,2,.94,3.34,1.94,4.95a2,2,0,0,0,.2-1.94,10.46,10.46,0,0,1-.6-3.55c0-.33.2-.87-.2-1S120.61,134.51,120.41,134.92Z" style="fill: #FFC7D6"></path>
      <path d="M125.43,132a.24.24,0,0,0-.07-.2c-.27-.4-.87-.2-1.34-.2s-.8.4-.94.87a8.27,8.27,0,0,0-.26,2.2c0,.41.06.87.06,1.28s0,.73.34.73a1.14,1.14,0,0,0,.13-.47c0-.06-.06-.13-.06-.2a1.43,1.43,0,0,1,.26-.73,13.75,13.75,0,0,1,1.27-2.34A5,5,0,0,0,125.43,132Z" style="fill: #FFC7D6"></path>
      <path d="M118.67,139.13a2,2,0,0,0,.47,2.81,13.81,13.81,0,0,0,2.81,1.27c-.27-.6.13-1.2-.34-1.54a8.85,8.85,0,0,1-2-2.54C119.34,138.73,119,138.73,118.67,139.13Z" style="fill: #FFC7D6"></path>
    </g>
    <g>
      <path d="M90.37,67.68A1.93,1.93,0,0,0,92,69.42c2.67.67,5.28,1.34,8,1.94,1.54.34,2.14-.2,2.07-1.81s0,.31-1.2-14.71a1.46,1.46,0,0,0-1.48-1.48c-3.07-.2-6.15-.4-9.09-.53-1.74-.07-2.28.4-2.14,1.67C88.63,58.92,89.49,63.27,90.37,67.68Zm1.27-7.42c.07-.54.6-.47.94-.47,1.34.2,2.61.4,4,.67,1,.16.9,1.35-.21,1.13-1.33-.2-2.6-.4-3.94-.67C92,60.86,91.58,60.72,91.64,60.26Zm7.09,6.95c-.13.34-.4.4-.87.4a41.85,41.85,0,0,1-4.68-1.2.48.48,0,1,1,.2-.94c1.61.34,3.21.67,4.89,1.07C98.53,66.68,98.8,66.88,98.73,67.21Zm-.87-2.27c-1.54-.34-3.07-.6-4.61-.87-.4-.07-.74-.2-.67-.67s.4-.47.93-.4c1.41.27,3,.53,4.55.8C99.17,63.8,99,65.32,97.86,64.94Zm-5.68-8.3c4.42.4,5.42.23,5.42,1.14-.07.6-.61.47-1,.47l-4.48-.4c-.4-.07-.87-.14-.8-.67S91.78,56.58,92.18,56.64Z" style="fill: #a6eef8"></path>
      <path d="M66.55,124.08c.54-1.27,1.07-2.54,1.61-3.82.13-.33.33-.6.27-.93-.4-.2-.81-.4-1.27-.6-.27.06-.41.33-.61.66a28.68,28.68,0,0,0-2.4,5,1.14,1.14,0,0,1-1.34.86,40.58,40.58,0,0,1-7-.86c-6.15-1.21-12.11-3-17.32-6.69-3.08-2.21-6.43-4.09-9.44-6.36-.33.33-.67.67-1,1.07.2.2.4.47.6.67,2.21,2.21,4.89,3.81,7.36,5.69,7.32,5.63,16.55,8,25.82,8.89.41,0,1.21-.2.94.81-1.66,6.28-.13,7.69-1.54,7.69a63.54,63.54,0,0,1-11.37-.74,55.3,55.3,0,0,1-11.71-3.68,102.85,102.85,0,0,1-11.17-5,12.88,12.88,0,0,0-1.21-.74c.07.74.14,1.47.21,2.28,2.31,1.85,5.84,3.29,8.56,4.48,7.62,3.32,12.76,5.25,21,5.75a28.32,28.32,0,0,0,5.82.13c.66-.06.8.21.93.67a10,10,0,0,0,1.94,4.55.57.57,0,0,1,.07-.33c.33-.6.87-.34,1.27-.07a7.4,7.4,0,0,0-.27-1.2C63,135.29,64.41,130.52,66.55,124.08Z" style="fill: #a6eef8"></path>
      <path d="M73.11,146c0-1.47.07-2.94.13-4.41A42.33,42.33,0,0,1,77.46,125c.27-.6.2-.87-.34-1.21s-.93-.2-1.2.27c-3.44,5.16-4.73,11.6-5,17.8a12.35,12.35,0,0,0,.67,4.95,2.85,2.85,0,0,1,.74.53C72.51,147.29,73.08,147.42,73.11,146Z" style="fill: #a6eef8"></path>
      <path d="M83.88,133a4.61,4.61,0,0,1-1.34-1.6.26.26,0,0,1-.06.13,30.2,30.2,0,0,0-2.75,5.22,31.06,31.06,0,0,0-2.94,11.71,16.66,16.66,0,0,0,.07,2c.46.41,1,.74,1.47,1.14C79.49,149.31,78.47,143.68,83.88,133Z" style="fill: #a6eef8"></path>
      <path d="M112.18,67.55a42.79,42.79,0,0,0,7.49,3.88,21,21,0,0,0,3.88,1.34,3.21,3.21,0,0,0,1.7-1c.58-.68-.4-.8-.76-.92-1.34-.47-2.68-.94-4-1.48-3.61-1.47-7.35-2.81-10.23-5.68a7.53,7.53,0,0,0-.87,1.13A11.13,11.13,0,0,0,112.18,67.55Z" style="fill: #a6eef8"></path>
      <path d="M122.75,87.48c1.4.41,1.74.14,1.67-1.4.2-.47-.27-.54-.6-.6-5.93-1.65-8.94-2-13.18-3.48l-.4-.2a2.78,2.78,0,0,0,.47,2.14,11.87,11.87,0,0,0,1.67.67C115.73,85.94,119.33,86.49,122.75,87.48Z" style="fill: #a6eef8"></path>
      <path d="M120.94,79.05c1-.4.81-2.26-.33-2.2a13.5,13.5,0,0,1-4.35-.34,19.36,19.36,0,0,1-6.09-2.21l-.06-.06a20.59,20.59,0,0,1,.66,2.74,17.13,17.13,0,0,0,7.9,2.34A8.17,8.17,0,0,0,120.94,79.05Z" style="fill: #a6eef8"></path>
      <path d="M68.09,174.32c-.06,1.14-.06,2.27-.13,3.41,2.59-2.59,2-2,4.88-5.15a2.43,2.43,0,0,0,.6-.87c-.08-.17-.53-1.54-.73-2.14C72.61,169.62,68.16,174.22,68.09,174.32Z" style="fill: #a6eef8"></path>
      <path d="M51.3,185.29c-1.4-.47-2.68-.8-3.88-1.34s-1-.28-3.75-1.2a22.63,22.63,0,0,0-3.14-.4c-.13,0-.4-.14-.47,0-.45.67-.2.64-.2,2.14A50.33,50.33,0,0,0,51.3,185.29Z" style="fill: #a6eef8"></path>
      <path d="M162.82,79.52c.73.28,1.21-.2,1.54-.8.67-1.2,1.27-2.41,1.88-3.61a.8.8,0,0,0-.07-1,.94.94,0,0,0-1-.26c-1.33.33-3.07,2.67-3.14,4.48A1.07,1.07,0,0,0,162.82,79.52Z" style="fill: #a6eef8"></path>
      <path d="M163.76,86.21a1.43,1.43,0,0,0-1.47.34A7.88,7.88,0,0,0,160.48,90a1,1,0,0,0,.67,1.2.92.92,0,0,0,1.27-.2,10.3,10.3,0,0,0,2-3.88A1.14,1.14,0,0,0,163.76,86.21Z" style="fill: #a6eef8"></path>
      <path d="M153.66,63.93a1,1,0,0,0-1.34.34,11.44,11.44,0,0,0-2,3.34,1.23,1.23,0,0,0,1.07,1.68.8.8,0,0,0,.74-.27,12.42,12.42,0,0,0,2.07-3.81C154.26,64.67,154.19,64.14,153.66,63.93Z" style="fill: #a6eef8"></path>
      <path d="M146.7,73.9a.93.93,0,0,0-1.27-.06,7.28,7.28,0,0,0-2.07,3.54,1.2,1.2,0,0,0,2.2.74,16.1,16.1,0,0,0,1.54-3A1.25,1.25,0,0,0,146.7,73.9Z" style="fill: #a6eef8"></path>
      <path d="M134.79,70.16A8.23,8.23,0,0,0,132.92,74a1,1,0,0,0,1.81.87,10.14,10.14,0,0,0,1.8-3.81C136.53,70,135.19,69.63,134.79,70.16Z" style="fill: #a6eef8"></path>
      <path d="M154.53,79.72c-.81.2-2.28,2.34-2.28,3.48a1.22,1.22,0,0,0,2.08.8c.8-.8,1-1.94,1.54-2.87S155.9,79.49,154.53,79.72Z" style="fill: #a6eef8"></path>
      <path d="M152.39,98.86c.48-1,.93-2.08,1.33-3.08.14-.4.21-.87-.26-1.14a.92.92,0,0,0-1.27.14,9.28,9.28,0,0,0-1.94,3.34,1.32,1.32,0,0,0,0,.74,3.32,3.32,0,0,0,.66-.2c.61-.07.94.13.74.8C151.92,99.46,152.19,99.26,152.39,98.86Z" style="fill: #a6eef8"></path>
      <path d="M68.69,162.48h0c-.06.94-.13,1.87-.2,2.74.1-.05,2.38-1.64,2.48-1.74-.13-.8-.34-1.54-.47-2.34A7.39,7.39,0,0,1,68.69,162.48Z" style="fill: #a6eef8"></path>
      <path d="M171.45,92.5a4.75,4.75,0,0,0,1.07-2.21c.2-.8-.26-1.33-1.13-1.4a1.09,1.09,0,0,0-.54.2,6.1,6.1,0,0,0-1.4,2.47A1.16,1.16,0,0,0,171.45,92.5Z" style="fill: #a6eef8"></path>
      <path d="M64.55,150.17c.84,1.05.47.63,2.27,1.4a3.8,3.8,0,0,1,.87.47c.78,0,1.45-.2,1.81-.2,0-.47-.07-.93-.07-1.34C69.05,150.12,65.1,150.15,64.55,150.17Z" style="fill: #a6eef8"></path>
    </g>
    <g>
      <path d="M191.72,126c-.33-.8-1.07-.47-1.67-.27-.87.27-1.67.6-2.54.94-.4.2-.6.13-.8-.34-3.63-7.69-10.89-14.26-17.13-17.59-.87-.47-2.25-1.13-2.65-2s-.09-1.41-.09-2.48c0-1.9-1.12-1.45-3.88-1.68-.2,0-.61.07-.61-.33s.27-.34.47-.34a6.26,6.26,0,0,0,4.82-4.61c.35-1.11.67.32,3-.07,6.78-1.27,8.82-11.3,1.81-12.44a12.85,12.85,0,0,0-1.81-.2A5.6,5.6,0,0,1,171,84c.14-.2.21-.4.34-.6,1.61-3.68,2-7.42-.07-11.1-2.21-3.88-5.82-5.42-10.1-4.15-.6.2-.8.13-.94-.6a11.76,11.76,0,0,0-2.67-5.76A5.55,5.55,0,0,0,154,59.65a12.35,12.35,0,0,0-8.56,1.27c-.13.07-.34.34-.54.2A2.7,2.7,0,0,1,146,60c3.78-2.52,4.69-4.88,5.62-8.83s1.41-8.23.13-12.38A5.19,5.19,0,0,0,148.17,35a2.83,2.83,0,0,1-1.67-1.41,8.74,8.74,0,0,0-4.95-4.15,31.3,31.3,0,0,0-13.38-1,4.44,4.44,0,0,0-1.67.54c-.2.13-.4.26-.34.52a30,30,0,0,1-1.94-2.53c-.4-.67-.87-.54-1.2.27a3.14,3.14,0,0,1-.94,1.8c-.27-1-.51-1.94-.8-2.87-.19-.61-.34-1.27-1.14-1.41s-1.21.39-1.67.87a9,9,0,0,0-1.41,2.61c-.53-.4-.6-1.27-1.47-1-1.43.4-1.25,2-1.4,3.34-.47-.2-.61-.6-.87-.87-.47-.47-.87-.87-1.54-.73s-.88.8-1,1.4a8.7,8.7,0,0,0,1.48,6.22c.53.94,1.87,1.34,1.74,2.48a14.45,14.45,0,0,1-1.14,3c-.07.13-.13.33-.2.47a10.16,10.16,0,0,0,0,8.16c1.18,2.61-1.54,3.31.93,9.5-.13.07-.2.07-.26.13a7.92,7.92,0,0,0-4,2.48,3,3,0,0,0-.53.73,7.74,7.74,0,0,0-.87,6.63c.67,2.27.95,3.8,1.76,6.07.4,1.07.85,2.89.31,3.89a4.66,4.66,0,0,0,.8,6c.14.14.41.27.34.6-.33-.07-12.86-2.83-19.54-3.75-.6-.08-1.07-.4-1-1a4.11,4.11,0,0,0-.53-2c-.77-1.82-1.54-3.54-2.35-5.28a8.49,8.49,0,0,1-.8-4.48,6,6,0,0,0-2.07-5.49,4.38,4.38,0,0,1-1.41-2.61,53.66,53.66,0,0,1-.73-9.9c.26-4.95-1.81-7.69-6.63-8.76l-1-.2c-.47-.07-.74-.2-.33-.74,2.61-3.55,3.41-7.63,3.81-11.84,0-.34.2-.94-.34-1s-.53.46-.66.8c-1.4,5.57-2.26,11.07-6.89,15.25a8,8,0,0,1-7.16,2,16.89,16.89,0,0,1-10.11-6.56A11.05,11.05,0,0,0,51.57,39c-.47-.4-.93-1.2-.67-1.74.35-.73,0-.53-.4-.73-2-.81-3.61-4.15-1.61-6.43,1.07-1.2,2-1.22,2.88.2.69,1.16.81,2.28,1.47,2.08.47-.15.34-.54.34-.8A4.85,4.85,0,0,0,53.17,30c-1.1-2.75-3.88-3.19-5.82-.13-1.46,2.3-.87,4.81,1.48,7.09-1.54,1.74-2.68,1.74-4,0a.87.87,0,0,0-.94-.34c-2.13.31-3.1-.92-2.54-3,.07-.26.14-.53-.13-.73-.75-.56-1,.67-2.34,1.13a1.45,1.45,0,0,1-1.81-.46,4.73,4.73,0,0,1-.8-4.49,3.85,3.85,0,0,1,3.14-2.87c1.88-.34,2.41-.4,2.81-2.95a6.91,6.91,0,0,0,.07-1.2,7,7,0,0,1,3.54-6.16c1.85-1.11,3-.82,2.81-1.6-.13-.47-.6-.47-1-.4a2,2,0,0,0-.6.06,7.64,7.64,0,0,0-6,6.16c-.14,1.14-.27,2.27-.34,3.41a1.21,1.21,0,0,1-1.2,1.27,5.75,5.75,0,0,0-4.82,5,7.14,7.14,0,0,0,1,4.21,5.37,5.37,0,0,1-2.54.2A10.59,10.59,0,0,1,29.69,33a3.13,3.13,0,0,0-3.41.27,1.57,1.57,0,0,1-.4.27,8.77,8.77,0,0,1-4.15,1.33A22.12,22.12,0,0,0,12,38.58a10.83,10.83,0,0,0-3,3.28,1,1,0,0,0-.2,1.07c0,.07.07.07.07.13.4-.4.73-.8,1.13-1.14,2.92-3.16,5.63-4.34,9.77-5.28.1,0,2-.41,2.34-.47a9.84,9.84,0,0,0,5.09-2.07,1.78,1.78,0,0,1,2.27.13c3.22,2.24,6.61,1,9.1.8.2,0,.4-.06.67-.06h.27c.79,0,.25.54,1,1.54a2.36,2.36,0,0,0,1.74.93,2.86,2.86,0,0,1,1.07.27,7.8,7.8,0,0,1,1.34.94,14.58,14.58,0,0,1,1.13,1.07c1.16,1.15,3.44,5.49,6.37,7.52a65.83,65.83,0,0,1,6.48,4.95c1.43,1.22,3.3,1.13,5.22.71a50.4,50.4,0,0,0,6.82-2.41C74.14,48.9,76.86,48,78.46,46c.27-.27.4,0,.6.13a4.79,4.79,0,0,1,.87.74,4.56,4.56,0,0,1,1.28,2.74c.33,3.41.6,6.76,1,10.17.27,1.94.2,4.08,1.67,5.62a5.12,5.12,0,0,1,1.34,4.35c-.46,4.27,2.53,8.44,4.41,12.91a25.85,25.85,0,0,0,1.54,3.54c1,1.89,1.36,1.57,1,2.28a.06.06,0,0,1-.07.06c-.94,1.28-1.77,2.59-2.68,3.88-.13.2-.33.41-.46.61a2.18,2.18,0,0,1-1.68.93,2.22,2.22,0,0,1-.87-.13,13.22,13.22,0,0,1-5.75-4.35,2.35,2.35,0,0,1-.4-2.14c.07-.33.13-.67.2-.94a9.61,9.61,0,0,0,0-3.21c-.54-2-2.15-2-4.22-1.74l-.66.2c-.21.07-.41.14-.54,0a16.89,16.89,0,0,1-2.61-1.74c1.08-.07,4.06-.33,5.15-.33a19.7,19.7,0,0,0,3.41-.4c.54-.14,1.14-.34,1.21-1s-.34-1.07-.8-1.4a12.61,12.61,0,0,0-1.68-.94,9.57,9.57,0,0,0,2.48-.67c.53-.26,1.07-.6,1.14-1.27a1.18,1.18,0,0,0-.67-1.13,11.92,11.92,0,0,0-1.94-.87,27.88,27.88,0,0,0-6.56-1.21c-.33,0-.74.14-.87-.33a5.71,5.71,0,0,0-1.14-3.15,1.29,1.29,0,0,1-.2-1.13A13.82,13.82,0,0,0,72.44,63a20.24,20.24,0,0,0-.4-5.42c-.07-.4-.2-.87-.74-.8s-.53.6-.46,1c.06.67.13,1.27.2,1.87a15.15,15.15,0,0,1-.94,7.5c-.07.06-.07.2-.13.26-.14.27-.2.41-.41.47a.76.76,0,0,1-.66-.06,30,30,0,0,0-4.69-1.54A36.75,36.75,0,0,0,55,65.21c-5.47,0-10.24,2.47-14.25,6.08-2.57,2.42-1.65,4.57-2.68,6.63s0,3.62.34,5c.44,1.91,1.18,3.71,1.46,5.62-.13,0-.19-.06-.32-.06-1.26-.34-1.94-.43-4.69-1.34-1.27-.47-2.58-.89-3.34-2.07-1.78-2.79-3.58-5.16-5-7.63-.13-.27-.27-.4,0-.67,2.14-2.14,2.48-4.88,2.21-7.69-.47-4,2.82-5.78,3.75-7.1,1.67-2.07,2.4-4.54,3.34-7,.2-.67.4-.6.87-.27a10.53,10.53,0,0,0,2.47,1.47c.27.14.61.21.74-.06s-.07-.53-.33-.67c-1.7-.9-3.08-2.41-5-2.95s-4-.93-5.95-1.53a2.45,2.45,0,0,1-1.88-1.61A3.93,3.93,0,0,0,25,47.41c-.27-.2-.6-.33-.87.07s0,.53.2.73a4.54,4.54,0,0,1,1.27,1.94c.55,1.46-.27,2,.34,3a1.56,1.56,0,0,0,.46.53A1.24,1.24,0,0,1,27,54.84a59,59,0,0,1-.8,8.36c-.07.27-.2.4-.47.4-3.65.52-5.82,1.61-6.69,1.61-.27,0-.48-.2-.74-.54-.82-1.06-.93-2.41-1.54-3.55-4-8-7.91-17.72-8.36-17.72-.07,0-.13-.07-.2,0s-.13.26-.2.4a4,4,0,0,0,.47,2c2.41,6.56,5.75,12.78,8.29,19.27a6.35,6.35,0,0,1-.4,6.09c-2,3.09-4.23,5.67-4.35,8.56-.06,1.21.54,1.61,1.74,1.21-.33,1-.13,2.07-.6,2.94C11.29,87.15,9.76,90.56,8.28,94c-.93,2.28-2,4.55-2.14,7a96.21,96.21,0,0,0,.61,13.24c.13,1.14.26,2.55,1.94,2.75.26,0,.26.2.26.4.27,4.08,1.48,7.89,2.14,11.91.41,2.34,1.21,4.68,1.34,7,.27,5.29,1.81,29.44,2.21,36.33a1.74,1.74,0,0,0,1.47,1.8c3.68,1,7.36,2.21,11.11,3.15a4.41,4.41,0,0,1,3.14,2.61,8.33,8.33,0,0,0,2.54,3.41,2.72,2.72,0,0,1,1.21,2.74,53,53,0,0,0,.33,5.55c0,.47.27.87.81.81.06,0,.13-.07.2-.07a.81.81,0,0,0,.46-.8s-1.27-20.61-1.33-23.69c0-.66-.2-1.33-.94-1.47-1.94-.33-2.61-1.47-2.61-3.34a29.34,29.34,0,0,0-.47-4.08c3.55,1.27,6.89,2.54,10.24,3.81,3.14,1.14,3.14,1.14,2.47,4.48,0,.18,0,.72-.73.6-1.14-.2-2.28-.37-3.48-.6s-1.61,0-1.54,1.34c0,.45,1,22.69,1.14,23s.26.61.67.54c.73-.07.73-.67.66-1.2a29,29,0,0,1-.13-3.42c5.16,2.84,2.42.12,11.57,3.68a37.49,37.49,0,0,0,9.37,1.94c4.37.49,3.84-.91,5.73-3.14,3.72-4.52,5.09-8.18,9.18-12.58a12,12,0,0,0,2-2.18c.6-1.14-.22-2.1-1.36-2.77-.34-.2-.54-.21-.74-.61,1-.16,12-2.83,14.52-3.47,4.88-1.2,9.9-1.61,14.72-2.88.32-.11-.15-.07,7.83,2.14,1.06.27,1.33.87,1.33,1.94,0,3.88-.53,7.7-.8,11.51-.07,1.34-.67,2.88,0,4s.27,2.2-.2,3.21a32.15,32.15,0,0,0-1.87,4.21c-.14.4-.2.87.26,1s.67-.2.87-.53c1-1.94,1.94-3.88,2.75-5.89a2,2,0,0,0-.27-2,1.88,1.88,0,0,1-.4-1.21c.2-1.74.33-3.48.47-5.22a86.42,86.42,0,0,0,.53-10,2.1,2.1,0,0,0-1.54-2.08,55.33,55.33,0,0,0-7.16-1.74c-1.13-.2-2.27-.8-3.54-.53-5,.87-9.88,1.77-14.72,2.94-.6.15-.87.07-1-.6a24.73,24.73,0,0,1-1.07-5.89A9.6,9.6,0,0,0,81.94,153a.07.07,0,0,1-.07-.07c-.2-.13-.46-.33-.2-.67s.47,0,.61.14a89.36,89.36,0,0,0,11.57,8.23c3.87,2.35,4.47,1.36,5.22,1.47a18.56,18.56,0,0,0,6.29,1.54c2.74.33,5.41.93,8.16,1a60.71,60.71,0,0,0,13-.87c.73-.13.87.07,1,.74.87,4.61,1.54,9.23,2.07,13.84.14.94-.13,1.27-1,1.54a64.37,64.37,0,0,0-10.24,4.35c-.39.21-1,.47-.73,1s.8.21,1.2.21a1.44,1.44,0,0,0,.74-.27c3.08-1.14,6.22-2.28,9.36-3.21,6.9-2,13.72-4.08,20.94-4.42a32.94,32.94,0,0,0,3.88-.13c1.48-.27,1.48.89,4.55,3.28a22.92,22.92,0,0,0,18.13,4.75,2.81,2.81,0,0,0,1.94-.87c-.2-.27-.46-.14-.6-.14-7,0-13.27.64-21.67-7.29a4.76,4.76,0,0,1-1.41-3.16,42.24,42.24,0,0,1,.68-15.77c.19-.79.22-1,.84-.83a12.82,12.82,0,0,0,4,.56c.27,0,.61.07.67-.27.48-1.18-4.3-1-7.89-3.41a21.83,21.83,0,0,1-8.3-10.3c-.2-.54-.06-.74.34-1.07,1.73-1.45,5-4.08,5.48-4.55a.53.53,0,0,0,.14-.67c-.2-.27-.4-.07-.6,0a12.66,12.66,0,0,0-1.68.87,82.63,82.63,0,0,1-7.56,5.62c-.78.62-1.23.76-1.67,1.2s-.87.6-1.34.94-.87.59-1.27.87a35.5,35.5,0,0,1-6.89,3.74c-2.1.74-3.27.56-4.62-1.47a15.11,15.11,0,0,1-2-5.82c-.46-2.27.36-4.16,1.27-6.69.28-.79.47-1.54.67-2.34.13-.4.06-.87.33-1.2,1.67-2.34,3.48-4.62,6.16-6a1.36,1.36,0,0,0,.53-.33c2.77-2,.62-6.88,2.21-12.45a4.34,4.34,0,0,1,3.55-3.27,23.9,23.9,0,0,1,4.41.13,3.66,3.66,0,0,0,2.07-.6.36.36,0,0,0,.21-.54c-.07-.26-.27-.26-.47-.2s-.47.4-.81,0a4.19,4.19,0,0,1,1.54-1.67,28.45,28.45,0,0,1,19.45-5.39c1.07.13,1.23.24,1,1.18a12.3,12.3,0,0,0,.21,5c.06.2.13.67.33.4.47-.4,1.4-.47,1.07-1.54,4.49,1.87,9.65,6.45,12.71,9.77,5.05,5.61,4.4,7.4,6.31,9.31-15.82,6.26-15,6.27-16.34,6.27-1.07-.06-1.48.47-1.61,1.41-.67,5.23-1.12,7-2.94,26.83a92.36,92.36,0,0,0-.74,11.37c.07,1.54,2.34,2.81,3.75,2.14a55.78,55.78,0,0,1,7-3c3.15-1.21,6.25-2.42,9.3-3.88a2,2,0,0,0,.8-.54.48.48,0,0,0,.07-.53c-.2-.67-.87-.35-1.34-.2-.2.06-9.83,3.94-14.38,5.88-.67.27-.87.27-.8-.53.72-6.48,1-13.41,2-22.88.54-4.88,1.14-9.83,1.68-14.72a1,1,0,0,1,.87-1c5.88-2.14,11.7-4.35,17.52-6.49C191.26,127.09,192,126.82,191.72,126ZM77.06,45.74a33.05,33.05,0,0,1-9.5,4.95c-1,.32-4,1.2-4.28,1.2a5.1,5.1,0,0,1-3-.26,2.36,2.36,0,0,1-.67-.41c-2.35-1.67-5-2.94-7.09-4.95a68.25,68.25,0,0,1-5.76-6.69,5.06,5.06,0,0,0,3-1.8c.4.8.8,1.54,1.13,2.27a16.67,16.67,0,0,0,12.58,8.83c2.68.47,5.55.07,7.56-2.34.74-.87,1.52-1.75,2.34-2.61.13-.13.2-.47.4-.27,1,.87,2.41.87,3.48,1.54.07.07.14.07.27.14l.07.06A2.73,2.73,0,0,0,77.06,45.74ZM113.52,55c.26-1.67.87-3.34.06-5.08-1.47-3.42-.06-6.56,1.14-9.64.2-.47.4-.6.94-.33a5.55,5.55,0,0,0,2.54.47c1.07.06,2.07-.47,3-.34a20,20,0,0,1,2.88,1.14,24.71,24.71,0,0,0,5.68.87,4.32,4.32,0,0,0-1.94,1.34c-.26.46-.4.93.07,1.33s.54.07.54-.2c-.2-.67.33-.87.8-1.07,2-.93,3.55-.2,4.68,2.14.27.54.4,1.53,1.14,1.21s.19-1.13,0-1.74A5,5,0,0,0,132.38,42c3.12-.83,4-1,6.83-3,.19-.14.33-.27.53-.4s.67-.6.47-1c-.51-.9-1.75.55-5.08,2.14a6.84,6.84,0,0,1-2.41.67,19.61,19.61,0,0,1-9.5-1,11,11,0,0,1-1.81-.8.23.23,0,0,0-.2-.07,1,1,0,0,0-1,.2c-.2.14-.47.27-.67.4a2.76,2.76,0,0,1-1.94.21c-.2-.07-.47-.13-.67-.21a8.32,8.32,0,0,1-5.08-7.82,3.46,3.46,0,0,1,.26-.94c.67.87,1.2,1.62,1.74,2.28.4.47.6,1.47,1.47,1.13s.34-1.2.27-1.87a6.82,6.82,0,0,1,.14-3.28c.33.67.53,1.14.8,1.61a.74.74,0,0,0,.73.47c.69,0,.64-.68.87-1.54A6.31,6.31,0,0,1,119.81,26c.4.4.33.87.46,1.34a10.75,10.75,0,0,0,1,2.81.79.79,0,0,0,.67.54c.33,0,.47-.27.6-.61.33-.67.67-1.27,1-2.07a8.42,8.42,0,0,0,3.08,3.55,2.64,2.64,0,0,0,1.41.53c.13,0,.4.07.4-.2,0-.45-.62-.58-2-2.16l0,0h.33a7.45,7.45,0,0,1,1.21-.2,34.72,34.72,0,0,1,9.5.33c3.61.47,6.75,1.74,8.43,5.29a1.75,1.75,0,0,0,1.27.87,4.44,4.44,0,0,1,3.48,3.48,20.41,20.41,0,0,1,.2,9c-.66,3.3-1.12,5.91-3.55,8.56-1.51,1.69-2.52,1.81-3.28,3-.39.53-.19.34-2.74-2.2,2.68-.87,3.55-1.61,4.15-3.62a9.15,9.15,0,0,0,.13-4.68c-.55-2.31-2.26-2.85-4.14-1.27-.33.28-.54.74-1.08.87,0-5.95.3-5.21.41-9.43,0-.34.06-.74-.34-.87s-.6.4-.67.73a44.9,44.9,0,0,0-.67,8.9c0,1.67,1,1.07.81,2a.47.47,0,0,0,.4.6c.75.15.54-.93,2.34-2.07.81-.52,1.2-.34,1.47.53a7.12,7.12,0,0,1,.2,3.75,3.42,3.42,0,0,1-3.08,3.08l-1.6.2c-.4.06-.8.2-.87.66s.2.67.6.74c.2.07.27.27.47.4,1.2,1,2.14,2.34,3.41,3.28a.6.6,0,0,1,.07,1A8.35,8.35,0,0,0,142.15,64c-.32.54-.6.6-1.14.27a6.9,6.9,0,0,0-5.35-1c-2.21.46-4.35,1-6.49,1.47a21.45,21.45,0,0,1-9.23-.34,9,9,0,0,1-4.82-3.68A7.2,7.2,0,0,1,113.52,55Zm18.19,10.44a12.25,12.25,0,0,1-1.07,1.74c-.46.53-1.2.33-1.8.33a4,4,0,0,1-2.48-1.14A36.71,36.71,0,0,0,131.71,65.41ZM110.77,84a2.76,2.76,0,0,1-.46-2.14c.06-.13.06-.26.13-.4,1.25-2.61.19-5.1-.27-7.22a2.15,2.15,0,0,1-.13-.6c-.4-1.68-.87-3.35-1.21-5a5.63,5.63,0,0,1,1.54-4.89,7.12,7.12,0,0,1,3.35-2.2.69.69,0,0,1,.87.33c2.21,3.52,5.82,4.48,9.63,4.55a1.61,1.61,0,0,1,1.41.74A4.41,4.41,0,0,0,129.71,69c.27,0,.67-.27.73.33,0,.41.06.73-.46,1-3,1.58-7,3.61-7.63,7a1.7,1.7,0,0,0,1.47,2.21,9.1,9.1,0,0,0,4.62-.67,8.27,8.27,0,0,0,1-.33,1,1,0,0,1-.27,1c-2.92,2.29-3.81,5.56-4.08,9-.07.94-.33,1.07-1.2.94-3.48-.74-7-1.47-10.51-2.14a.94.94,0,0,1-.93-.8C112.19,85.61,111.32,85.09,110.77,84ZM91.44,84c4,.88,23.4,4.78,32.71,6.69.34.07.74.07.87.54,0,.07.07.13.07.2.07.27,0,.4-.2.47h-.4c-6.22-1.21-27.1-5.35-31.38-6.16A1.81,1.81,0,0,1,91.44,84Zm33.72,17.93c.73,0,.8.2.8.94.14,5.22-1.94,10-2.74,15-.31,1.75-.84,3.64-1,4.26a2.2,2.2,0,0,0-.75-.12,20.14,20.14,0,0,0-2.68.2c0-.06-.06-.2,0-.2.4-.53,1-1,.67-1.74s-1.2-.46-1.8-.46a18.77,18.77,0,0,0-5.8,1.76s-16.76-4.08-24.56-6.16c-.47-.13-.64-.08-.82-.69-.45-1.54-.09-2.55,1.67-14.07a19.51,19.51,0,0,1,.14,2.23c.2,2.07,1.07,3,3.61,2.21a1.2,1.2,0,0,1,1,.07c2.47.7,3.51,1.55,3.75.6.19-.75-.71-.64-2.61-1.21-1.74-.47-1.74-.47-1.47-2.41,1.6.94,3.14,1.81,4.68,2.68a28.14,28.14,0,0,0,3.14,1.61c.74.33,1.68.73,2.35-.07a1.85,1.85,0,0,0-.2-2.41,1.91,1.91,0,0,1-.27-.47c2.14.54,4.21,1,6.29,1.54.2.07.4.07.6.14,1,.19.94-.94.2-.94-2.81-.47-5.42-1.47-8.3-1.74-.78-.13-1.22-.79-1.53-1s0-.41.13-.47c.4-.27.47-1,1.2-.81s1.21.26,1.74.34.81,0,.87-.47-.33-.6-.67-.67c-.6-.13-1.33.07-1.67-.4s0-1.07-.27-1.74c2.41.54,13,2.94,16,3.68.07,0,.14.07.2.07.47,0,1.14.33,1.27-.34s-.6-.73-1-.8c-1.34-.27-2.61-.47-4-.74-3.94-.87-7.89-1.8-11.9-2.6-1-.21-1.54-.47-1.48-1.48,0-.53.2-.73.74-.53.74.2,1.47.4,2.21.67.33.06.6.2.93.26s.94.21,1.07-.33-.4-.67-.8-.8l-2.54-.6c-2-.47-2-.47-3.41-2.21,2.34.53,11.57,2.61,14,3.21.61,0,1.27.33,1.47-.4s-.6-.68-1.14-.81c-18.39-4.16-14-2.21-19-5.08a2.49,2.49,0,0,1-1.2-1.94c10.64,2.14,21.21,4.21,31.84,6.36a7.2,7.2,0,0,0-2.87,4.54C120.88,100.06,122.42,101.87,125.16,101.93Zm8.16,4c0,.06-.07.06-.07.13-.73-.6-1.41-1.19-2.07-1.67s-.67-.74,0-1.2a39.1,39.1,0,0,1,3.95-2.35A18,18,0,0,1,133.32,106Zm2.07-1.07a7.11,7.11,0,0,1,.54,3.61,1.12,1.12,0,0,1-.94,1,.93.93,0,0,1-.47.07,1.29,1.29,0,0,1-.93-2.14C134.66,106.82,134.79,105.81,135.39,104.88Zm-7.29-1.07c-.67,0-.93-.27-.73-.94a2.09,2.09,0,0,1,1.67-1.81,6.73,6.73,0,0,1,3.34-.13C129.14,102.88,129.54,103.81,128.1,103.81Zm-.47,1.27c.47.07.79.13.61.8-1.63,6-3,12.11-4.22,18.2-.27,1.4-1,.6-1.87.47,1-.74,1.65-1.66.76-2.35.57-.64,1.14-3.08,3.92-16.52C127.09,104.81,127.17,105,127.63,105.08Zm-24.21,25.55c0,.41-.22.39-2.08,3.28a6.44,6.44,0,0,0-.67,1.14c-.6.94-1.13,1.94-1.74,2.94-.26.54-.54.62-1.07.4-2.56-1-5-2.14-7.56-3.21-.26-.13-.53-.2-.67-.4-.86-1.27-2.2-1.67-3.54-2.14a3.66,3.66,0,0,1-2.61-2.54,10.13,10.13,0,0,0-1.14-2.81,10.61,10.61,0,0,0-2.87-3.15c-.14-.06-.27-.2-.27-.53.67,0,1.4-.07,2.07-.07a16.64,16.64,0,0,0,2.61-.33,5.4,5.4,0,0,0,1.07-.27c.52-.13,1.54-.25,1.54-.94v-.2c-.07-.87-.94-.73-1.61-.87a8.2,8.2,0,0,1-1.07-.26c.47-.2.87-.41,1.34-.61A9.89,9.89,0,0,0,88,118.32c.2-.2.4,0,.54,0,6.29,1.94,19.33,5.49,19.53,5.56a15.47,15.47,0,0,0-3.34,3.61A5,5,0,0,0,103.42,130.63Zm-5.82,9.84a29.66,29.66,0,0,0-1.21,2.94c-.07.2,0,.4-.33.4-.71-.71-5-4.62-6.63-6-.6-.53-.46-.93-.2-1.47s.74-.13,1.07,0c2.35,1,4.62,2.07,6.89,3.15C97.73,139.67,97.92,139.86,97.6,140.47Zm-22.55-24c.59.34.67-.17,4.28-2.21.59-.43,1.52-.72.58.29a20.2,20.2,0,0,1-2.18,2.06c-.34.26-.81.53-.47,1.07s.8.2,1.14-.07a22.06,22.06,0,0,1,5.15-2.41A3.26,3.26,0,0,1,85,115c-3.76,3.17-4.82,2.9-4.42,3.81.27.6.81.34,1.27.27a40.89,40.89,0,0,1,4.62-1,10.61,10.61,0,0,1-3.41,1.74,11,11,0,0,1-1.41.46c-.33.14-.67.34-.6.81s.4.47.74.53c.8.14,1.6.27,2.67.4a23.15,23.15,0,0,1-4.14.67,7.19,7.19,0,0,1-5.42-1.2c-1-.67-2.2-1.16-3.28-1.74-.27-.14-.6-.27-.2-.67l3.54-4C74.85,115.65,74.52,116.18,75.05,116.45Zm13.78,1c-1.4-.34-2.74-.86-4.35-.33a2.19,2.19,0,0,1,2.75-1c7.76,2,15.58,3.94,23.41,5.88-.64.36-1.41.84-1.41.84C96.41,119.35,90.25,117.81,88.83,117.45Zm3.68-27.56c.27-.47.4-.67.94-.27a37.14,37.14,0,0,1,4.21,2.81c.87.81,1.54,1.54,1.14,2.88a2.35,2.35,0,0,0,.6,1.94,2.67,2.67,0,0,1-.67,3.41c-.33.2-.47-.13-.67-.2s-.73-.53-1.07,0,.07.81.4,1c1.94,1.37,3.65,2.38,4.42,3.41.13.2.34.4.13.6s-.33.15-8.83-4.28c-.46-.2-.93-.47-1.4-.07s-.34.8-.27,1.34c0,.13.07.27.07.4v.6c-.07.34.2.87-.34.94H91c-.6,0-1.2-.07-1.34-.8-.2-1.14-.2-2.28-.47-3.35A14.7,14.7,0,0,0,88,95.85C90.1,94.24,91.3,92,92.51,89.89Zm-5.08,6.56c1,2.25-.1,3.8-1.88,16.12a1.51,1.51,0,0,1-.46,1.07,1,1,0,0,1-.67.14c-.14,0-.2-.07-.34-.07C85.15,108,86.09,102.27,87.43,96.45Zm-6-4.15a12.31,12.31,0,0,0,4,2.74,1.2,1.2,0,0,1,.8,1.54c-.67,3.35-3,14.45-3.41,16.73a1.13,1.13,0,0,1-.47.87c-.24.24-1,.33-.69-.1a4.64,4.64,0,0,1,.42-.37c.34-.4.61-.8.34-1.27s-.8-.47-1.27-.34a13.53,13.53,0,0,0-3.81,1.68.26.26,0,0,0-.07-.21c-.07-.4.07-.87-.4-1.07a1.38,1.38,0,0,0-1.54.47,60.7,60.7,0,0,0-4.89,5.22c-.2.27-.26.6-.73.34-2.41-1.48-5-2.63-7.36-4.29-.54-.39-.47-.67-.2-1.2a3.86,3.86,0,0,1,3.48-2.54,19.59,19.59,0,0,0,6.69-2.28,7.68,7.68,0,0,0,4.15-7c.21-5.86-.42-6.2.6-6.43a1,1,0,0,0,.73-.73c.4-1.34,1.21-2.61,1.61-4.35A17.15,17.15,0,0,0,81.47,92.3ZM30.16,108.22c0,.7-.76.65-2.27,2.54-.14.21-.34.34-.47.54s-.4.47-.6.74a.62.62,0,0,1-.94.2,16.63,16.63,0,0,0-3.7-1.38c.27-2.5.6-5.29.89-8.73.07-.4-.07-.86.27-1.27,2.14,1,4.35,2.08,6.49,3.08a.7.7,0,0,1,.46.87C30.36,106,30,107.09,30.16,108.22Zm-8,3.29a15.44,15.44,0,0,1,1.76.59c.67.34,1.67.47,2,1s-.4,1.27-.54,2a19.18,19.18,0,0,0-.87,4.49c0,.73-.13,1.27-1.07.8-.06-.07-.2-.07-.26-.07-1.41-.27-1.44-.26-1.48-1.74A55.87,55.87,0,0,1,22.11,111.51Zm1.76-11.05a.85.85,0,0,1-.53-.93c.13-1,.26-2.08.33-3.08,0-.34.33-.93-.2-1s-.53.54-.53.94c-1.13,8.24-.44,2.67-1.21,10.84-1.47-.34-1.47-.4-1.27-1.94.74-5,1.61-9.84,2.48-14.79.06-.4.2-.73.33-1.27,2.34,1.34,4.55,2.61,6.82,3.88.61.34,1.61.47,1.81,1.14s-.19,1.34-.27,2c-.28,2.35-.87,4.68-1,7.22C28.22,102.4,26,101.39,23.87,100.46Zm-2.94,18.93c0,.41,0,.67-.54.61a3.73,3.73,0,0,0-.93.13,41.32,41.32,0,0,1,.68-12.52c1.07.07,1.52.28,1.39,1.42A66.19,66.19,0,0,0,20.93,119.39Zm-2.34,1a24.8,24.8,0,0,0-3.42-1.67c-.4-.14-.4-.47-.4-.81a37,37,0,0,1,.14-4.21c.26-1.67-.2-3.35-.14-5v-1.2a17.93,17.93,0,0,0,3.08,1.67c1.07.33,1.22.81,1,1.81C18.18,114.06,18.45,117.12,18.59,120.4Zm0-11.51A32.41,32.41,0,0,1,15.17,107c-.4-.27-.26-.54-.26-.87.13-4.64.31-6.43.3-6.33.23-2.88.2-2.38,4.65-.29.4.19.67.4.47.87l-1.21,8.22C19.06,109,18.85,109,18.59,108.89Zm-2-14.52c1-2.2,2.21-4.21,3.34-6.35.27-.47.47-.47.87-.27,1.68.87,1.68.87,1.34,2.74-.47,2.68-.93,5.29-1.4,7.9-.07.27,0,.53-.4.53-.14-.06-.27-.13-.47-.2C15.56,96.57,15.33,97.08,16.58,94.37ZM31,105c0-.33.2-.47.54-.27a25.47,25.47,0,0,1,3.34,1.88A6.88,6.88,0,0,0,31,108,15.1,15.1,0,0,1,31,105Zm.94-.87a1.27,1.27,0,0,1-.87-1.4c.2-2.61.8-5.15,1.2-7.76.14-.47.4-.6.87-.34,8.77,4.75,8.7,3.31,8.7,4.75-.4,2.61-.87,5.22-1.27,7.83-.07.53-.34.53-.67.47-.94-.14-1.94-.27-2.88-.47-.6-.2-.73-1-1.4-1.27C34.38,105.41,33.24,104.68,32,104.14Zm10-2.07a15.19,15.19,0,0,1,.8-4.08c.33,1.2.67,2.34,1,3.48s.74,1.74,1.94,1.67c1-.11.25.44-.4,3.88,0,.07-.07.2-.07.27-.06.4-.26.53-.67.53H42c-.67,0-.82-.2-.73-.8C41.49,105.34,41.73,103.74,41.94,102.07Zm2.67,7c.4-.07.47.2.4.46s-.2.81.34.87.67-.46.8-.87c.4-1.74.67-3.48,1.07-5.21.07-.27-.07-.74.47-.74s.6.13.67.53c.06.14.26.21.4.27a14.25,14.25,0,0,0,6,1.21.81.81,0,0,0,.4-.07c.4-.2,1.14-.07,1-.67s-.66-.2-1-.27a21,21,0,0,1-4.41-.93c4.53-.71,7,0,9.56.13,1.27.07,1.47-.2,1.34-1.47a4.08,4.08,0,0,1-.13-1.61c.8.47,1.13.54,1.54-.06a3.3,3.3,0,0,0,.26-.47,32.31,32.31,0,0,0,2.68-7c0-.13.07-.2.07-.27.13-.53-.27-1.27.26-1.6a.25.25,0,0,1,.2-.07,8,8,0,0,1,1.34-.13c1.88-.27,3.75-.54,5.62-.87.67-.14.87.13.94.73,0,.27.07.47.07.74.13,1.2.2,2.47.33,3.74.07.87.07,1.74.13,2.55s-.33.81-.87.67c-2-.56-2.61.06-2,2.34a5.71,5.71,0,0,0,1.8,3.41c.07.07.14.07.14.13.2.27-.07.4-.14.61a8,8,0,0,1-3.34,2.6,19.34,19.34,0,0,1-5.82,1.74,3.77,3.77,0,0,0-3.55,2.75c-.27.8-.6.93-1.2.26a12.42,12.42,0,0,0-.94-.87c-.27-.2-.6-.46-.87-.13s0,.54.2.8a21.79,21.79,0,0,0,4.35,4c-7.54,4.05-17.39,1.58-22.21-7.09C41.94,109.23,43.27,109.16,44.61,109ZM61.27,97.32c-1.14-1.41-1.07-2.88.13-3.82.27-.2.54-.4.81-.2s.06.47,0,.74A18.38,18.38,0,0,0,61.27,97.32ZM65,92.1a20.09,20.09,0,0,1-2.35,6.36C62.34,96.31,63.61,92.7,65,92.1Zm-.34-1.81c.34-1.07.67-2.07,1-3.21a10.43,10.43,0,0,0,3.55,2.21,1.85,1.85,0,0,0,.6.13C64.14,90.37,65.81,90.15,64.68,90.29Zm6.42-5.35c.61.2,1.2.35,1.74.54l.54.2a.63.63,0,0,1,.33.47A3.78,3.78,0,0,1,74,88.82a.5.5,0,0,1-.33.14c-.94.13-1.88.26-3,.4a2.05,2.05,0,0,0,1.07-1.74A7.53,7.53,0,0,0,71.1,84.94Zm3.75,16.26c-.07.47-.07.87-.13,1.34,0,.2-.07.4-.07.6s-.07.13-.13.27l-.07.06A8.45,8.45,0,0,1,73,100.06c-.06-.4,0-.48.4-.47C75,99.63,75,99.66,74.85,101.2Zm.74-10.57c-.08-.33-.07-.55.4-.6a6.86,6.86,0,0,1,2.14-.14,30.58,30.58,0,0,1-1.21,3.28.58.58,0,0,1-.53.4c-.4,0-.34-.4-.34-.6C75.85,92.17,75.77,91.44,75.59,90.63Zm3.61-5.82a15.78,15.78,0,0,1-.6,3.94c-.1,0-3,.15-3.12.15-.36-1.1-.1-1.54-.43-2.35-.13-.47,0-.67.47-.81,1.54-.53,1.81-1.27.87-2.67-.07-.14-.14-.2-.2-.34C78.26,82.06,79.2,82.67,79.2,84.81ZM39.11,78.38c2-7,7-10.23,13.46-11.23A28,28,0,0,1,69.63,70c4.56,2.35,7.15,1.59,11.24,3.34A2.45,2.45,0,0,1,82,74c-1.74.87-3.61.8-5.35,1a4.87,4.87,0,0,1-1,0,.65.65,0,0,0-.73.54c-.07.46.26.6.67.66,1.36.25,4.1.7,5,1.74a25.53,25.53,0,0,1-3.81.47c-1.54.14-3.14.3-4.68.34-.74,0-1,.53-1.14,1.07s.27.87.67,1.07c3.25,2.48,4.4,2.69,4.08,3.34-.13.34-.67.27-1,.27-1.68,0-3-.81-4.82-1.74-.34-.2-.74-.33-1.07.07-.56.83.87,1.07,1.74,3.68.13.4.27.93,0,1.2s-.87.13-1.34,0c-1.69-.63-3-2.34-3.68-2.34-.27,0-.53.07-.47.33.4,1-.4,1.61-.67,2.35-.4,1.33-.93,2.54-1.33,3.88-.14.33-.07.66-.61.53a2.26,2.26,0,0,0-2.41,1.34,2.71,2.71,0,0,0-.33.73,3,3,0,0,0,1.07,3.48c.94.61.94.87.13,1.68-.4.4-.26,1-.2,1.54,0,.72.17,1.41-1.2,1.13-3.68-.73-7.35-.38-11.11-.06-2.08.17-2.83-.17-3-.94-.6-2.81-1.67-5.42-2.47-8.16C41.33,89,40.4,85.09,39,80.86A3.9,3.9,0,0,1,39.11,78.38Zm-4.53,9.84a6.66,6.66,0,0,0,3.68,1.14c.59-.07,1.32-.07,1.59-.79v.05A13.82,13.82,0,0,1,41,92c1.24,4,1.58,4.78,1.07,5.29-.34.33-.87,0-1.27-.14-2.61-.93-5-2.34-7.56-3.54a.64.64,0,0,1-.4-.8c.26-1.41.53-2.81.87-4.22C33.84,88.09,34,88,34.58,88.22Zm-4.35-3.61A13.41,13.41,0,0,0,33,87.68c.64.48.12.71-.67,4.89-.14.67-.34.8-1,.47-2.4-1.41-4.88-2.68-7.29-4.15-3-1.92-3.87-1.6-3.21-2.74,1.3-2.24,2.68-4.42,4-6.63.2-.27-.27-.47-.47-.13-1.34,2.21-2.79,4.32-4.08,6.55-.35.6-.67.6-1.14.27-3.44-2.34-4.69-2.21-3.68-3.07.37-.38,1.07-1.28,1.07-1.28.1.5.05,1,.53,1.14s.81-.13,1.21-.33A11,11,0,0,0,21.66,79c.54-.81,1.07-1.54,1.74-2.48a7.13,7.13,0,0,0,.41,1.27c.13.34.53.61.8.47,1-.53,1.14.27,1.34.8C27,81.26,28.76,82.8,30.23,84.61ZM27.08,51.42c3,2.37,7.11,2.35,8.3,2.75-1.14,1.42-1,1.55-2,4a12.84,12.84,0,0,1-1.09,2.25,7,7,0,0,1-2.14,3,5.79,5.79,0,0,0-1.92,2.67c-.67-1.48-.33-2.81-.4-4.09-.2-6.22.54-7.55-.54-8.63C26.75,52.83,27.22,52.29,27.08,51.42ZM13.37,80.06a3.23,3.23,0,0,1,.4-1.94,16.93,16.93,0,0,1,3.34-5,5.69,5.69,0,0,0,1.48-5.56c-.07-.33-.2-.53.26-.6,2.35-.27,4.62-1.14,6.9-1.54.66-.13,1-.06,1.13.67.54,2.81.94,5.69-.06,8.5a3.77,3.77,0,0,1-.54,1A4.75,4.75,0,0,1,25,77a.48.48,0,0,1-.27.13c-.27.14-.33-.06-.4-.46a4,4,0,0,1,.47-2.21c.2-.4.39-.86-.07-1.14s-.87.13-1.14.54c-1.47,2.07-2.87,4.21-4.54,6.22A2.51,2.51,0,0,1,18,81a13.48,13.48,0,0,1,1.41-3.34c.2-.4.53-.87,0-1.21s-.87.21-1.14.61a51.83,51.83,0,0,1-3.48,5,16.37,16.37,0,0,1,1.81-4.68c.2-.33.33-.67-.07-.94s-.74,0-1,.34A24.55,24.55,0,0,0,13.37,80.06ZM10.22,93.17c1.41-2.88,2.75-5.69,4.09-8.56.13-.27.33-.54.66-.27a54.24,54.24,0,0,0,4.62,2.88,3.5,3.5,0,0,1-.33.53,51.15,51.15,0,0,0-4,8.16c-.19.54-.34.47-.67.27C10.28,93.69,10,93.87,10.22,93.17Zm-2.82,7c.67-2.07,1.42-3.75,2.22-5.69.14-.34.34-.34.6-.14,1.41.87,2.88,1.68,4.29,2.48a.73.73,0,0,1,.4.8c-.6,2.68-.4,5.42-.6,8.16a2.39,2.39,0,0,1-.07.67c-2.34-1.13-4.75-2-6.76-3.54C6.75,102.4,7.06,101.07,7.4,100.2ZM8,114.31c-.21-3.48-.47-7-.74-10.77A43.12,43.12,0,0,0,13.7,107a.81.81,0,0,1,.47.87c.2,3.21.07,6.42,0,9.7,0,.74-.2.74-.8.47a22,22,0,0,0-3.48-1.27A2.39,2.39,0,0,1,8,114.31Zm5.15,17.93c-.66-2.61-.94-5.35-1.6-7.89a60.94,60.94,0,0,1-1.28-6.43c2.08.94,4.09,1.74,6,2.75,1.33.66,2.55,1.3,4.21.6,1.21-.51,2.53.29,3.75.8.33.14.2.54.26.8.05.76.34,3.68.34,4.15.53,6.62.38,5.39.87,8.16-1.21-.46-2.27-.82-3.28-1.27a8.31,8.31,0,0,0-3.88-.73c-1.34.06-2.68,0-4,.06C13.64,133.31,13.3,133,13.1,132.24Zm21.07,51a14.21,14.21,0,0,1-3.07-4.14c1,.26,1.8.53,2.54.73.27.07.33.27.33.54C34,181.28,34.11,182.15,34.17,183.28Zm5.09-13.17c0-.47,0-.74.67-.61,1.2.27,2.34.4,3.54.67a1,1,0,0,0,1.41-1c.2-1.47.36-2.94.6-4.35a1.29,1.29,0,0,0-1-1.67c-13.48-4.64-12.78-4.48-13-4.48-1.74-.21-1.6-.67-1.6,1.6.13,1.81.33,3.88.46,5.95.13,1.33.88,1.28,1.54,1.61,1.27.27,1.68,1,1.68,2.34,0,2.41.2,4.89.4,7.29.06.61-.07.81-.74.61l-16.06-4.62c-.46-.13-.66-.33-.66-.8-1-15.11-1.69-28.73-2.75-36a2.24,2.24,0,0,1,.2-1.13c.14-.54.54-.14.81,0,1.86.71,46.1,18.48,46.22,18.53a2.42,2.42,0,0,0,1.68.07c4-1.07,4.13-1.18,4.55-1.07s.73-.21.87.26-.41.4-.67.54c-1.14.33-2.28.73-3.42,1-.66.2-.85.47-.86,1.21-.21,9.84-1.14,19.59-1.34,29.43,0,.8-.34.75-.87.6-6.73-1.81-13.43-3.72-20-5.75-.6-.19-.87-.47-.87-1.07A89.93,89.93,0,0,1,39.26,170.11Zm42.48-16c1.47,1.47,3.42,2.67,3.61,5.21a53.68,53.68,0,0,0,1.41,8.57c.06.4,0,.6-.4.73-3,.81-6.09,1.61-9.1,2.34-.14.07-.27,0-.47,0a1.57,1.57,0,0,1,.47-.93c1.54-2.54,3.1-5.11,4.61-7.63.33-.54,1-1.35.2-1.8s-1.14.52-1.47,1.07c-5.95,9.92-5.29,9.76-5.75,9.76-2.88-7.56-3.55-15.58-4.68-23.55,1.07.42,1.53,1,7.09,5a6.63,6.63,0,0,0,2.27,1.08c.07,0,.27,0,.27.06.54,1.21,1.07.94,1.67.07C81.47,154.05,81.67,154.05,81.74,154.12Zm-1.2-1.61c-.46,1-.7.44-2.35-.74-.4-.34-2.32-1.74-2.94-2.27-1.91-1.64-3.34-2.41-3.68-2.74a54.49,54.49,0,0,0-6-3.41c-.47-.27-1-.55-1.27.06a.7.7,0,0,0-.07.34c0,.46.6.8,1,1.07,1.07.67,2.2,1.33,3.27,1.94a1.46,1.46,0,0,1,.87,1.4c0,1,.2,3.12.2,3.68a72.7,72.7,0,0,0,3.22,17.8c.6,1.81.89,3.42,2.74,4.28,1.14.53,1.27,1.6.27,2.47-5.49,5-6.92,10-12.31,15.26a2.83,2.83,0,0,1-2.34.87,34.46,34.46,0,0,1-9.64-2.21,24.1,24.1,0,0,0-6.82-1.94c-1.54-.13-2.74-1.14-4.22-1.47-.33-.07-.26-.34-.26-.61a15.48,15.48,0,0,1-.07-1.8c0-.54-.07-1.07-.07-1.61a2.59,2.59,0,0,0-.07-.73c0-.87.54-.4.81-.34.1,0,4.92,1.38,6,1.74,1.26.42,10.74,3,14.25,4.08a2.09,2.09,0,0,0,2.27-.33,13.68,13.68,0,0,1,3.41-1.74,1.77,1.77,0,0,0,1.14-1.81c.12-7.13,1.24-27.29,1.34-29.37a3,3,0,0,0-2.14-2.87c-1.61-.61-32.74-13-39.14-15.52a1.23,1.23,0,0,1-.87-1.07c-.26-2.28-.6-4.55-.8-6.83,0-.11-.55-6-.6-7.36a11.7,11.7,0,0,1,2.61-8.43c.33-.33.67-.73,1-1.07A11.9,11.9,0,0,1,31,109.9c.67-.47,1.33-1,2-1.34a3.8,3.8,0,0,1,3.74-.14c1.94,0,2.88,1.27,3.88,2.81a17.61,17.61,0,0,0,19,7.36,8.94,8.94,0,0,0,4-1.6.61.61,0,0,1,.87,0c7,3.72,8.35,4,12.44,6a9.11,9.11,0,0,1,5.29,6.29c0,.13.07.2.07.26a5.28,5.28,0,0,0,5,4.49c2,.33,1.87.26,1,2-1.14,2.28-2.07,4.69-3.14,7C83.35,146.36,81.93,149.43,80.54,152.51Zm18.59,8.7a1.79,1.79,0,0,1-.73.13A6.58,6.58,0,0,1,96,160.4c-4.21-2.6-8.43-5.21-12.44-8.09-.74-.54-.94-.94-.47-1.87,1.8-3.68,3.34-7.43,4.88-11.24.14-.27.2-.47.34-.74.4,0,.53.34.73.54,2.81,2.74,8.43,8.29,8.43,8.29.34.27.4,1.21,1.14.6s0-1-.2-1.47a1,1,0,0,0-.34-.4c-1.4-.94-1.11-2-.4-3.28,5.72-10.34,8.26-11.89,7.29-12.51-.81-.51-.26-.93,0-1.34a19.44,19.44,0,0,1,7.43-6.15c.28,0,3-1.7,5.82-2,.2,0,.4-.06.6-.06-.13.13-.33.26-.47.4a13.51,13.51,0,0,1-3.94,2.14c-.47.2-1.41.2-1.21.93s1,.22,1.54.07c1.83-.49,5.41-1.41,7.29-1.14a7.55,7.55,0,0,1-3.74,1.41c-1.87.23-2.41.13-2.41.87,0,.53.47.59.87.53a21.33,21.33,0,0,1,4.88-.26c-1.46.78-2.71.6-4.55.8-.33,0-.8.07-.8.6s.47.54.87.54a24.5,24.5,0,0,1,3.81.33c.2.07.41.07.54.34a6.77,6.77,0,0,1-3.55,1.07,7.13,7.13,0,0,1-1.6,0,1.63,1.63,0,0,0-1.54.8,18.61,18.61,0,0,1-5,5,6.77,6.77,0,0,0-2.47,3.41c-2.93,6.49-3,14-5.22,20.07C101.68,159.94,100.47,160.61,99.13,161.21Zm20.94-31c-2,2.2-9.53,10.46-11.57,12.57-.33.34-.53.61-1.07.34s-.2-.67-.13-.94c.4-1.74,1.47-3.28,2.07-4.95a2.51,2.51,0,0,1,1.2-1.14,16.71,16.71,0,0,0,5.49-5.15c.2-.27.33-.53.67-.47A21.43,21.43,0,0,0,120.07,130.17Zm13.05,48.9c-.67.2-.8,0-.87-.6-.33-3.55-.87-7-1.47-10.51a16.23,16.23,0,0,0-.94-3.54c-.2-.47-.07-.67.4-.74l1.68-.4c1.6-.4,1.28-.43,1.68,1.18a81.23,81.23,0,0,1,1.76,10.72c.07.87.27,1.74.4,2.68S135.39,178.31,133.12,179.07Zm5.22-1.47c-1.81.47-1.52.38-1.72-1.43-.53-4.35-.93-8.82-2.22-13-.23-.73.26-.61,2.67-1.35.33-.07.46,0,.53.33.76,6.13,2.28,14.76,2.28,14.66C140,177.45,139.18,177.26,138.34,177.6Zm13.78-21.28a3,3,0,0,1,2.23.8,1.39,1.39,0,0,1-.06.91c-2.45,7.75-1.07,17.23-1,17.69-3.45.24-5.48-.27-10.77.94-.54.12-.73.14-.87-.53-.87-4.82-1.93-9.55-2.74-14.32-.08-.47.13-.68.54-.8A95.13,95.13,0,0,0,152.12,156.32Zm-27.23-23.41a15.13,15.13,0,0,0-1.27,2.34c-.08.32-.41.73-.2.94s.27.4-.07.46h-.13c-.55,0-.22-.89-.4-2a6.44,6.44,0,0,1,.26-2.21c.14-.47.41-.87.94-.87s1.07-.13,1.34.2a.25.25,0,0,1,.07.2C125.52,132.45,124.89,132.71,124.89,132.91ZM142,110.63a16.19,16.19,0,0,0-3.08-.2c-3.68.07-5.35,2.74-5.75,5.69a55.48,55.48,0,0,0-.4,6.69c0,1.94-.47,3.48-2.48,4.35a10.46,10.46,0,0,0-3.48,3.14c-.33.4-.52.65-1.13.27a2.47,2.47,0,0,0-3.88,1.67c-.13.54-.41.94-1,.94a1.54,1.54,0,0,0-.73.33,3.19,3.19,0,0,0-1.14,2.14c-.06.54,0,.87,0,1.94,0,.07-.07.2-.27.27a1.33,1.33,0,0,0-.47.33,3.17,3.17,0,0,0,.14,4.69,5.51,5.51,0,0,0,2.94,1.13c.6.06.8.2.87.81a18.22,18.22,0,0,0,1.27,4.61c1.81,4.08,4.35,5,8.36,3.21,6.42-3,10.91-7.23,12-7.73,2.86,5.53,3.78,6.52,5,7.8.73.8.47,1-.27,1.34a91.07,91.07,0,0,1-14.32,5,76.35,76.35,0,0,1-18.6,2.54,69.07,69.07,0,0,1-12.24-1.27c-.33-.07-.8-.07-.47-.67,1.41-2.68,1.81-5.62,2.41-8.56.47-2.08.94-4.09,1.34-6.16.13-.6.26-.85.87-.47s1.14,0,1.54-.47c4.15-4.68,8.29-9.43,12.51-14.11a19.49,19.49,0,0,0,3.28-4.35c.71-1.5.74-2,4.55-20.14.06-.2-.07-.53.2-.6s.4.2.53.34c.4.33.74.73,1.14,1a2.43,2.43,0,0,1,1.2,2.41c-.13.93.61,1.52,1.41,1.87a2,2,0,0,0,2.47-.33,1.63,1.63,0,0,1,1.88-.47,12.89,12.89,0,0,0,4.08.33c.31,0,.4,0,.4.34C142.49,110.83,142.22,110.7,142,110.63Zm-20,32.65a14.12,14.12,0,0,1-2.81-1.27,2,2,0,0,1-.47-2.81c.33-.47.67-.47.94,0a8.44,8.44,0,0,0,2,2.54C122.08,142.14,121.68,142.68,122,143.28Zm-1.88-7.56a1.74,1.74,0,0,1,.34-.8c.2-.41.6-.81,1-.67s.2.67.2,1c0,3.69,1.39,3.68.4,5.49C121,139.06,119.74,137.73,120.07,135.72Zm40.68-33.52c-.18.45.13-.27-5.15.74a25.63,25.63,0,0,0-11.91,5.55,1,1,0,0,1-.6.27,22.08,22.08,0,0,1-5.15-.4c-.54-.14-.87-.34-.81-1a5.67,5.67,0,0,0-1-3.88,1.17,1.17,0,0,1-.07-.93c.2-.87.47-1.74.61-2.61s-.41-1.21-1.21-.87c-.13.06-.27.2-.4.26-2.85,1.9-2.16-1-6.62.87a6.28,6.28,0,0,1-3.62.34c-2.51-.37-3-3.45-.46-6A1.49,1.49,0,0,1,126,94a.83.83,0,0,0,1.07-.27c.21-.33.07-.67-.07-1.07-1.67-3.41-.8-8.76,1.81-11.91.13-.13.2-.26.33-.4a3.54,3.54,0,0,0,4.48,1.47,9.34,9.34,0,0,0,3.08-2.07c.27-.2.47-.6.94-.67a9.73,9.73,0,0,0,.07,2.48,2.88,2.88,0,0,0,3.07,2.81c.67,0,.62.27.54.73a6.46,6.46,0,0,0,0,3.15,2.9,2.9,0,0,0,4.21,2,13.91,13.91,0,0,0,3.28-2.07,15.53,15.53,0,0,1,.34,1.81c-.81.6-1.61,1.67-2.41,1.67a7.51,7.51,0,0,0-4.49,1.4l-.06.07a7.11,7.11,0,0,0-2.41,7.63c1.54,4.55,7.48,5.6,10.84,1.8.41-.46.6-.6,1.13-.2,1.14.87,2.28.81,3.62-.13a2.69,2.69,0,0,1,.27-.2,14.72,14.72,0,0,0,3.07-3.61,8.46,8.46,0,0,0,1.74,2.47A1.51,1.51,0,0,1,160.75,102.2Zm-14.05.34a3.57,3.57,0,0,1-4.28-1.61,3.77,3.77,0,0,1-.14-3.48A6.35,6.35,0,0,1,145.56,94c-.33,2.75.07,4.49,1.27,5.49a6.38,6.38,0,0,0,2.88,1.07A5,5,0,0,1,146.7,102.54Zm3.88-1.68c-.27,1.68-3,3.35-5.08,3.21a5,5,0,0,1-4.89-4.88,6.34,6.34,0,0,1,5.76-6.62c-.07.67-.67.6-1,.67a6.26,6.26,0,0,0-4.15,5.48,4.45,4.45,0,0,0,5.89,4.42A7.47,7.47,0,0,0,150.58,100.86Zm10.1-1.6a5.75,5.75,0,0,1-.87-2.14c-.13-.47-.13-1.07-.8-1.07s-.74.4-1,.87a12.63,12.63,0,0,1-3.21,4.21,1.84,1.84,0,0,1-3-.53,1.12,1.12,0,0,1-.2-1c.27-.67-.13-.87-.73-.8a1,1,0,0,0-.47.13.24.24,0,0,0-.2.07,2.87,2.87,0,0,1-3.48-3.55A6,6,0,0,1,149,92a1.41,1.41,0,0,1,1.67-.2,2.24,2.24,0,0,0,1.74.06A7.79,7.79,0,0,0,156.57,88c.3-.59-.32-.43-.55-.25-.61.48-1.21.92-1.83,1.32-1.2.77-2.12,1.79-3.14,1.14a1.9,1.9,0,0,1-.6-2.08c.06-.33.2-.73.26-1.07s.41-1-.13-1.34c-.71-.44-.88.28-4.08,2.68a9.33,9.33,0,0,1-1.47.87A1.58,1.58,0,0,1,142.55,88c-.58-4.23,1.78-5.15,2-5.62a.74.74,0,0,0-.94-1.14,3.09,3.09,0,0,0-1.13,1.14,2.18,2.18,0,0,1-2.21,1.07c-1-.2-1.27-1.07-1.34-1.94a9.67,9.67,0,0,1,.6-4.75c.2-.47.34-.94-.2-1.2s-.87.13-1.07.6a13.11,13.11,0,0,1-4,4.21c-.13.07-.26.2-.4.27-1.27.67-2.61.67-3.14,0s-.22-2.09.67-3c.33-.34.53-.67.2-1.07s-.8-.26-1.21,0A13.53,13.53,0,0,1,125,78.52c-.53.07-1.13.13-1.47-.34s0-1,.27-1.4a9.85,9.85,0,0,1,6.36-4.55c.33-.07.73-.2,1.07-.27,1.27-.47,1.27-.47.6-1.74a2.06,2.06,0,0,1,.07-2,5.63,5.63,0,0,1,8.22-2.61,5.34,5.34,0,0,0,.81.53c1.27.94,1.33.81,2.07-.53a8.5,8.5,0,0,1,6.36-4.42c5.16-.74,8,.72,9.5,6.69a12.64,12.64,0,0,1,.2,1.61c.08.87.52,1.19,1.33.73,4.76-2.64,10.66,1.2,10.84,6.89a11.68,11.68,0,0,1-2.14,7.56,1.17,1.17,0,0,0-.33,1.21c.39.93,2.08.27,3.81.67a3.61,3.61,0,0,1,2.94,3.74,6.5,6.5,0,0,1-4.81,5.76A2.16,2.16,0,0,1,168,94.78c-.2-.47-.4-1-1.07-.81s-.47.81-.4,1.27a5,5,0,0,1-3.08,5.29A3.13,3.13,0,0,1,160.68,99.26Z" style="fill: #471280"></path>
      <path d="M48.62,13.83c.41.13.41-.27.54-.47,1.52-2.14,2.88-5.12,8.5-6.83,1.84-.56,4-.8,5.62,0h.06c4,1.68,8.16,2.88,10.84,6.69.2.27.6.41.74.81a.35.35,0,0,0,.53.2c.8-.4,1.41.06,2.08.4,3.68,2,5.68,7.76,4.08,11.64-.61,1.4-1.48,1.54-2.55.54A9.6,9.6,0,0,1,77.66,25c-.54-1-1-1.94-1.47-2.94-.2-.41-.4-.87-.94-.74s-.47.74-.4,1.2a16.49,16.49,0,0,1,.27,1.81,8,8,0,0,1-1.27,5.35c-.87,1.14-1.48,1.07-2.14-.13a7.38,7.38,0,0,1-.87-2.34A21.88,21.88,0,0,1,70.43,23a.81.81,0,0,0-.66-.87c-.41-.06-.67.2-.81.6A11.46,11.46,0,0,1,64.81,28a1.43,1.43,0,0,1-1.53.2c-.54-.33-.47-.94-.41-1.47a21.74,21.74,0,0,1,.47-2.14c.5-2,1.38-2.83.47-3.28a.59.59,0,0,0-.87.4,7.65,7.65,0,0,0-.33.74,12.42,12.42,0,0,1-4.75,5.08c-.34.2-.74.54-1.07.27s-.34-.8-.34-1.21c.38-3,1.17-4,.27-4.28a.52.52,0,0,0-.67.4c-.6,1.61-1.34,3.22-.94,5a2,2,0,0,0,.61,1.14,1.79,1.79,0,0,0,1.87.2,8.64,8.64,0,0,0,3.34-2.27c.14-.21.27-.34.54-.27v.93c0,.2.07.41.07.61a2.08,2.08,0,0,0,2.87,1.6c1.88-.43,3.63-2.85,4.69-4.35,0-.21,0,0,.4,2.34a9.36,9.36,0,0,0,1.13,2.75c1.14,1.74,2.68,1.87,4,.2a9.06,9.06,0,0,0,1.74-5v-.07a14.27,14.27,0,0,0,1.94,2.41c1.67,1.47,3.54,1,4.35-1.07a10.85,10.85,0,0,0-3.62-12.44,4.72,4.72,0,0,0-2.94-1.14A1.19,1.19,0,0,1,75,12.56a9.52,9.52,0,0,0-4.81-4.49l-5-2.2a10.38,10.38,0,0,0-7-.61c-3.54.94-6.69,2.48-8.9,5.56A5.84,5.84,0,0,0,48.16,13C48.29,13.29,48.29,13.69,48.62,13.83Z" style="fill: #471280"></path>
      <path d="M193.06,147.89a2.19,2.19,0,0,0-.67.07c-2.74.74-5.42,1.81-8.09,2.81a1.66,1.66,0,0,0-1.21,1.47c0,3.44-.8,5.71,1.41,5,1.2-.33,2.34-.74,3.68-1.2-.14,1.07-3.55,26.49-3.75,27.83-.07.47,0,.93.54,1.07s.67-.34.8-.74c.5-1,2.26-15.53,2.41-16.86.47-3.88.93-7.69,1.07-11.57,0-1.21-.4-1.47-1.54-1.14-4.08,1.26-3,1.75-3.28-1.94,0-.47.2-.6.6-.74,3.43-1.05,7.72-2.54,8-2.54a3.65,3.65,0,0,0,.54-.2A.74.74,0,0,0,193.06,147.89Z" style="fill: #471280"></path>
      <path d="M108.77,180.88c-.35-.6-.94-.34-1.41-.07-.2.13-.47.27-.67.4-6.15,3.95-12.31,7.83-18.59,11.44a2.66,2.66,0,0,0-.74.54c-.13.13-.27.33-.13.53s.26.27.6.27c3.42-1.14,19-11,20.4-11.91C108.7,181.81,109.09,181.42,108.77,180.88Z" style="fill: #471280"></path>
      <path d="M119.61,57.24a1.53,1.53,0,0,1,1.67.27,2.44,2.44,0,0,0,3.34-.06c.2-.27.34-.54.2-.81s-.53-.2-.8-.06a2.16,2.16,0,0,1-2.47-.54,1.14,1.14,0,0,0-1.48-.27,4.28,4.28,0,0,1-1.33.4.75.75,0,0,1-.94-.66c-.2-1.48,1.67-4.09,3.14-4.29.27-.06.61.14.61-.33s-.34-.4-.61-.4a2.65,2.65,0,0,0-1,.13,6.4,6.4,0,0,0-3.41,4.89C116.66,56.91,117.86,57.77,119.61,57.24Z" style="fill: #471280"></path>
      <path d="M65.35,47a2.34,2.34,0,0,0,2.34-.34,14.21,14.21,0,0,0,2.28-3c.26-.4.46-1.07-.27-1.33A9.71,9.71,0,0,0,64,41.92C61.58,42.53,63.22,46.22,65.35,47ZM65,42.73a9.83,9.83,0,0,1,4.15.47c-.67.93-1.34,1.74-2,2.6-.47.54-1,.41-1.54.21a3.24,3.24,0,0,1-1.67-2.15C63.68,43,64.35,42.79,65,42.73Z" style="fill: #471280"></path>
      <path d="M72.37,40.12a4.56,4.56,0,0,0,.27-1.34,8.22,8.22,0,0,0-.13-2.21,10.26,10.26,0,0,0-.6-1.74c-.14-.26-.41-.53-.74-.33-.7.35.33.89.33,3.34v.61c-.06.46.21,1.13-.33,1.4s-.87-.4-1.2-.74c-.54-.53-1-.6-1.41.14-.13.27-.27.47-.6.4a.72.72,0,0,1-.54-.54c-.13-.4-.4-.8.07-1.2s.07-.4-.2-.47a.89.89,0,0,0-.87.34,2.07,2.07,0,0,0,.33,2.47,1.45,1.45,0,0,0,2.08.27c.53-.54.8-.27,1.2.07C71,41.26,72.11,41.06,72.37,40.12Z" style="fill: #471280"></path>
      <path d="M123.75,63.67c1.54-.2,2.55-1.61,3.55-3,.27-.34.47-.87,0-1.14-.77-.44-1.08.61-2.54,2.07-1,1-1.61,1.07-2.88.4-2.24-1.2-2.17-2.73-2.94-2.27S120.54,63.67,123.75,63.67Z" style="fill: #471280"></path>
      <path d="M65,31.29a4.66,4.66,0,0,0-2.88-1H61.6c-.73.14-1.47.41-1.6,1.28s.53,1.13,1.14,1.47a3.1,3.1,0,0,0,3.67-.27C65.48,32.22,65.68,31.83,65,31.29Z" style="fill: #471280"></path>
      <path d="M109.94,177.19c-.82-.82-1.81-.9-3.36-.4a21.94,21.94,0,0,0-4.17,2.08c-5.35,2.85-10.83,5.35-16.12,7.83a.9.9,0,0,1-.93-.07,23.81,23.81,0,0,0-11.78-2.49c-.19,0-.62,0-.62.55a.16.16,0,0,0,.16.15A21.82,21.82,0,0,1,85,187.32a.94.94,0,0,1-.88.17c-3.58-1.28-7.13-1.21-10.89-1.14a3.67,3.67,0,0,0-2.23.56.15.15,0,0,0,.1.27c4.21-.26,8.33-.39,12.36.92-.54.51-1.41.69-1.8,1.47a.14.14,0,0,0,.06.2.77.77,0,0,0,.75,0c.91-.52,1.81-1.14,2.73-1.6,5.64-2.46,11.06-5.4,16.6-8.17a22.6,22.6,0,0,1,5-2.46c2-.49,1.69-.8,3.27.9a1.39,1.39,0,0,1,.08,1.11,10.68,10.68,0,0,1-2.5,5.41c-2,2.66-.88,1.51-3.24,5.22a23,23,0,0,0-2.12,3.79,1.05,1.05,0,0,0-.15,1,.15.15,0,0,0,.22.07,3.46,3.46,0,0,0,1-1.52,59.8,59.8,0,0,1,5.81-9.35,6.06,6.06,0,0,0,1.37-3C110.75,180.09,111.72,179,109.94,177.19Z" style="fill: #471280"></path>
      <path d="M51.64,25.13c-1.67-3.33-1.9-6.2-.74-9a.15.15,0,0,0-.2-.19c-2.24,1-3.5,3.56-3.3,6.64a5.54,5.54,0,0,0,1.87,4.18.15.15,0,0,0,.24-.15c-.27-1-.81-1.9-1-2.87a8.44,8.44,0,0,1,0-3.09c.32-1.52.43-1.94.79-2.36A9.23,9.23,0,0,0,50,23.78a9.6,9.6,0,0,0,3.4,4.82.15.15,0,0,0,.21-.2C52.91,27.35,52.23,26.26,51.64,25.13Z" style="fill: #471280"></path>
      <path d="M147.26,112.56a.15.15,0,0,0-.1.28c4.48,2.55,7.66,6.12,10.65,11.91a.13.13,0,0,0,.13.08h0a.14.14,0,0,0,.12-.11C158.83,121.88,150.79,113.16,147.26,112.56Z" style="fill: #471280"></path>
      <path d="M131,46.94a.76.76,0,0,0-.8.47,5.16,5.16,0,0,0-.07,3.88c.13.34.33.6.73.54a.85.85,0,0,0,.74-.61,6.39,6.39,0,0,0,.14-3.68A.74.74,0,0,0,131,46.94Z" style="fill: #471280"></path>
      <path d="M116.86,42.13a2.9,2.9,0,0,1,2.68.73c.13.07.2.34.4.2s.13-.33.07-.53a2.86,2.86,0,0,0-2.68-1.61c-2,0-3.53,2.48-2.14,2.94.2.07.54.14.4-.33C115.39,42.59,116.2,42.34,116.86,42.13Z" style="fill: #471280"></path>
      <path d="M117.8,49.89c.47,0,.67-.41.67-.87a4.79,4.79,0,0,0-.34-2.61c-.13-.4-.33-.67-.8-.6a.72.72,0,0,0-.67.73,7.26,7.26,0,0,0,.2,2.68A.89.89,0,0,0,117.8,49.89Z" style="fill: #471280"></path>
      <path d="M75.25,32.36a3.13,3.13,0,0,0-1.94,1.34c-.27.46-.27.87.2,1.13.67.34,1.27-.06,1.87-.33a1.17,1.17,0,0,0,.74-1.21C76.12,32.69,75.92,32.17,75.25,32.36Z" style="fill: #471280"></path>
      <path d="M48.29,34c.27.47.67.13.94-.07.73-.46,1.33-.73,1.87.2a.37.37,0,0,0,.6.14c.2-.2.14-.34,0-.54-.61-1.22-1.49-2.67-2.74-2.67-.27,0-.47.06-.54.33s.2.34.34.4a1.73,1.73,0,0,1,1.14,1c-.34.13-.74.2-1.07.33S48,33.5,48.29,34Z" style="fill: #471280"></path>
      <path d="M90.5,106.88c.74.27,1.54.47,2.28.67,5.49,1.21,11,2.48,16.46,3.68.6.14,1.47.54,1.67-.2s-.87-.67-1.41-.8L99.27,108c-2.88-.67-5.82-1.14-8.63-1.94-.4,0-.87-.13-1,.27S90.17,106.82,90.5,106.88Z" style="fill: #471280"></path>
      <path d="M90.17,109.43a44.81,44.81,0,0,0,6,1.74c1.87.46,3.81.93,5.55,1.33.61.07.94-.06,1-.46s-.27-.61-.61-.67c-1.13-.27-2.27-.47-3.41-.74-2.67-.67-5.42-1.34-8.16-2-.4-.06-.94-.33-1.14.2S89.84,109.29,90.17,109.43Z" style="fill: #471280"></path>
      <path d="M118.87,98.12c.14-.46-.27-.67-.6-.74-.94-.2-1.88-.33-2.81-.53L107.36,95c-.4-.06-.93-.4-1.13.2s.53.54.86.61c1.34.33,2.68.73,4.09,1,2.27.47,4.55,1.27,7,1.61C118.33,98.39,118.74,98.52,118.87,98.12Z" style="fill: #471280"></path>
      <path d="M103,115.72c.41.06.87,0,.94-.47s-.33-.61-.67-.67c-1.54-.42-5.61-1.38-8.36-1.81-.27,0-.6,0-.67.34-.07.53.4.67.8.73C97.66,114.51,100.34,115.11,103,115.72Z" style="fill: #471280"></path>
      <path d="M111.51,116.45c-1.8-.41-3.48-1-5.22-1.27-.4,0-.73-.07-.8.33s.27.54.54.61c2.8.8,5.61,1.54,8.42,2.34.41.07.87.2,1-.34s-.27-.6-.67-.73C113.72,117.05,112.65,116.71,111.51,116.45Z" style="fill: #471280"></path>
      <path d="M98.06,115.78c-8.12-1.54-8.94-2.47-9.23-1.74-.2.4.2.54.47.67,2.88,1,5.89,1.54,8.7,2.28.4.06.8,0,.8-.47S98.46,115.86,98.06,115.78Z" style="fill: #471280"></path>
      <path d="M114.86,102.94a.6.6,0,0,0-.41-.67,2.93,2.93,0,0,0-.73-.27c-2.74-.47-5.35-1.2-8-1.81-.27-.06-.67-.2-.74.21s.27.53.54.6a82.11,82.11,0,0,0,8.7,2.34C114.45,103.34,114.78,103.34,114.86,102.94Z" style="fill: #471280"></path>
      <path d="M116.53,103.61c1.86.57,3.81,1,5.68,1.47,1,.16,1.21-1.1.34-1.27-1.87-.4-3.68-.81-5.35-1.14-.54,0-.94,0-1,.4S116.33,103.54,116.53,103.61Z" style="fill: #471280"></path>
      <path d="M105.62,117.66c-1.47-.32-3-.61-4.21-.87-.54-.07-.87-.07-.94.26s.2.54.47.67c1.41.47,2.88.87,4.28,1.27a.7.7,0,0,0,.94-.46A.69.69,0,0,0,105.62,117.66Z" style="fill: #471280"></path>
      <path d="M89,112.24a19.08,19.08,0,0,0,3.88.93c.4,0,.66-.06.8-.47s-.27-.66-.6-.73c-1.27-.27-2.55-.47-3.82-.74a.56.56,0,0,0-.73.4C88.43,112,88.7,112.1,89,112.24Z" style="fill: #471280"></path>
      <path d="M130.18,82.87a3.62,3.62,0,0,0-1.48.2c-.4.2-.8.33-.66.87s.66.4,1,.27a3.31,3.31,0,0,1,3.21.87A7,7,0,0,1,134.19,88c.13.34.33.67.74.47s.33-.47.33-.74A5.41,5.41,0,0,0,130.18,82.87Z" style="fill: #471280"></path>
      <path d="M129.57,88.82c-.95,0-.87,1.17-1,2.08a5.83,5.83,0,0,0,.33,1.87.92.92,0,0,0,1,.8.94.94,0,0,0,.93-.87,6.26,6.26,0,0,0-.4-3.34A.88.88,0,0,0,129.57,88.82Z" style="fill: #471280"></path>
    </g>
  </g></g></g></svg>