<svg xmlns="http://www.w3.org/2000/svg" viewBox="0 0 400 300" width="406" height="306" class="illustration styles_illustrationTablet__1DWOa"><g id="_191_health_outline" data-name="#191_health_outline"><path d="M210.87,223.09s-1.7-33.51,3-41.15,17.77-12.32,25.77-20.47c9.6-9.79,11.88-18.13,18.92-21.42,6.12-2.85,9.18,1.17,9.18,1.17s-.88-26.73.39-29.7,7.11-9.54,13.19.21,6.1,40.63,2,59.18-25.79,29.69-27.53,34.36-1.18,17.82-1.18,17.82Z" fill="#ffc9b0"></path><path d="M254.56,224.09H210.87a1,1,0,0,1-1-1c-.07-1.38-1.66-33.91,3.11-41.72,2.71-4.42,8-7.8,13.53-11.38,4.37-2.81,8.89-5.71,12.38-9.27a84.54,84.54,0,0,0,9.21-11.44c3.22-4.58,5.76-8.2,10-10.19,4-1.84,6.83-1,8.54-.06-.19-6.72-.61-25.28.54-28,.89-2.07,3.45-5.26,6.87-5.52,2.9-.21,5.62,1.67,8.07,5.61,6.3,10.1,6.3,41,2.11,59.92-2.89,13-14.05,22.36-21.44,28.53-3,2.54-5.67,4.74-6.13,6-1.65,4.42-1.12,17.3-1.11,17.42a1,1,0,0,1-.28.74A1,1,0,0,1,254.56,224.09Zm-42.74-2h41.71c-.1-3.25-.25-13.1,1.27-17.17.64-1.72,3.19-3.85,6.72-6.8,7.18-6,18-15.06,20.77-27.43,4.09-18.4,4-49-1.85-58.43-2-3.25-4.13-4.82-6.23-4.66-2.61.2-4.62,3-5.19,4.31-.86,2-.65,19-.31,29.27a1,1,0,0,1-1.79.64c-.11-.13-2.69-3.32-8-.86-3.77,1.75-6.18,5.18-9.23,9.52a86.49,86.49,0,0,1-9.41,11.69c-3.65,3.72-8.26,6.69-12.73,9.56-5.37,3.44-10.44,6.7-12.9,10.73C210.67,189.05,211.6,216.6,211.82,222.09Z" fill="#093f68"></path><path d="M246.5,181.53a1,1,0,0,1-.68-.27,1,1,0,0,1,0-1.41c7.17-7.77,14.55-16.21,19-26.45a23.31,23.31,0,0,0,1.91-12,1,1,0,0,1,.81-1.16,1,1,0,0,1,1.16.82,24.83,24.83,0,0,1-2.05,13.15c-4.63,10.53-12.13,19.11-19.41,27A1,1,0,0,1,246.5,181.53Z" fill="#093f68"></path><rect x="208.2" y="200.6" width="55.41" height="29.92" fill="#89a4b2"></rect><path d="M263.61,231.52H208.2a1,1,0,0,1-1-1V200.6a1,1,0,0,1,1-1h55.41a1,1,0,0,1,1,1v29.92A1,1,0,0,1,263.61,231.52Zm-54.41-2h53.41V201.6H209.2Z" fill="#093f68"></path><path d="M189.13,223.09s1.7-33.51-3-41.15-17.77-12.32-25.77-20.47c-9.6-9.79-11.88-18.13-18.92-21.42-6.12-2.85-9.18,1.17-9.18,1.17s.88-26.73-.39-29.7-7.11-9.54-13.19.21-6.1,40.63-2,59.18,25.79,29.69,27.53,34.36,1.18,17.82,1.18,17.82Z" fill="#ffc9b0"></path><path d="M189.13,224.09H145.44a1,1,0,0,1-.72-.31,1,1,0,0,1-.28-.74c0-.12.54-13-1.11-17.42-.46-1.22-3.09-3.42-6.13-6-7.39-6.17-18.55-15.5-21.44-28.53-4.19-18.88-4.19-49.82,2.11-59.92,2.45-3.94,5.15-5.83,8.07-5.61,3.42.26,6,3.45,6.87,5.52,1.15,2.68.73,21.24.54,28,1.71-1,4.58-1.78,8.54.06,4.25,2,6.79,5.61,10,10.19a84.54,84.54,0,0,0,9.21,11.44c3.49,3.56,8,6.46,12.38,9.27,5.57,3.58,10.82,7,13.53,11.38,4.77,7.81,3.18,40.34,3.11,41.72A1,1,0,0,1,189.13,224.09Zm-42.66-2h41.71c.22-5.49,1.15-33-2.87-39.63-2.46-4-7.53-7.29-12.9-10.73-4.47-2.87-9.08-5.84-12.73-9.56a86.49,86.49,0,0,1-9.41-11.69c-3.05-4.34-5.46-7.77-9.23-9.52-5.27-2.46-7.85.73-8,.87a1,1,0,0,1-1.13.32,1,1,0,0,1-.66-1c.34-10.24.55-27.25-.31-29.27-.57-1.32-2.58-4.11-5.19-4.31-2.1-.16-4.2,1.41-6.23,4.66-5.88,9.46-5.94,40-1.85,58.43,2.75,12.37,13.59,21.44,20.77,27.43,3.53,2.95,6.08,5.08,6.72,6.8C146.72,209,146.57,218.84,146.47,222.09Z" fill="#093f68"></path><path d="M153.5,181.53a1,1,0,0,1-.74-.33c-7.28-7.89-14.78-16.47-19.41-27a24.83,24.83,0,0,1-2-13.15,1,1,0,0,1,1.16-.82,1,1,0,0,1,.81,1.16,23.31,23.31,0,0,0,1.91,12c4.5,10.24,11.88,18.68,19,26.45a1,1,0,0,1,0,1.41A1,1,0,0,1,153.5,181.53Z" fill="#093f68"></path><rect x="136.65" y="200.6" width="55.41" height="29.92" fill="#89a4b2"></rect><path d="M192.06,231.52H136.65a1,1,0,0,1-1-1V200.6a1,1,0,0,1,1-1h55.41a1,1,0,0,1,1,1v29.92A1,1,0,0,1,192.06,231.52Zm-54.41-2h53.41V201.6H137.65Z" fill="#093f68"></path><path d="M200,167.16c-2.46-2.28-4.84-4.57-7.3-6.75q-10.28-9.1-20.61-18.14a170.9,170.9,0,0,1-13.28-12.53,45.83,45.83,0,0,1-9-13.46,42,42,0,0,1-2.76-10.63,57.11,57.11,0,0,1-.48-9.86c.48-11.46,7.53-21.16,18.08-24.64C176.05,67.4,186,70,194.61,78.28a32.75,32.75,0,0,1,5.07,6.41l.32.49.39-.61a32.71,32.71,0,0,1,12.75-12,27.44,27.44,0,0,1,15-3A27,27,0,0,1,243.84,76,26.64,26.64,0,0,1,253,92.2a41.6,41.6,0,0,1,.25,9.91,46.86,46.86,0,0,1-1.79,10.44,40.82,40.82,0,0,1-7.67,14.16A101.93,101.93,0,0,1,232,138.61c-6.29,5.55-12.65,11-18.92,16.58-4.29,3.81-8.48,7.75-12.71,11.62Z" fill="#f56132"></path><path d="M200,168.16a1,1,0,0,1-.68-.27L197,165.73c-1.62-1.52-3.3-3.09-5-4.57q-8.52-7.56-17.08-15L171.44,143a175.92,175.92,0,0,1-13.36-12.6,46.19,46.19,0,0,1-9.16-13.76,42.59,42.59,0,0,1-2.83-10.88,58.47,58.47,0,0,1-.49-10c.5-11.93,7.86-22,18.77-25.55,11.51-3.8,21.92-1.32,30.94,7.36A33,33,0,0,1,200,83.33,33.14,33.14,0,0,1,212.69,71.7a28.54,28.54,0,0,1,15.5-3.08,28,28,0,0,1,16.3,6.58A27.73,27.73,0,0,1,254,92a42.83,42.83,0,0,1,.26,10.14,48.34,48.34,0,0,1-1.83,10.66,41.42,41.42,0,0,1-7.86,14.51,104.31,104.31,0,0,1-11.9,12q-4.29,3.78-8.61,7.54c-3.44,3-6.89,6-10.31,9-2.95,2.62-5.91,5.35-8.77,8-1.31,1.21-2.61,2.42-3.93,3.62l-.38.35A1,1,0,0,1,200,168.16ZM174.46,70.49A30.22,30.22,0,0,0,165,72.1c-10.11,3.33-16.94,12.64-17.4,23.73a56.47,56.47,0,0,0,.47,9.69,40.66,40.66,0,0,0,2.7,10.37,44.15,44.15,0,0,0,8.78,13.17,173.57,173.57,0,0,0,13.19,12.44l3.54,3.1q8.55,7.52,17.09,15.06c1.7,1.51,3.38,3.09,5,4.61L200,165.8l3.61-3.34c2.87-2.64,5.83-5.38,8.8-8,3.43-3,6.88-6,10.33-9.06q4.31-3.75,8.6-7.53A102.72,102.72,0,0,0,243,126.07a39.34,39.34,0,0,0,7.49-13.8A45.73,45.73,0,0,0,252.27,102a40.86,40.86,0,0,0-.23-9.67,25.86,25.86,0,0,0-8.84-15.65A26.13,26.13,0,0,0,228,70.61a26.58,26.58,0,0,0-14.43,2.87,31.36,31.36,0,0,0-12.36,11.63l-.4.61a1,1,0,0,1-.84.46,1.15,1.15,0,0,1-.84-.46l-.33-.51A31.89,31.89,0,0,0,193.92,79C188,73.34,181.52,70.49,174.46,70.49Z" fill="#093f68"></path><path d="M212.22,136.72h-.07a1,1,0,0,1-.9-.75L201.4,96l-13.69,32a1,1,0,0,1-1.79.1l-8.19-14.42H151.5a1,1,0,0,1,0-2h26.81a1,1,0,0,1,.87.51l7.49,13.17,14.07-32.93a1,1,0,0,1,1-.6,1,1,0,0,1,.89.75l9.82,39.82,11.17-28.07a1,1,0,0,1,.93-.63H250a1,1,0,0,1,0,2H225.23l-12.08,30.34A1,1,0,0,1,212.22,136.72Z" fill="#fff"></path></g></svg>