<svg width="170" height="69" viewBox="0 0 170 69" fill="none" xmlns="http://www.w3.org/2000/svg">
<path d="M25.1719 41.4844H6.9375V34.125H25.1719C28.7031 34.125 31.5625 33.5625 33.75 32.4375C35.9375 31.3125 37.5312 29.75 38.5312 27.75C39.5625 25.75 40.0781 23.4688 40.0781 20.9062C40.0781 18.5625 39.5625 16.3594 38.5312 14.2969C37.5312 12.2344 35.9375 10.5781 33.75 9.32812C31.5625 8.04688 28.7031 7.40625 25.1719 7.40625H9.04688L27.5781 39.0938L9.04688 68.25H0V0H25.1719C30.3281 0 34.6875 0.890625 38.25 2.67188C41.8125 4.45312 44.5156 6.92188 46.3594 10.0781C48.2031 13.2031 49.125 16.7812 49.125 20.8125C49.125 25.1875 48.2031 28.9219 46.3594 32.0156C44.5156 35.1094 41.8125 37.4688 38.25 39.0938C34.6875 40.6875 30.3281 41.4844 25.1719 41.4844Z" fill="url(#paint0_linear_6_43)"/>
<path d="M79.3594 6.04688L56.7656 68.25H47.5312L73.5469 0H79.5L79.3594 6.04688ZM98.2969 68.25L75.6562 6.04688L75.5156 0H81.4688L107.578 68.25H98.2969ZM97.125 42.9844V50.3906H58.7812V42.9844L77.5781 34.125L97.125 42.9844Z" fill="url(#paint1_linear_6_43)"/>
<path d="M161.297 29.3438V36.7031L143.078 42.9844L124.359 36.7031V29.3438L143.078 20.9062L161.297 29.3438ZM125.766 0V68.25H116.719V0H125.766ZM169.172 0V68.25H160.172V0H169.172Z" fill="url(#paint2_linear_6_43)"/>
<defs>
<linearGradient id="paint0_linear_6_43" x1="-6.42187" y1="18.25" x2="169.078" y2="28.25" gradientUnits="userSpaceOnUse">
<stop stop-color="#A9E5BB"/>
<stop offset="1" stop-color="#B78DBC"/>
</linearGradient>
<linearGradient id="paint1_linear_6_43" x1="-6.42187" y1="18.25" x2="169.078" y2="28.25" gradientUnits="userSpaceOnUse">
<stop stop-color="#A9E5BB"/>
<stop offset="1" stop-color="#B78DBC"/>
</linearGradient>
<linearGradient id="paint2_linear_6_43" x1="-6.42187" y1="18.25" x2="169.078" y2="28.25" gradientUnits="userSpaceOnUse">
<stop stop-color="#A9E5BB"/>
<stop offset="1" stop-color="#B78DBC"/>
</linearGradient>
</defs>
</svg>
